SplineFontDB: 3.2
FontName: fa-solid-900
FullName: fa-solid-900
FamilyName: Font Awesome 5 Free Solid
Weight: Solid
Copyright: Copyright (c) Font Awesome\nEdit by TIS Online
Version: 330.753 (Font Awesome version: 5.12.1)
ItalicAngle: 0
UnderlinePosition: -50
UnderlineWidth: 25
Ascent: 448
Descent: 64
InvalidEm: 0
sfntRevision: 0x014ac0c5
LayerCount: 2
Layer: 0 0 "+BBcEMAQ0BD0EOAQ5 +BD8EOwQwBD0A" 1
Layer: 1 0 "+BB8ENQRABDUENAQ9BDgEOQAA +BD8EOwQwBD0A" 0
XUID: [1021 100 271524438 18050]
StyleMap: 0x0000
FSType: 0
OS2Version: 4
OS2_WeightWidthSlopeOnly: 0
OS2_UseTypoMetrics: 1
CreationTime: 1580861031
ModificationTime: 1584956261
PfmFamily: 17
TTFWeight: 900
TTFWidth: 5
LineGap: 0
VLineGap: 0
Panose: 2 0 5 3 0 0 0 0 0 0
OS2TypoAscent: 448
OS2TypoAOffset: 0
OS2TypoDescent: -64
OS2TypoDOffset: 0
OS2TypoLinegap: 46
OS2WinAscent: 460
OS2WinAOffset: 0
OS2WinDescent: 84
OS2WinDOffset: 0
HheadAscent: 448
HheadAOffset: 0
HheadDescent: -64
HheadDOffset: 0
OS2SubXSize: 332
OS2SubYSize: 358
OS2SubXOff: 0
OS2SubYOff: 71
OS2SupXSize: 332
OS2SupYSize: 358
OS2SupXOff: 0
OS2SupYOff: 245
OS2StrikeYSize: 25
OS2StrikeYPos: 132
OS2CapHeight: 421
OS2XHeight: 314
OS2Vendor: 'PfEd'
OS2CodePages: 00000001.00000000
OS2UnicodeRanges: 00000000.00000000.00000000.00000000

StartChar: .notdef
Encoding: 65536 -1 0
Width: 256
Flags: MW
HStem: 0 25<50 206 50 231> 273 25<50 206 50 50>
VStem: 25 25<25 25 25 273> 206 25<25 273 273 273>
LayerCount: 2
Fore
SplineSet
25 0 m 1
 25 298 l 1
 231 298 l 1
 231 0 l 1
 25 0 l 1
50 25 m 1
 206 25 l 1
 206 273 l 1
 50 273 l 1
 50 25 l 1
EndSplineSet
Validated: 1
EndChar

StartChar: hyphen
Encoding: 45 45 2
Width: 640
GlyphClass: 2
Flags: W
HStem: -64 48<129.345 190.655 449.345 510.655> 32 64<608 639.278> 80 112<449.472 510.528> 304 48<416 460.1>
VStem: 64 48<1.47156 32> 208 48<1.47156 32> 384 48<1.47156 32> 528 48<1.47156 32>
LayerCount: 2
Fore
SplineSet
624 96 m 2xdf
 632.799804688 96 640 88.7998046875 640 80 c 2xbf
 640 48 l 2
 640 39.2001953125 632.799804688 32 624 32 c 2
 576 32 l 1
 576 -21 533 -64 480 -64 c 0
 427 -64 384 -21 384 32 c 1
 256 32 l 1
 256 -21 213 -64 160 -64 c 0
 107 -64 64 -21 64 32 c 1
 48 32 l 2xdf
 21.5 32 0 53.5 0 80 c 2xbf
 0 400 l 2
 0 426.5 21.5 448 48 448 c 2
 368 448 l 2
 394.5 448 416 426.5 416 400 c 2
 416 352 l 1
 460.099609375 352 l 2
 472.799804688 352 485 346.900390625 494 337.900390625 c 2
 593.900390625 238 l 2
 602.900390625 229 608 216.799804688 608 204.099609375 c 2
 608 96 l 1
 624 96 l 2xdf
160 -16 m 0
 186.5 -16 208 5.5 208 32 c 0xdf
 208 58.5 186.5 80 160 80 c 0xbf
 133.5 80 112 58.5 112 32 c 0xdf
 112 5.5 133.5 -16 160 -16 c 0
480 -16 m 0
 506.5 -16 528 5.5 528 32 c 0xdf
 528 58.5 506.5 80 480 80 c 0xbf
 453.5 80 432 58.5 432 32 c 0
 432 5.5 453.5 -16 480 -16 c 0
560 192 m 1xbf
 560 204.099609375 l 1
 460.099609375 304 l 1
 416 304 l 1
 416 192 l 1
 560 192 l 1xbf
EndSplineSet
Validated: 1
EndChar

StartChar: period
Encoding: 46 46 3
Width: 640
GlyphClass: 2
Flags: W
HStem: -64 64<3.78098 79.5064 560.488 636.219> 320 128<227.781 412.219> 320 64<192 224 416 448>
VStem: 128 64<232.469 320> 448 64<232.469 320>
LayerCount: 2
Fore
SplineSet
496.616210938 75.361328125 m 1xb8
 514.458007812 31.0009765625 555.182617188 0 616 0 c 0
 629.254882812 0 640 -10.7451171875 640 -24 c 2
 640 -40 l 2
 640 -53.2548828125 629.254882812 -64 616 -64 c 0
 554.967773438 -64 508.495117188 -43.3837890625 472.7421875 -4.603515625 c 1
 458.323242188 -39.431640625 423.978515625 -64 384 -64 c 2
 256 -64 l 2
 216.021484375 -64 181.676757812 -39.431640625 167.2578125 -4.603515625 c 1
 131.499023438 -43.3896484375 85.0234375 -64 24 -64 c 0
 10.7451171875 -64 0 -53.2548828125 0 -40 c 2
 0 -24 l 2
 0 -10.7451171875 10.7451171875 0 24 0 c 0
 85.5869140625 0 125.828125 31.712890625 143.383789062 75.361328125 c 1
 73.3720703125 145.373046875 l 2
 56.4541015625 162.291992188 63.455078125 191.15234375 86.2080078125 198.46484375 c 2
 128 211.8984375 l 1
 128 352 l 2
 128 369.672851562 142.327148438 384 160 384 c 2
 224 384 l 1xb8
 224 424 l 2
 224 437.254882812 234.745117188 448 248 448 c 2
 392 448 l 2xd8
 405.254882812 448 416 437.254882812 416 424 c 2
 416 384 l 1
 480 384 l 2
 497.672851562 384 512 369.672851562 512 352 c 2
 512 211.8984375 l 1
 553.791992188 198.46484375 l 2
 576.5703125 191.143554688 583.52734375 162.2734375 566.627929688 145.373046875 c 2
 496.616210938 75.361328125 l 1xb8
192 320 m 1
 192 232.46875 l 1
 310.208007812 270.463867188 l 2
 312.84375 271.311523438 317.231445312 271.999023438 320 271.999023438 c 0
 322.768554688 271.999023438 327.15625 271.311523438 329.791992188 270.463867188 c 2
 448 232.46875 l 1
 448 320 l 1
 192 320 l 1
EndSplineSet
Validated: 33
EndChar

StartChar: zero
Encoding: 48 48 4
Width: 512
GlyphClass: 2
Flags: W
HStem: -64 64<0.722478 351.278> 144 48<320 354.168> 384 64<96 256>
VStem: 32 64<256 384> 256 64<256 384> 368 48<52.2302 130.168> 464 48<52.9472 235.55>
LayerCount: 2
Fore
SplineSet
336 0 m 2
 344.799804688 0 352 -7.2001953125 352 -16 c 2
 352 -48 l 2
 352 -56.7998046875 344.799804688 -64 336 -64 c 2
 16 -64 l 2
 7.2001953125 -64 0 -56.7998046875 0 -48 c 2
 0 -16 l 2
 0 -7.2001953125 7.2001953125 0 16 0 c 2
 336 0 l 2
493.200195312 340.700195312 m 2
 505.200195312 328.700195312 512 312.400390625 512 295.400390625 c 2
 512 72 l 2
 512 29.7998046875 475.5 -4 432.5 0.2998046875 c 0
 395 4.2001953125 368 38.5 368 76.2001953125 c 2
 368 104 l 2
 368 126.099609375 350.099609375 144 328 144 c 2
 320 144 l 1
 320 32 l 1
 32 32 l 1
 32 384 l 2
 32 419.299804688 60.7001953125 448 96 448 c 2
 256 448 l 2
 291.299804688 448 320 419.299804688 320 384 c 2
 320 192 l 1
 328 192 l 2
 376.599609375 192 416 152.599609375 416 104 c 2
 416 72 l 2
 416 58.7998046875 426.799804688 48 440 48 c 0
 453.200195312 48 464 58.7998046875 464 72 c 2
 464 232.799804688 l 1
 436.900390625 236.700195312 416 259.900390625 416 288 c 2
 416 350.099609375 l 1
 378.299804688 387.799804688 l 2
 372.099609375 394 372.099609375 404.200195312 378.299804688 410.400390625 c 2
 389.599609375 421.700195312 l 2
 395.799804688 427.900390625 406 427.900390625 412.200195312 421.700195312 c 2
 493.200195312 340.700195312 l 2
256 256 m 1
 256 384 l 1
 96 384 l 1
 96 256 l 1
 256 256 l 1
EndSplineSet
Validated: 33
EndChar

StartChar: one
Encoding: 49 49 5
Width: 320
GlyphClass: 2
Flags: W
HStem: 352 96<177.472 238.528>
VStem: 160 96<369.472 430.528>
LayerCount: 2
Fore
SplineSet
208 352 m 0
 181.5 352 160 373.5 160 400 c 0
 160 426.5 181.5 448 208 448 c 0
 234.5 448 256 426.5 256 400 c 0
 256 373.5 234.5 352 208 352 c 0
302.5 202.900390625 m 2
 318.200195312 195 324.5 175.599609375 316.799804688 159.900390625 c 0
 308.900390625 144.099609375 289.900390625 137.700195312 274.299804688 145.599609375 c 2
 251 157.400390625 l 2
 236 165 224.599609375 178.299804688 219.299804688 194.400390625 c 2
 213.799804688 210.900390625 l 1
 196.599609375 142.200195312 l 1
 242.099609375 92.5 l 2
 249.299804688 84.7001953125 254.400390625 75.099609375 257 64.7998046875 c 2
 279.200195312 -24.2001953125 l 2
 283.5 -41.2998046875 273 -58.7001953125 255.900390625 -63 c 0
 238.799804688 -67.2998046875 221.400390625 -56.7998046875 217.099609375 -39.7001953125 c 2
 198.799804688 33.599609375 l 2
 196.200195312 43.900390625 191.099609375 53.400390625 183.900390625 61.2998046875 c 2
 124 126.700195312 l 2
 109.5 142.599609375 103.900390625 164.700195312 109.099609375 185.5 c 2
 124.299804688 246.200195312 l 1
 97.5 235.400390625 l 2
 90.2998046875 232.5 84.5 227 81 220 c 2
 74.2998046875 206.400390625 l 2
 66.400390625 190.599609375 47.400390625 184.200195312 31.7998046875 192.099609375 c 0
 16.099609375 200 9.7998046875 219.200195312 17.599609375 235 c 2
 24.2998046875 248.599609375 l 2
 34.7001953125 269.599609375 52.400390625 286.099609375 74 294.799804688 c 0
 111.400390625 309.900390625 131.299804688 320.099609375 167.299804688 320 c 0
 213.799804688 319.900390625 254.799804688 288.700195312 269.5 244.099609375 c 2
 279.200195312 214.700195312 l 1
 302.5 202.900390625 l 2
73.599609375 62.2001953125 m 2
 94.2998046875 113.700195312 l 1
 103 101.799804688 86.400390625 120.299804688 141.700195312 60 c 1
 128.200195312 26.2001953125 l 2
 124.900390625 18.099609375 120.099609375 10.7998046875 114 4.7001953125 c 2
 54.599609375 -54.7001953125 l 2
 42.099609375 -67.2001953125 21.900390625 -67.2001953125 9.400390625 -54.7001953125 c 0
 -3.099609375 -42.2001953125 -3.099609375 -21.900390625 9.400390625 -9.400390625 c 2
 59.400390625 40.7001953125 l 2
 65.599609375 46.7998046875 70.400390625 54.099609375 73.599609375 62.2001953125 c 2
EndSplineSet
Validated: 33
EndChar

StartChar: two
Encoding: 50 50 6
Width: 640
GlyphClass: 2
Flags: W
HStem: 313.965 63.9648<339.663 416.414>
LayerCount: 2
Fore
SplineSet
143.25 227.190429688 m 2
 130.830078125 180.8203125 l 2
 127.8203125 169.5703125 127.200195312 157.9296875 128.419921875 146.4296875 c 1
 93.2197265625 117.450195312 l 2
 86.650390625 112.040039062 76.91015625 117.879882812 78.599609375 126.219726562 c 2
 94.0400390625 202.900390625 l 2
 95.099609375 208.16015625 91.3798828125 213.1796875 86.0400390625 213.690429688 c 2
 8.1796875 221.240234375 l 2
 -0.2900390625 222.059570312 -3.0498046875 233.0703125 4.0400390625 237.780273438 c 2
 69.1904296875 281.080078125 l 2
 73.650390625 284.049804688 74.5703125 290.23046875 71.169921875 294.370117188 c 2
 21.4599609375 354.780273438 l 2
 16.0498046875 361.349609375 21.8896484375 371.080078125 30.240234375 369.400390625 c 2
 106.919921875 353.959960938 l 2
 112.1796875 352.900390625 117.200195312 356.620117188 117.719726562 361.959960938 c 2
 125.26953125 439.8203125 l 2
 126.08984375 448.299804688 137.099609375 451.049804688 141.8203125 443.959960938 c 2
 185.120117188 378.8203125 l 2
 188.08984375 374.360351562 194.26953125 373.440429688 198.41015625 376.83984375 c 2
 258.809570312 426.549804688 l 2
 265.379882812 431.959960938 275.110351562 426.120117188 273.4296875 417.780273438 c 2
 262.099609375 361.620117188 l 2
 259.389648438 358.5703125 256.669921875 355.530273438 254.190429688 352.219726562 c 2
 222.040039062 309.25 l 1
 211.330078125 294.9296875 l 1
 178.599609375 286.169921875 152.150390625 260.400390625 143.25 227.190429688 c 2
637.8203125 94.6796875 m 2
 625.400390625 48.3203125 l 2
 622.26953125 36.6396484375 616.01953125 26.7099609375 607.849609375 18.9599609375 c 0
 605.594726562 16.82421875 601.669921875 13.6884765625 599.08984375 11.9599609375 c 2
 585.099609375 -40.26953125 l 2
 583.959960938 -44.5400390625 582 -48.3701171875 579.450195312 -51.650390625 c 0
 571.780273438 -61.490234375 558.709960938 -66.330078125 545.91015625 -62.900390625 c 2
 515 -54.6201171875 l 2
 497.9296875 -50.0498046875 487.799804688 -32.5 492.370117188 -15.4296875 c 2
 500.650390625 15.48046875 l 1
 253.370117188 81.740234375 l 1
 245.08984375 50.830078125 l 2
 240.51953125 33.759765625 222.969726562 23.6298828125 205.900390625 28.2001953125 c 2
 174.990234375 36.48046875 l 2
 162.190429688 39.91015625 153.290039062 50.6396484375 151.5703125 62.990234375 c 0
 151 67.1103515625 151.219726562 71.41015625 152.360351562 75.669921875 c 2
 166.349609375 127.900390625 l 2
 164.977539062 130.688476562 163.145507812 135.370117188 162.259765625 138.349609375 c 0
 159.059570312 149.139648438 158.610351562 160.870117188 161.740234375 172.549804688 c 2
 174.16015625 218.919921875 l 2
 179.469726562 238.719726562 193.51953125 253.75 211.049804688 261.129882812 c 0
 215.958007812 263.198242188 224.241210938 265.3125 229.540039062 265.849609375 c 2
 247.669921875 290.080078125 l 1
 279.8203125 333.049804688 l 2
 283.26953125 337.66015625 287.009765625 341.950195312 291.01953125 345.889648438 c 0
 299.01953125 353.780273438 308.049804688 360.330078125 317.759765625 365.400390625 c 0
 322.620117188 367.940429688 327.650390625 370.110351562 332.809570312 371.889648438 c 0
 343.139648438 375.469726562 354 377.51953125 365.049804688 377.9296875 c 0
 376.099609375 378.33984375 387.360351562 377.110351562 398.48046875 374.129882812 c 2
 521.16015625 341.259765625 l 2
 532.280273438 338.280273438 542.639648438 333.719726562 552.009765625 327.830078125 c 0
 563.733398438 320.46875 579.274414062 305.012695312 586.700195312 293.330078125 c 0
 595.51953125 279.450195312 601.33984375 263.490234375 603.379882812 246.33984375 c 2
 609.740234375 193.049804688 l 1
 613.330078125 163 l 1
 622.123046875 156.651367188 632.310546875 143.243164062 636.0703125 133.0703125 c 0
 640.459960938 121.190429688 641.360351562 107.879882812 637.8203125 94.6796875 c 2
255.580078125 213.66015625 m 0
 237.030273438 218.629882812 221.370117188 209.620117188 216.41015625 191.129882812 c 0
 211.450195312 172.639648438 220.51953125 157.009765625 239.059570312 152.040039062 c 0
 257.610351562 147.0703125 284.599609375 136.530273438 289.549804688 155.01953125 c 0
 294.509765625 173.509765625 274.120117188 208.690429688 255.580078125 213.66015625 c 0
546.190429688 185.490234375 m 1
 539.830078125 238.780273438 l 2
 539.25 243.650390625 537.940429688 248.309570312 536.009765625 252.639648438 c 0
 530.209960938 265.629882812 518.809570312 275.650390625 504.58984375 279.459960938 c 2
 381.91015625 312.330078125 l 2
 378.541015625 313.232421875 372.975585938 313.96484375 369.487304688 313.96484375 c 0
 356.219726562 313.96484375 338.999023438 305.342773438 331.049804688 294.719726562 c 2
 298.900390625 251.75 l 1
 470.900390625 205.669921875 l 1
 546.190429688 185.490234375 l 1
564.6796875 130.83984375 m 0
 546.129882812 135.809570312 510.879882812 115.530273438 505.9296875 97.0498046875 c 0
 500.98046875 78.5595703125 529.620117188 74.1904296875 548.169921875 69.2197265625 c 0
 566.719726562 64.25 582.379882812 73.259765625 587.33984375 91.75 c 0
 592.290039062 110.23046875 583.23046875 125.870117188 564.6796875 130.83984375 c 0
EndSplineSet
Validated: 33
EndChar

StartChar: three
Encoding: 51 51 7
Width: 576
GlyphClass: 2
Flags: W
HStem: -64 64<0.719047 351.281> 144 48<320 354.168> 352 96<112.151 203.991>
VStem: 368 48<54.2438 130.168> 416 160<232.233 319.281> 448 32<320 383.281> 472 48<54.1291 200.119> 512 32<320 383.281>
LayerCount: 2
Fore
SplineSet
336 0 m 2xe0
 344.83984375 0 352 -7.16015625 352 -16 c 2
 352 -48 l 2
 352 -56.83984375 344.83984375 -64 336 -64 c 2
 16 -64 l 2
 7.16015625 -64 0 -56.83984375 0 -48 c 2
 0 -16 l 2
 0 -7.16015625 7.16015625 0 16 0 c 2
 336 0 l 2xe0
544 320 m 1xe5
 560 320 l 2
 568.83984375 320 576 312.83984375 576 304 c 2
 576 272 l 2xe8
 576 236.240234375 552.379882812 206.309570312 520 196.0703125 c 1
 520 76 l 2
 520 31.58984375 481.709960938 -4.0498046875 436.41015625 0.3798828125 c 0
 396.919921875 4.23046875 368 39.7197265625 368 79.3896484375 c 2
 368 104 l 2
 368 126.08984375 350.08984375 144 328 144 c 2
 320 144 l 1
 320 32 l 1
 32 32 l 1
 32 384 l 2
 32 419.349609375 60.650390625 448 96 448 c 2
 256 448 l 2
 291.349609375 448 320 419.349609375 320 384 c 2
 320 192 l 1
 328 192 l 2
 376.599609375 192 416 152.599609375 416 104 c 2
 416 76 l 2
 416 59.009765625 431.219726562 45.5 448.740234375 48.3896484375 c 0
 462.5 50.66015625 472 63.6298828125 472 77.580078125 c 2
 472 196.0703125 l 1xf2
 439.620117188 206.309570312 416 236.240234375 416 272 c 2
 416 304 l 2xe8
 416 312.83984375 423.16015625 320 432 320 c 2
 448 320 l 1
 448 368 l 2
 448 376.83984375 455.16015625 384 464 384 c 0
 472.83984375 384 480 376.83984375 480 368 c 2
 480 320 l 1
 512 320 l 1
 512 368 l 2
 512 376.83984375 519.16015625 384 528 384 c 0
 536.83984375 384 544 376.83984375 544 368 c 2
 544 320 l 1xe5
260.08984375 272.240234375 m 2
 264.709960938 279.219726562 258.940429688 288 249.700195312 288 c 2
 192 288 l 1
 203.599609375 338.790039062 l 2
 205.620117188 345.459960938 199.879882812 352 192 352 c 2
 124 352 l 2
 117.98046875 352 112.900390625 348.099609375 112.110351562 342.889648438 c 2
 96.1103515625 235.889648438 l 2
 95.150390625 229.58984375 100.75 224 108 224 c 2
 167.349609375 224 l 1
 144.330078125 140.919921875 l 2
 142.530273438 134.280273438 148.330078125 128 156 128 c 0
 160.1796875 128 164.190429688 129.91015625 166.389648438 133.240234375 c 2
 260.08984375 272.240234375 l 2
EndSplineSet
Validated: 33
EndChar

StartChar: four
Encoding: 52 52 8
Width: 640
GlyphClass: 2
Flags: W
HStem: -63.9902 79.9902<129.468 190.532 449.468 510.532> 32.0098 64<32.719 57.1429 262.857 287.179 352.719 377.143 582.857 607.179> 112 80<129.468 190.532 449.468 510.532> 160 64<0.719047 32 608 639.281> 224 96<102.35 217.65 502.4 537.66> 384 64<288 369.24>
VStem: 32 80<33.4675 94.5325> 128.01 64<-63.2712 -38.8468 166.857 191.281> 208 80.0195<33.4675 94.5325> 224 64<320 384> 352 80<33.4675 94.5325> 448.01 64<-63.281 -38.8571 166.857 191.281> 528 80.0195<33.4675 94.5325>
LayerCount: 2
Fore
SplineSet
624 224 m 2xd778
 632.83984375 224 640 216.83984375 640 208 c 2
 640 176 l 2
 640 167.16015625 632.83984375 160 624 160 c 2
 607.290039062 160 l 1xd778
 578.080078125 198.650390625 532.190429688 224 480.009765625 224 c 0xcf78
 427.830078125 224 381.940429688 198.650390625 352.73046875 160 c 1
 287.280273438 160 l 1xd778
 258.0703125 198.650390625 212.1796875 224 160 224 c 0xcf78
 107.8203125 224 61.9296875 198.650390625 32.7197265625 160 c 1
 16 160 l 2
 7.16015625 160 0 167.16015625 0 176 c 2
 0 208 l 2
 0 216.83984375 7.16015625 224 16 224 c 2
 32 224 l 1xd778
 32 304 l 2
 32 312.83984375 39.16015625 320 48 320 c 2
 224 320 l 1
 224 416 l 2
 224 433.669921875 238.330078125 448 256 448 c 2
 369.240234375 448 l 2
 386.219726562 447.998046875 408.610351562 437.237304688 419.219726562 423.98046875 c 2
 502.400390625 320 l 1
 576 320 l 2xcf78
 593.669921875 320 608 305.669921875 608 288 c 2
 608 224 l 1
 624 224 l 2xd778
288 320 m 1xcf78
 420.440429688 320 l 1
 369.240234375 384 l 1
 288 384 l 1
 288 320 l 1xcf78
592 96 m 2
 600.83984375 96 608 88.83984375 608.01953125 80 c 2
 608.01953125 48 l 2
 608.01953125 39.16015625 600.860351562 32 592.01953125 32 c 2
 586.8203125 32 l 1
 585.0234375 25.9892578125 581.1484375 16.630859375 578.169921875 11.1103515625 c 1
 581.83984375 7.4404296875 l 2
 588.08984375 1.1904296875 588.08984375 -8.9404296875 581.83984375 -15.1904296875 c 2
 559.209960938 -37.8203125 l 2
 552.959960938 -44.0703125 542.830078125 -44.0703125 536.580078125 -37.8203125 c 2
 532.91015625 -34.150390625 l 1
 526.290039062 -37.73046875 519.33984375 -40.599609375 512.009765625 -42.7998046875 c 1
 512.009765625 -48 l 2
 512.009765625 -56.83984375 504.849609375 -64 496.009765625 -64 c 2
 464.009765625 -64 l 2
 455.169921875 -64 448.009765625 -56.83984375 448.009765625 -48 c 2
 448.009765625 -42.7998046875 l 1
 440.6796875 -40.599609375 433.719726562 -37.7197265625 427.110351562 -34.150390625 c 1
 423.440429688 -37.8203125 l 2
 417.190429688 -44.0703125 407.059570312 -44.0703125 400.809570312 -37.8203125 c 2
 378.1796875 -15.1904296875 l 2
 371.9296875 -8.9404296875 371.9296875 1.1904296875 378.1796875 7.4404296875 c 2
 381.849609375 11.1103515625 l 1
 378.26953125 17.7197265625 375.400390625 24.669921875 373.200195312 32 c 1
 368 32 l 2
 359.16015625 32 352 39.16015625 352 48 c 2
 352 80 l 2
 352 88.83984375 359.16015625 96 368 96 c 2
 373.200195312 96 l 1
 374.99609375 102.010742188 378.87109375 111.369140625 381.849609375 116.889648438 c 1
 378.1796875 120.559570312 l 2
 371.9296875 126.809570312 371.9296875 136.940429688 378.1796875 143.190429688 c 2
 400.809570312 165.8203125 l 2
 407.059570312 172.0703125 417.190429688 172.0703125 423.440429688 165.8203125 c 2
 427.110351562 162.150390625 l 1
 433.719726562 165.73046875 440.669921875 168.599609375 448 170.799804688 c 1
 448 176 l 2
 448 184.83984375 455.16015625 192 464 192 c 2
 496 192 l 2xe738
 504.83984375 192 512 184.83984375 512 176 c 2
 512 170.799804688 l 1
 518.010742188 169.00390625 527.369140625 165.12890625 532.889648438 162.150390625 c 1
 536.559570312 165.8203125 l 2
 542.809570312 172.0703125 552.940429688 172.0703125 559.190429688 165.8203125 c 2
 581.8203125 143.190429688 l 2
 588.0703125 136.940429688 588.0703125 126.809570312 581.8203125 120.559570312 c 2
 578.150390625 116.889648438 l 1
 581.73046875 110.280273438 584.599609375 103.330078125 586.799804688 96 c 1
 592 96 l 2
480 16 m 0
 506.509765625 16 528 37.490234375 528 64 c 0
 528 90.509765625 506.509765625 112 480 112 c 0
 453.490234375 112 432 90.509765625 432 64 c 0
 432 37.490234375 453.490234375 16 480 16 c 0
272 96 m 2
 280.83984375 96 288 88.83984375 288.01953125 80.009765625 c 2
 288.01953125 48.009765625 l 2xe7b8
 288.01953125 39.169921875 280.860351562 32.009765625 272.01953125 32.009765625 c 2
 266.8203125 32.009765625 l 1
 265.0234375 26 261.1484375 16.640625 258.169921875 11.1201171875 c 1
 261.83984375 7.4501953125 l 2
 268.08984375 1.2001953125 268.08984375 -8.9296875 261.83984375 -15.1796875 c 2
 239.209960938 -37.8095703125 l 2
 232.959960938 -44.0595703125 222.830078125 -44.0595703125 216.580078125 -37.8095703125 c 2
 212.91015625 -34.1396484375 l 1
 206.290039062 -37.7197265625 199.33984375 -40.58984375 192.009765625 -42.7900390625 c 1
 192.009765625 -47.990234375 l 2
 192.009765625 -56.830078125 184.849609375 -63.990234375 176.009765625 -63.990234375 c 2
 144.009765625 -63.990234375 l 2
 135.169921875 -63.990234375 128.009765625 -56.830078125 128.009765625 -47.990234375 c 2
 128.009765625 -42.7900390625 l 1
 120.6796875 -40.58984375 113.719726562 -37.7099609375 107.110351562 -34.1396484375 c 1
 103.440429688 -37.8095703125 l 2
 97.1904296875 -44.0595703125 87.0595703125 -44.0595703125 80.8095703125 -37.8095703125 c 2
 58.1796875 -15.1796875 l 2
 51.9296875 -8.9296875 51.9296875 1.2001953125 58.1796875 7.4501953125 c 2
 61.849609375 11.1201171875 l 1
 58.26953125 17.73046875 55.400390625 24.6796875 53.2001953125 32.009765625 c 1
 48 32.009765625 l 2
 39.16015625 32.009765625 32 39.169921875 32 48.009765625 c 2
 32 80.009765625 l 2
 32 88.849609375 39.16015625 96.009765625 48 96.009765625 c 2
 53.2001953125 96.009765625 l 1
 54.99609375 102.020507812 58.87109375 111.37890625 61.849609375 116.900390625 c 1
 58.1796875 120.5703125 l 2
 51.9296875 126.8203125 51.9296875 136.950195312 58.1796875 143.200195312 c 2
 80.8095703125 165.8203125 l 2
 87.0595703125 172.0703125 97.1904296875 172.0703125 103.440429688 165.8203125 c 2
 107.110351562 162.150390625 l 1
 113.719726562 165.73046875 120.669921875 168.599609375 128 170.799804688 c 1
 128 176 l 2
 128 184.83984375 135.16015625 192 144 192 c 2
 176 192 l 2
 184.83984375 192 192 184.83984375 192 176 c 2
 192 170.799804688 l 1
 198.010742188 169.00390625 207.369140625 165.12890625 212.889648438 162.150390625 c 1
 216.559570312 165.8203125 l 2
 222.809570312 172.0703125 232.940429688 172.0703125 239.190429688 165.8203125 c 2
 261.8203125 143.190429688 l 2
 268.0703125 136.940429688 268.0703125 126.809570312 261.8203125 120.559570312 c 2
 258.150390625 116.889648438 l 1
 261.73046875 110.280273438 264.599609375 103.330078125 266.799804688 96 c 1
 272 96 l 2
160 16 m 0
 186.509765625 16 208 37.490234375 208 64 c 0
 208 90.509765625 186.509765625 112 160 112 c 0
 133.490234375 112 112 90.509765625 112 64 c 0
 112 37.490234375 133.490234375 16 160 16 c 0
EndSplineSet
Validated: 33
EndChar

StartChar: five
Encoding: 53 53 9
Width: 640
GlyphClass: 2
Flags: W
HStem: -64 64<81.4716 398.528> 24 48<99.7698 140.23 179.77 220.23 259.77 300.23 339.77 380.23> 96 128<256 377.671> 96 64<468.8 512> 384 64<192 309.8>
VStem: 0 64<17.3972 78.3276> 96 48<27.7698 68.2302> 128 64<288 384> 176 48<27.7698 68.2302> 256 48<27.7698 68.2302> 336 48<27.7698 68.2302> 416 64<17.3972 78.3752> 512 64<37.8522 96 160 218.148>
LayerCount: 2
Fore
SplineSet
120 72 m 0xce78
 133.299804688 72 144 61.2998046875 144 48 c 0
 144 34.7001953125 133.299804688 24 120 24 c 0
 106.700195312 24 96 34.7001953125 96 48 c 0
 96 61.2998046875 106.700195312 72 120 72 c 0xce78
200 72 m 0
 213.299804688 72 224 61.2998046875 224 48 c 0
 224 34.7001953125 213.299804688 24 200 24 c 0
 186.700195312 24 176 34.7001953125 176 48 c 0xccf8
 176 61.2998046875 186.700195312 72 200 72 c 0
280 72 m 0
 293.299804688 72 304 61.2998046875 304 48 c 0
 304 34.7001953125 293.299804688 24 280 24 c 0
 266.700195312 24 256 34.7001953125 256 48 c 0
 256 61.2998046875 266.700195312 72 280 72 c 0
360 72 m 0
 373.299804688 72 384 61.2998046875 384 48 c 0
 384 34.7001953125 373.299804688 24 360 24 c 0
 346.700195312 24 336 34.7001953125 336 48 c 0
 336 61.2998046875 346.700195312 72 360 72 c 0
598.599609375 22.599609375 m 2
 635.299804688 -14.099609375 l 2
 641.5 -20.2998046875 641.5 -30.5 635.299804688 -36.7001953125 c 2
 612.700195312 -59.2998046875 l 2
 606.5 -65.5 596.299804688 -65.5 590.099609375 -59.2998046875 c 2
 553.400390625 -22.599609375 l 2
 526.900390625 3.900390625 512 39.7998046875 512 77.2998046875 c 2
 512 96 l 1
 468.799804688 96 l 1
 475.799804688 81.400390625 480 65.2998046875 480 48 c 0
 480 -13.900390625 429.900390625 -64 368 -64 c 2
 112 -64 l 2
 50.099609375 -64 0 -13.900390625 0 48 c 0
 0 92.599609375 26.2998046875 130.799804688 64 148.799804688 c 1
 64 240 l 2
 64 266.5 85.5 288 112 288 c 2
 128 288 l 1
 128 400 l 2xdd78
 128 426.5 149.5 448 176 448 c 2
 320.299804688 448 l 2
 339.599609375 448 356.900390625 436.599609375 364.5 418.900390625 c 2
 442.799804688 236.099609375 l 2
 446.200195312 228.099609375 448 219.599609375 448 210.900390625 c 2
 448 160 l 1
 512 160 l 1xdcf8
 512 178.700195312 l 2
 512 216.200195312 526.900390625 252.099609375 553.400390625 278.599609375 c 2
 590.099609375 315.299804688 l 2
 596.299804688 321.5 606.5 321.5 612.700195312 315.299804688 c 2
 635.299804688 292.700195312 l 2
 641.5 286.5 641.5 276.299804688 635.299804688 270.099609375 c 2
 598.599609375 233.400390625 l 2
 584.099609375 218.900390625 576 199.299804688 576 178.799804688 c 2
 576 77.2001953125 l 2
 576 56.7001953125 584.099609375 37.099609375 598.599609375 22.599609375 c 2
192 384 m 1
 192 288 l 1
 256 224 l 1
 378.400390625 224 l 1xed78
 309.799804688 384 l 1
 192 384 l 1
368 0 m 2
 394.5 0 416 21.5 416 48 c 0
 416 74.5 394.5 96 368 96 c 2xec78
 112 96 l 2xdc78
 85.5 96 64 74.5 64 48 c 0
 64 21.5 85.5 0 112 0 c 2
 368 0 l 2
EndSplineSet
Validated: 33
EndChar

StartChar: six
Encoding: 54 54 10
Width: 640
GlyphClass: 2
Flags: W
HStem: -32 48<152.013 199.987> 64 64<352 384 448 480 544 639.28> 80 48<152.013 199.987> 160 64<160.341 191.659> 320 64<64 96 160 192 256 288 352 384 448 480>
VStem: 0 64<64.7197 95.2507 183.61 320> 96 64<222.86 320> 96 48<24.0126 71.9874> 192 64<222.86 320> 208 48<24.0126 71.9874> 288 64<183.61 320> 384 64<128 320> 480 64<128 320>
LayerCount: 2
Fore
SplineSet
624 128 m 2xdc38
 632.83203125 128 640 120.83203125 640 112 c 2
 640 80 l 2xbc38
 640 71.16796875 632.83203125 64 624 64 c 2
 286.389648438 64 l 1
 278.559570312 118.209960938 232.389648438 160 176 160 c 0
 119.610351562 160 73.4404296875 118.209960938 65.6103515625 64 c 1
 16 64 l 2xdc38
 7.16796875 64 0 71.16796875 0 80 c 2xbc38
 0 368 l 2
 0 376.83203125 7.16796875 384 16 384 c 2
 528 384 l 2
 536.83203125 384 544 376.83203125 544 368 c 2
 544 128 l 1
 624 128 l 2xdc38
96 204.3203125 m 1x9d38
 96 312 l 2x9e38
 96 316.416015625 92.416015625 320 88 320 c 2
 72 320 l 2
 67.583984375 320 64 316.416015625 64 312 c 2
 64 183.610351562 l 1
 72.2099609375 190.286132812 86.546875 199.564453125 96 204.3203125 c 1x9d38
192 222.860351562 m 1x9eb8
 192 312 l 2
 192 316.416015625 188.416015625 320 184 320 c 2
 168 320 l 2
 163.583984375 320 160 316.416015625 160 312 c 2
 160 222.860351562 l 1
 165.309570312 223.349609375 170.5703125 224 176 224 c 0
 181.4296875 224 186.690429688 223.349609375 192 222.860351562 c 1x9eb8
288 183.610351562 m 1
 288 312 l 2
 288 316.416015625 284.416015625 320 280 320 c 2
 264 320 l 2
 259.583984375 320 256 316.416015625 256 312 c 2x9cb8
 256 204.3203125 l 1x9c78
 265.453125 199.564453125 279.790039062 190.286132812 288 183.610351562 c 1
384 128 m 1xdc38
 384 312 l 2
 384 316.416015625 380.416015625 320 376 320 c 2
 360 320 l 2
 355.583984375 320 352 316.416015625 352 312 c 2
 352 128 l 1
 384 128 l 1xdc38
480 128 m 1
 480 312 l 2
 480 316.416015625 476.416015625 320 472 320 c 2
 456 320 l 2
 451.583984375 320 448 316.416015625 448 312 c 2
 448 128 l 1
 480 128 l 1
176 128 m 0xbd78
 220.16015625 128 256 92.16015625 256 48 c 0
 256 3.83984375 220.16015625 -32 176 -32 c 0
 131.83984375 -32 96 3.83984375 96 48 c 0
 96 92.16015625 131.83984375 128 176 128 c 0xbd78
176 16 m 0
 193.6640625 16 208 30.3359375 208 48 c 0
 208 65.6640625 193.6640625 80 176 80 c 0
 158.3359375 80 144 65.6640625 144 48 c 0
 144 30.3359375 158.3359375 16 176 16 c 0
EndSplineSet
Validated: 1
EndChar

StartChar: seven
Encoding: 55 55 11
Width: 640
GlyphClass: 2
Flags: W
HStem: -64 64<92.5981 163.402 476.598 547.402> 128 64<92.5981 163.402 476.598 547.402> 224 64<427.22 504.194> 352 96<369.473 430.527>
VStem: 0 64<28.5981 99.4019> 192 64<28.5981 99.4019> 288 64<7.80633 142.88> 352 96<369.473 430.527> 384 64<28.5981 99.4019> 576 64<28.5981 99.4019>
LayerCount: 2
Fore
SplineSet
400 352 m 0xfd40
 373.50390625 352 352 373.50390625 352 400 c 0
 352 426.49609375 373.50390625 448 400 448 c 0
 426.49609375 448 448 426.49609375 448 400 c 0
 448 373.50390625 426.49609375 352 400 352 c 0xfd40
396 231 m 2
 354.639648438 264.110351562 l 1
 296.389648438 214.190429688 l 1
 337.75 186.620117188 l 2
 345.614257812 181.376953125 351.998046875 169.451171875 352 160 c 2xfd40
 352 32 l 2
 352 14.3359375 337.6640625 0 320 0 c 0
 302.3359375 0 288 14.3359375 288 32 c 2
 288 142.879882812 l 1xfe40
 206.26953125 197.400390625 l 2
 198.403320312 202.643554688 192.018554688 214.572265625 192.018554688 224.026367188 c 0
 192.018554688 232.149414062 197.0234375 243.033203125 203.190429688 248.3203125 c 2
 315.190429688 344.3203125 l 2
 320.145507812 348.578125 329.470703125 352.033203125 336.00390625 352.033203125 c 0
 342.206054688 352.033203125 351.1640625 348.8828125 356 345 c 2
 427.219726562 288 l 1
 480 288 l 2
 497.6640625 288 512 273.6640625 512 256 c 0
 512 238.3359375 497.6640625 224 480 224 c 2
 416 224 l 1
 415.940429688 224 l 2
 409.7578125 224 400.825195312 227.135742188 396 231 c 2
512 192 m 0
 582.65625 192 640 134.65625 640 64 c 0
 640 -6.65625 582.65625 -64 512 -64 c 0
 441.34375 -64 384 -6.65625 384 64 c 0xfcc0
 384 134.65625 441.34375 192 512 192 c 0
512 0 m 0
 547.328125 0 576 28.671875 576 64 c 0
 576 99.328125 547.328125 128 512 128 c 0
 476.671875 128 448 99.328125 448 64 c 0
 448 28.671875 476.671875 0 512 0 c 0
128 192 m 0
 198.65625 192 256 134.65625 256 64 c 0
 256 -6.65625 198.65625 -64 128 -64 c 0
 57.34375 -64 0 -6.65625 0 64 c 0
 0 134.65625 57.34375 192 128 192 c 0
128 0 m 0
 163.328125 0 192 28.671875 192 64 c 0
 192 99.328125 163.328125 128 128 128 c 0
 92.671875 128 64 99.328125 64 64 c 0
 64 28.671875 92.671875 0 128 0 c 0
EndSplineSet
Validated: 1
EndChar

StartChar: eight
Encoding: 56 56 12
Width: 512
GlyphClass: 2
Flags: W
HStem: -64 128<80 176 208 304 336 432> 160 64<80 176 208 240 272 304 336 432> 248 31.4004<0.801723 25.3404> 352 64<167.794 216.206> 384 64<263.794 312.206>
VStem: 32 48<64 160> 160 64<359.794 408.206> 176 32<64 160> 240 32<224 307.2> 256 64<391.794 440.206> 304 32<64 160> 432 48<64 160>
LayerCount: 2
Fore
SplineSet
288 384 m 0xec50
 270.299804688 384 256 398.299804688 256 416 c 0xf450
 256 433.700195312 270.299804688 448 288 448 c 0xec50
 305.700195312 448 320 433.700195312 320 416 c 0xf450
 320 398.299804688 305.700195312 384 288 384 c 0xec50
511.5 396.099609375 m 0
 513.700195312 387.599609375 508.700195312 378.799804688 500.099609375 376.5 c 2
 272 315.700195312 l 1
 272 224 l 1
 448 224 l 2
 465.700195312 224 480 209.700195312 480 192 c 2
 480 -32 l 2
 480 -49.7001953125 465.700195312 -64 448 -64 c 2
 64 -64 l 2
 46.2998046875 -64 32 -49.7001953125 32 -32 c 2
 32 192 l 2
 32 209.700195312 46.2998046875 224 64 224 c 2
 240 224 l 1
 240 307.200195312 l 1xe490
 20.099609375 248.5 l 2
 18.7998046875 248.200195312 17.400390625 248 16 248 c 0
 8.900390625 248 2.5 252.700195312 0.599609375 259.799804688 c 0
 -1.7001953125 268.400390625 3.400390625 277.099609375 11.900390625 279.400390625 c 2
 491.900390625 407.400390625 l 2
 500.5 409.700195312 509.200195312 404.700195312 511.5 396.099609375 c 0
176 64 m 1xe510
 176 160 l 1
 80 160 l 1
 80 64 l 1
 176 64 l 1xe510
336 160 m 1xe430
 336 64 l 1
 432 64 l 1
 432 160 l 1
 336 160 l 1xe430
304 160 m 1
 208 160 l 1
 208 64 l 1xe530
 304 64 l 1
 304 160 l 1
192 352 m 0xf610
 174.299804688 352 160 366.299804688 160 384 c 0xee10
 160 401.700195312 174.299804688 416 192 416 c 0xf610
 209.700195312 416 224 401.700195312 224 384 c 0xee10
 224 366.299804688 209.700195312 352 192 352 c 0xf610
EndSplineSet
Validated: 33
EndChar

StartChar: nine
Encoding: 57 57 13
Width: 640
GlyphClass: 2
Flags: W
HStem: -63.9902 64.1201<224.84 590.249> 64 64<416 540.79> 384 64<128.719 320 384 575.281>
VStem: 320 64<320 384>
LayerCount: 2
Fore
SplineSet
304 64 m 2
 295.168945312 64 283.698242188 69.734375 278.400390625 76.7998046875 c 2
 192 192 l 1
 32 256 l 1
 0.490234375 364.120117188 l 2
 -2.0400390625 374.219726562 5.599609375 384 16.009765625 384 c 2
 56 384 l 2
 61.0302734375 384 65.7802734375 381.629882812 68.7998046875 377.599609375 c 2
 112 320 l 1
 320 320 l 1
 320 384 l 1
 144 384 l 2
 135.16015625 384 128 391.16015625 128 400 c 2
 128 432 l 2
 128 440.83984375 135.16015625 448 144 448 c 2
 560 448 l 2
 568.83984375 448 576 440.83984375 576 432 c 2
 576 400 l 2
 576 391.16015625 568.83984375 384 560 384 c 2
 384 384 l 1
 384 320 l 1
 507.709960938 320 608 219.709960938 608 96 c 0
 608 78.330078125 593.669921875 64 576 64 c 2
 304 64 l 2
416 252.490234375 m 1
 416 128 l 1
 540.790039062 128 l 1
 528.030273438 190.559570312 478.549804688 239.700195312 416 252.490234375 c 1
635.370117188 -10.8095703125 m 2
 641.959960938 -17.419921875 641.41015625 -28.330078125 634.389648438 -34.4697265625 c 0
 601.240234375 -63.51953125 580.8203125 -63.990234375 565.940429688 -63.990234375 c 2
 240 -63.990234375 l 2
 231.16015625 -63.990234375 224 -56.8095703125 224 -47.9599609375 c 2
 224 -15.900390625 l 2
 224 -7.0498046875 231.16015625 0.1298828125 240 0.1298828125 c 2
 565.940429688 0.1298828125 l 2
 576.740234375 0.1298828125 583.490234375 4.6103515625 590.580078125 11.3798828125 c 0
 596.98046875 17.490234375 606.969726562 17.650390625 613.219726562 11.3896484375 c 2
 635.370117188 -10.8095703125 l 2
EndSplineSet
Validated: 33
EndChar

StartChar: A
Encoding: 65 65 14
Width: 640
VWidth: 525
GlyphClass: 2
Flags: W
HStem: -57.3936 51.3213<52.1182 100.952 177.994 230.58 498.669 551.34> 38.1211 59.876<283.12 422.405> 55.2285 112.622<499.768 550.644> 55.2285 41.3418<52.0807 100.42 179.008 229.884> 113.82 264.165<238.047 300.308> 216.321 47.0449<475.576 532.088> 328.943 32.7891<39.7535 72.3824>
VStem: -0.574219 47.0439<-1.10663 49.7802> 107.771 62.7275<1.94653 46.4968> 123.024 264.164<199.704 302.325> 236.075 49.8955<-0.643158 37.9233> 431.33 44.2461<167.851 195.461 195.478 216.321> 445.639 45.6191<3.31007 37.8559> 556.835 49.8955<-0.643158 37.9233>
LayerCount: 2
Fore
SplineSet
196.158203125 411.62890625 m 5x8304
 186.178710938 450.120117188 139.021484375 464.807617188 116.32421875 458.672851562 c 4
 63.5771484375 444.41796875 100.560546875 361.732421875 50.7470703125 361.732421875 c 4
 41.4482421875 361.732421875 27.890625 374.586914062 22.2353515625 377.4140625 c 4
 27.9375 347.4765625 l 21
 33.5927734375 344.6484375 54.279296875 328.943359375 63.5771484375 328.943359375 c 4
 113.390625 328.943359375 76.1845703125 415.59375 126.303710938 421.607421875 c 4
 148.4609375 424.266601562 153.389648438 415.905273438 169.071289062 398.797851562 c 4
 196.158203125 411.62890625 l 5x8304
134.584960938 390.959960938 m 5
 222.506835938 428.28125 l 5
 247.014648438 370.54296875 l 5
 159.092773438 333.220703125 l 5
 134.584960938 390.959960938 l 5
-0.57421875 62.3564453125 m 5
 -0.57421875 72.3359375 9.248046875 96.8603515625 35.0654296875 96.5703125 c 5x912c
 161.943359375 96.8681640625 389.981445312 95.8017578125 402.870117188 97.9970703125 c 4xc12c
 421.985351562 101.250976562 431.381835938 117.955078125 431.381835938 136.48828125 c 6
 431.330078125 195.4609375 l 5
 431.330078125 195.4609375 431.381835938 219.171875 431.381835938 230.577148438 c 4
 431.381835938 247.802734375 444.211914062 263.366210938 462.74609375 263.366210938 c 6
 514.067382812 263.366210938 l 6
 532.56640625 263.366210938 545.4296875 257.663085938 558.260742188 244.833007812 c 6
 619.561523438 186.3828125 l 6
 632.391601562 173.552734375 638.09375 159.297851562 638.09375 140.763671875 c 6
 638.09375 55.228515625 l 6x9534
 638.09375 48.1005859375 629.540039062 38.12109375 622.412109375 38.12109375 c 6
 603.879882812 38.12109375 l 5
 606.73046875 32.4189453125 606.73046875 29.5673828125 606.73046875 23.865234375 c 4
 606.73046875 -21.75390625 572.516601562 -57.3935546875 526.897460938 -57.3935546875 c 4
 481.278320312 -57.3935546875 445.638671875 -21.75390625 445.638671875 23.865234375 c 4
 445.638671875 29.5673828125 442.787109375 32.4189453125 445.638671875 38.12109375 c 5
 283.120117188 38.12109375 l 5
 285.970703125 32.4189453125 285.970703125 29.5673828125 285.970703125 23.865234375 c 4xc12c
 285.970703125 -21.75390625 251.756835938 -57.3935546875 206.137695312 -57.3935546875 c 4
 179.05078125 -57.3935546875 157.666992188 -44.5634765625 141.985351562 -24.6044921875 c 5
 126.303710938 -44.5634765625 102.068359375 -57.3935546875 74.9814453125 -57.3935546875 c 4
 29.3623046875 -57.3935546875 -0.57421875 -13.919921875 -0.57421875 23.865234375 c 6
 -0.57421875 62.3564453125 l 5
74.9814453125 -6.072265625 m 4
 93.515625 -6.072265625 107.770507812 5.33203125 107.770507812 23.865234375 c 4x9184
 107.770507812 42.3984375 93.515625 55.228515625 74.9814453125 55.228515625 c 4
 56.44921875 55.228515625 46.4697265625 42.3984375 46.4697265625 23.865234375 c 4
 46.4697265625 5.33203125 56.44921875 -6.072265625 74.9814453125 -6.072265625 c 4
206.137695312 -6.072265625 m 4
 224.669921875 -6.072265625 236.075195312 5.33203125 236.075195312 23.865234375 c 4x91a4
 236.075195312 42.3984375 224.669921875 55.228515625 206.137695312 55.228515625 c 4
 187.604492188 55.228515625 170.498046875 42.3984375 170.498046875 23.865234375 c 4
 170.498046875 5.33203125 187.604492188 -6.072265625 206.137695312 -6.072265625 c 4
475.576171875 216.321289062 m 5xa514
 475.576171875 167.850585938 l 5
 569.666015625 167.850585938 l 5
 526.897460938 210.619140625 l 6
 524.046875 213.469726562 519.76953125 216.321289062 514.067382812 216.321289062 c 6
 475.576171875 216.321289062 l 5xa514
526.897460938 -6.072265625 m 4
 545.4296875 -6.072265625 556.834960938 5.33203125 556.834960938 23.865234375 c 4
 556.834960938 42.3984375 545.4296875 55.228515625 526.897460938 55.228515625 c 4
 508.364257812 55.228515625 491.2578125 42.3984375 491.2578125 23.865234375 c 4xa10c
 491.2578125 5.33203125 508.364257812 -6.072265625 526.897460938 -6.072265625 c 4
123.024414062 251.9609375 m 4x8944
 123.024414062 324.666992188 178.765625 377.985351562 251.470703125 377.985351562 c 4
 324.176757812 377.985351562 387.188476562 324.666992188 387.188476562 251.9609375 c 4
 387.188476562 179.255859375 324.176757812 113.8203125 251.470703125 113.8203125 c 4
 178.765625 113.8203125 123.024414062 179.255859375 123.024414062 251.9609375 c 4x8944
EndSplineSet
Validated: 37
EndChar

StartChar: B
Encoding: 66 66 15
Width: 640
VWidth: 525
GlyphClass: 2
Flags: W
HStem: -65 51.4805<67.4962 116.481 193.759 246.508 489.684 542.518> 30.8105 58.6299<299.21 422.19> 47.9707 112.97<490.786 541.82> 47.9707 41.4697<67.4582 115.947 194.777 245.811> 112.32 170.17<61.8301 360.7> 209.561 47.1895<505.13 523.207>
VStem: 14.6406 47.1895<-8.53861 42.5054> 123.32 62.9199<-5.47607 39.2118> 252.021 50.0498<-8.07397 30.6118> 436.49 45.7598<-4.1088 30.5445> 548.03 50.0498<-8.07397 30.6118>
LayerCount: 2
Fore
SplineSet
518 -13.51953125 m 4xa3e0
 499.41015625 -13.51953125 482.25 -2.080078125 482.25 16.509765625 c 4
 482.25 35.1005859375 499.41015625 47.970703125 518 47.970703125 c 4
 536.58984375 47.970703125 548.030273438 35.1005859375 548.030273438 16.509765625 c 4
 548.030273438 -2.080078125 536.58984375 -13.51953125 518 -13.51953125 c 4xa3e0
466.520507812 209.560546875 m 5xa7e0
 505.129882812 209.560546875 l 6
 510.850585938 209.560546875 515.140625 206.700195312 518 203.83984375 c 6
 560.900390625 160.940429688 l 5
 466.520507812 160.940429688 l 5
 466.520507812 209.560546875 l 5xa7e0
221.990234375 -13.51953125 m 4
 203.400390625 -13.51953125 186.240234375 -2.080078125 186.240234375 16.509765625 c 4
 186.240234375 35.1005859375 203.400390625 47.970703125 221.990234375 47.970703125 c 4x93e0
 240.580078125 47.970703125 252.020507812 35.1005859375 252.020507812 16.509765625 c 4
 252.020507812 -2.080078125 240.580078125 -13.51953125 221.990234375 -13.51953125 c 4
90.4306640625 -13.51953125 m 4
 71.83984375 -13.51953125 61.830078125 -2.080078125 61.830078125 16.509765625 c 4
 61.830078125 35.1005859375 71.83984375 47.970703125 90.4306640625 47.970703125 c 4
 109.020507812 47.970703125 123.3203125 35.1005859375 123.3203125 16.509765625 c 4
 123.3203125 -2.080078125 109.020507812 -13.51953125 90.4306640625 -13.51953125 c 4
422.190429688 89.4404296875 m 5xc7e0
 406.459960938 89.4404296875 179.08984375 89.7392578125 51.8203125 89.4404296875 c 5x93e0
 25.923828125 89.73046875 14.640625 65.1298828125 14.640625 55.1201171875 c 5
 14.640625 16.509765625 l 6
 14.640625 -21.3916015625 44.669921875 -65 90.4306640625 -65 c 4
 117.600585938 -65 141.91015625 -52.1298828125 157.640625 -32.109375 c 5
 173.370117188 -52.1298828125 194.8203125 -65 221.990234375 -65 c 4
 267.75 -65 302.0703125 -29.25 302.0703125 16.509765625 c 4
 302.0703125 22.23046875 302.0703125 25.08984375 299.209960938 30.810546875 c 5
 436.490234375 30.810546875 l 5
 433.629882812 25.08984375 436.490234375 22.23046875 436.490234375 16.509765625 c 4
 436.490234375 -29.25 472.240234375 -65 518 -65 c 4
 563.760742188 -65 598.080078125 -29.25 598.080078125 16.509765625 c 4
 598.080078125 22.23046875 598.080078125 25.08984375 595.220703125 30.810546875 c 5
 613.810546875 30.810546875 l 6xc3e0
 620.959960938 30.810546875 629.540039062 40.8203125 629.540039062 47.970703125 c 6x93e0
 629.540039062 133.770507812 l 6
 629.540039062 152.360351562 623.8203125 166.66015625 610.950195312 179.530273438 c 6
 549.459960938 238.16015625 l 6
 536.58984375 251.030273438 523.686523438 256.75 505.129882812 256.75 c 6
 453.650390625 256.75 l 6
 435.060546875 256.75 422.190429688 241.138671875 422.190429688 223.860351562 c 4
 422.190429688 212.419921875 422.190429688 89.4404296875 422.190429688 89.4404296875 c 5xc7e0
465.08984375 283.919921875 m 5
 397.879882812 256.75 l 4x87e0
 399.310546875 112.3203125 l 5
 362.129882812 112.3203125 l 5
 61.830078125 112.3203125 l 5
 1.7705078125 282.490234375 l 5
 360.700195312 282.490234375 l 5x8be0
 360.700195312 308.23046875 l 5
 465.08984375 308.23046875 l 5
 465.08984375 283.919921875 l 5
EndSplineSet
Validated: 41
EndChar

StartChar: C
Encoding: 67 67 16
Width: 640
VWidth: 525
GlyphClass: 2
Flags: W
HStem: -59 51.4795<51.562 99.3097 177.019 229.767 498.684 551.518> 36.8096 60.0615<282.47 422.185> 53.9697 41.4697<50.7183 99.2071 178.035 229.069> 118.319 153.131<86.8496 151.05 279.899 345.1> 118.319 114.681<35.8017 86.8496 151.05 279.899 345.1 398.03> 215.562 47.1895<475.52 532.207>
VStem: -2.09863 47.1885<-2.53797 48.5045> 86.8496 64.2002<233.402 271.45> 106.58 62.918<0.524414 45.2109> 235.279 50.0488<-2.07407 36.6096> 279.899 65.2002<234.28 274.02> 431.138 44.3818<166.939 194.637 194.654 215.562> 445.488 45.7617<1.20689 36.6108> 557.029 50.0518<-2.07428 36.6123>
LayerCount: 2
Fore
SplineSet
-2.1005859375 61.1201171875 m 2xc24c
 -2.1005859375 71.130859375 7.7529296875 95.73046875 33.6494140625 95.439453125 c 0xa24c
 160.919921875 95.73828125 389.66015625 94.6689453125 402.58984375 96.87109375 c 0xc24c
 421.763671875 100.134765625 431.189453125 116.888671875 431.19140625 135.478515625 c 2
 431.137695312 194.63671875 l 1
 431.137695312 194.63671875 431.189453125 218.419921875 431.19140625 229.859375 c 0
 431.189453125 247.138671875 444.059570312 262.75 462.649414062 262.750976562 c 2
 514.129882812 262.75 l 2
 532.6875 262.750976562 545.587890625 257.028320312 558.459960938 244.161132812 c 2
 619.950195312 185.530273438 l 2
 632.819335938 172.66015625 638.538085938 158.359375 638.540039062 139.76953125 c 2
 638.540039062 53.9697265625 l 2xa654
 638.541015625 46.8193359375 629.9609375 36.8095703125 622.806640625 36.80859375 c 2
 604.219726562 36.8125 l 1
 607.080078125 31.08984375 607.080078125 28.2314453125 607.081054688 22.509765625 c 0
 607.078125 -23.25 572.759765625 -59 527 -59 c 0
 481.241210938 -59 445.489257812 -23.25 445.48828125 22.509765625 c 0
 445.489257812 28.2294921875 442.629882812 31.08984375 445.489257812 36.8095703125 c 1
 282.469726562 36.8095703125 l 1
 285.366210938 31.017578125 285.328125 28.2294921875 285.328125 22.509765625 c 0
 285.328125 -23.2490234375 251.009765625 -59 205.248046875 -59 c 0
 178.080078125 -59 156.629882812 -46.12890625 140.899414062 -26.1103515625 c 1
 125.169921875 -46.1298828125 100.859375 -59.001953125 73.69140625 -59 c 0
 27.9287109375 -59 -2.1005859375 -15.392578125 -2.0986328125 22.509765625 c 2
 -2.1005859375 61.1201171875 l 2xc24c
73.69140625 -7.5185546875 m 0
 92.28125 -7.5185546875 106.581054688 3.919921875 106.580078125 22.509765625 c 0xa284
 106.581054688 41.099609375 92.279296875 53.9697265625 73.689453125 53.9697265625 c 0
 55.099609375 53.9697265625 45.0908203125 41.099609375 45.08984375 22.509765625 c 0
 45.08984375 3.919921875 55.1015625 -7.5185546875 73.69140625 -7.5185546875 c 0
205.25 -7.5205078125 m 0
 223.840820312 -7.5205078125 235.279296875 3.919921875 235.279296875 22.5107421875 c 0xa2c4
 235.278320312 41.099609375 223.83984375 53.9697265625 205.25 53.9697265625 c 0
 186.66015625 53.9697265625 169.498046875 41.099609375 169.498046875 22.509765625 c 0
 169.5 3.919921875 186.66015625 -7.5205078125 205.25 -7.5205078125 c 0
475.51953125 215.561523438 m 1x8614
 475.51953125 166.939453125 l 1
 569.899414062 166.938476562 l 1
 527 209.83984375 l 2
 524.13671875 212.700195312 519.849609375 215.559570312 514.129882812 215.559570312 c 2
 475.51953125 215.561523438 l 1x8614
527 -7.5205078125 m 0
 545.590820312 -7.5205078125 557.029296875 3.919921875 557.029296875 22.509765625 c 0
 557.029296875 41.099609375 545.58984375 53.96875 527.000976562 53.96875 c 0
 508.41015625 53.9697265625 491.25 41.099609375 491.25 22.5087890625 c 0x820c
 491.25 3.91796875 508.41015625 -7.5205078125 527 -7.5205078125 c 0
86.849609375 271.450195312 m 1x9324
 151.049804688 271.450195312 l 1x9324
 151.049804688 233.40234375 l 1
 279.899414062 234.020507812 l 1
 279.899414062 274.01953125 l 1
 345.099609375 274.01953125 l 1
 345.099609375 234.280273438 l 1
 373.989257812 234.4296875 l 2
 403.984375 234.4296875 408.309570312 204.224609375 408.309570312 174.229492188 c 0
 408.309570312 144.234375 403.984375 119.75 373.989257812 119.75 c 2
 59.3896484375 118.319335938 l 2
 29.39453125 118.319335938 26.5 144.234375 26.5 174.229492188 c 0
 26.5 204.224609375 29.39453125 233 59.3896484375 233 c 2x8b24
 86.849609375 233.142578125 l 1
 86.849609375 271.450195312 l 1x9324
EndSplineSet
Validated: 33
EndChar

StartChar: D
Encoding: 68 68 17
Width: 640
VWidth: 525
GlyphClass: 2
Flags: W
HStem: -49.7822 51.2998<51.7744 99.3559 176.793 229.357 497.333 549.982> 45.6924 59.8516<281.875 421.102> 62.793 41.3242<50.9344 99.2532 177.806 228.661> 223.819 47.0254<474.25 530.739> 403.235 20G<271.025 383.078>
VStem: -1.69824 47.0234<6.48266 57.3467> 106.6 62.6992<9.5343 54.0647> 234.85 49.874<6.94497 45.4945> 430.024 44.2256<175.367 202.968 202.985 223.819> 444.324 45.6006<10.2144 45.4944> 555.475 49.876<6.94454 45.4964>
LayerCount: 2
Fore
SplineSet
525.549804688 1.517578125 m 0x9f60
 544.076171875 1.517578125 555.474609375 12.91796875 555.474609375 31.4423828125 c 0
 555.474609375 49.9677734375 544.075195312 62.7919921875 525.55078125 62.7919921875 c 0
 507.025390625 62.79296875 489.924804688 49.9677734375 489.924804688 31.44140625 c 0
 489.924804688 12.9169921875 507.025390625 1.517578125 525.549804688 1.517578125 c 0x9f60
474.25 223.819335938 m 1x9fa0
 474.25 175.3671875 l 1
 568.299804688 175.366210938 l 1
 525.549804688 218.1171875 l 2
 522.697265625 220.967773438 518.424804688 223.817382812 512.724609375 223.817382812 c 2
 474.25 223.819335938 l 1x9fa0
204.924804688 1.517578125 m 0
 223.451171875 1.517578125 234.849609375 12.91796875 234.849609375 31.4443359375 c 0
 234.848632812 49.9677734375 223.450195312 62.79296875 204.924804688 62.79296875 c 0xbf20
 186.400390625 62.79296875 169.298828125 49.9677734375 169.298828125 31.4423828125 c 0
 169.299804688 12.91796875 186.400390625 1.517578125 204.924804688 1.517578125 c 0
73.8271484375 1.51953125 m 0
 92.3515625 1.51953125 106.6015625 12.91796875 106.599609375 31.4423828125 c 0
 106.6015625 49.9677734375 92.349609375 62.79296875 73.8251953125 62.79296875 c 0
 55.2998046875 62.79296875 45.3271484375 49.9677734375 45.3251953125 31.4423828125 c 0
 45.3251953125 12.91796875 55.3017578125 1.51953125 73.8271484375 1.51953125 c 0
-1.7001953125 69.91796875 m 2
 -1.7001953125 79.89453125 8.119140625 104.407226562 33.9248046875 104.1171875 c 0xbf60
 160.75 104.416015625 388.689453125 103.349609375 401.575195312 105.543945312 c 0xdf60
 420.681640625 108.796875 430.075195312 125.491210938 430.076171875 144.016601562 c 2
 430.024414062 202.967773438 l 1
 430.024414062 202.967773438 430.075195312 226.66796875 430.076171875 238.067382812 c 0
 430.075195312 255.286132812 442.900390625 270.842773438 461.424804688 270.844726562 c 2
 512.724609375 270.842773438 l 2
 531.217773438 270.844726562 544.07421875 265.141601562 556.900390625 252.319335938 c 2
 618.174804688 193.892578125 l 2
 631 181.067382812 636.69921875 166.817382812 636.700195312 148.29296875 c 2
 636.700195312 62.79296875 l 2xbfa0
 636.701171875 55.66796875 628.151367188 45.6923828125 621.022460938 45.69140625 c 2
 602.5 45.6962890625 l 1
 605.349609375 39.9921875 605.349609375 37.14453125 605.350585938 31.4423828125 c 0
 605.348632812 -14.1572265625 571.150390625 -49.7822265625 525.549804688 -49.7822265625 c 0
 479.951171875 -49.7822265625 444.325195312 -14.1572265625 444.32421875 31.4423828125 c 0
 444.325195312 37.142578125 441.474609375 39.9921875 444.325195312 45.6923828125 c 1
 281.875 45.6923828125 l 1xdf60
 284.736328125 39.970703125 284.723632812 37.142578125 284.723632812 31.4423828125 c 0
 284.723632812 -14.1552734375 250.525390625 -49.7822265625 204.923828125 -49.7822265625 c 0
 177.849609375 -49.7822265625 156.474609375 -36.9560546875 140.799804688 -17.0078125 c 1
 125.125 -36.95703125 100.900390625 -49.783203125 73.8271484375 -49.7822265625 c 0
 28.22265625 -49.7822265625 -1.7001953125 -6.326171875 -1.6982421875 31.4423828125 c 2
 -1.7001953125 69.91796875 l 2
383.078125 416.977539062 m 1
 405.162109375 317.255859375 l 1
 316.184570312 256.092773438 l 1
 356 199 l 1
 278.39453125 214.5546875 l 1
 279.458007812 235.408203125 l 1
 248.109375 217.75 l 1
 266.375 168.293945312 l 1
 215.427734375 174.947265625 l 1
 213.982421875 198.526367188 l 1
 171.497070312 174.598632812 l 1
 180.981445312 140.927734375 l 1
 139.743164062 147.204101562 l 1
 143.747070312 158.966796875 l 1
 65.5869140625 114.943359375 l 1
 128.038085938 205.19921875 l 1
 116.565429688 215.120117188 l 1
 145.361328125 267.384765625 l 1
 152.798828125 240.983398438 l 1
 179.229492188 279.181640625 l 1
 160.88671875 294.469726562 l 1
 184.387695312 362.108398438 l 1
 206.008789062 317.884765625 l 1
 233.50390625 357.93359375 l 1
 205.00390625 367.909179688 l 1
 226.37890625 436.30859375 l 1
 255.8046875 389.8515625 l 1
 293.768554688 423.235351562 l 1
 383.078125 416.977539062 l 1
EndSplineSet
Validated: 33
EndChar

StartChar: E
Encoding: 69 69 18
Width: 640
VWidth: 525
GlyphClass: 2
Flags: W
HStem: -59.0498 51.4795<105.385 154.37 231.649 283.754 494.168 547.906> 35.3301 58.6299<337.1 427.189> 52.4902 112.97<495.786 546.82> 53.9199 41.4424<105.348 123.209 232.666 283.7> 53.9199 30.0303<123.318 153.837 232.666 247.547> 98.25 20.0195<135.204 151.2> 214.08 47.1895<471.52 528.221>
VStem: 52.5293 47.1904<-1.20364 48.4546> 161.21 62.9199<0.473633 45.1611> 289.91 50.0498<-1.74358 36.5612> 427.189 44.3301<165.46 214.08> 441.49 45.7598<0.410735 35.064> 553.029 50.0508<-3.55444 35.1313>
LayerCount: 2
Fore
SplineSet
128.319335938 -7.5703125 m 0x8bc8
 146.91015625 -7.5703125 161.209960938 3.8701171875 161.209960938 22.4599609375 c 0
 161.209960938 41.0498046875 146.91015625 53.919921875 128.319335938 53.919921875 c 0
 109.729492188 53.919921875 99.7197265625 41.0498046875 99.7197265625 22.4599609375 c 0
 99.7197265625 3.8701171875 109.729492188 -7.5703125 128.319335938 -7.5703125 c 0x8bc8
259.879882812 -7.5703125 m 0
 278.469726562 -7.5703125 289.91015625 3.8701171875 289.91015625 22.4599609375 c 0
 289.91015625 41.0498046875 278.469726562 53.919921875 259.879882812 53.919921875 c 0x93c8
 241.290039062 53.919921875 224.129882812 41.0498046875 224.129882812 22.4599609375 c 0
 224.129882812 3.8701171875 241.290039062 -7.5703125 259.879882812 -7.5703125 c 0
471.51953125 214.080078125 m 1xa3e8
 471.51953125 165.459960938 l 1
 565.899414062 165.459960938 l 1
 523 208.359375 l 2
 520.139648438 211.219726562 515.849609375 214.080078125 510.129882812 214.080078125 c 2
 471.51953125 214.080078125 l 1xa3e8
523 -9 m 0
 541.58984375 -9 553.029296875 2.439453125 553.029296875 21.029296875 c 0
 553.029296875 39.6201171875 541.58984375 52.490234375 523 52.490234375 c 0
 504.41015625 52.490234375 487.25 39.6201171875 487.25 21.029296875 c 0xa3d8
 487.25 2.439453125 504.41015625 -9 523 -9 c 0
123.018554688 95.3623046875 m 0x93d8
 123.08203125 95.3623046875 123.14453125 95.361328125 123.208984375 95.361328125 c 1
 123.145507812 95.361328125 123.08203125 95.361328125 123.018554688 95.361328125 c 1
 127.159179688 89.6796875 133.684570312 85.5810546875 141.189453125 83.9501953125 c 0
 169.790039062 83.9501953125 198.389648438 83.9501953125 226.990234375 83.9501953125 c 0x8bd8
 234.930664062 85.67578125 242.862304688 89.0771484375 247.779296875 94.783203125 c 1
 264.130859375 94.70703125 280.797851562 94.6298828125 297.059570312 94.5546875 c 0
 365.194335938 94.240234375 426.221679688 93.9599609375 427.189453125 93.9599609375 c 2xc3e8
 427.189453125 93.9599609375 427.189453125 216.939453125 427.189453125 228.379882812 c 0
 427.189453125 245.540039062 440.059570312 261.26953125 458.649414062 261.26953125 c 2
 510.129882812 261.26953125 l 2
 528.719726562 261.26953125 541.58984375 255.549804688 554.459960938 242.6796875 c 2
 615.950195312 184.049804688 l 2
 628.819335938 171.1796875 634.540039062 156.879882812 634.540039062 138.290039062 c 2
 634.540039062 52.490234375 l 2xa3e8
 634.540039062 45.33984375 625.959960938 35.330078125 618.809570312 35.330078125 c 2
 600.219726562 35.330078125 l 1
 603.080078125 29.609375 603.080078125 26.75 603.080078125 21.029296875 c 0
 603.080078125 -24.73046875 568.759765625 -60.48046875 523 -60.48046875 c 0
 477.240234375 -60.48046875 441.490234375 -24.73046875 441.490234375 21.029296875 c 0
 441.490234375 26.75 438.629882812 29.609375 441.490234375 35.330078125 c 1xc3d8
 337.099609375 36.759765625 l 2
 339.959960938 31.0400390625 339.959960938 28.1796875 339.959960938 22.4599609375 c 0
 339.959960938 -18.392578125 312.606445312 -51.2666015625 274.1796875 -57.8486328125 c 0
 269.563476562 -58.638671875 264.787109375 -59.0498046875 259.879882812 -59.0498046875 c 0
 232.709960938 -59.0498046875 211.259765625 -46.1806640625 195.529296875 -26.16015625 c 1
 179.799804688 -46.1806640625 155.490234375 -59.0498046875 128.319335938 -59.0498046875 c 0
 82.5595703125 -59.0498046875 52.529296875 -16.150390625 52.529296875 22.4599609375 c 2
 52.529296875 61.0693359375 l 2
 52.529296875 71.080078125 63.9697265625 95.3896484375 89.7099609375 95.3896484375 c 0
 100.387695312 95.3896484375 111.5390625 95.3623046875 123.018554688 95.3623046875 c 0x93d8
151.200195312 118.26953125 m 2x87c8
 151.200195312 118.26953125 211.259765625 118.33984375 211.259765625 118.26953125 c 0
 221.26953125 117.125976562 229.278320312 113.693359375 229.278320312 107.973632812 c 0
 229.278320312 102.25390625 220.278320312 99.3701171875 211.259765625 98.25 c 2
 155.203125 98.25 l 1
 151.200195312 98.25 l 2
 142.182617188 99.3701171875 135.18359375 103.397460938 135.18359375 108.545898438 c 0
 135.18359375 113.693359375 142.182617188 117.149414062 151.200195312 118.26953125 c 2x87c8
EndSplineSet
Validated: 33
EndChar

StartChar: F
Encoding: 70 70 19
Width: 640
VWidth: 525
GlyphClass: 2
Flags: W
HStem: -63 51.4795<52.7556 101.74 179.019 231.768 500.684 553.518> 32.8096 58.6299<284.47 433.189> 49.9697 112.97<501.786 552.82> 49.9697 41.4697<52.7179 101.207 180.036 231.07> 211.56 47.1904<516.13 534.207> 232.148 40.8516<73.1826 90> 277.34 38.6094<72.8301 283.038>
VStem: -0.100586 47.1904<-6.53926 44.5045> 73.8838 16.8164<221.356 227.524> 108.58 62.9199<-3.47656 41.2109> 237.279 50.0508<-6.07428 32.611> 447.489 45.7607<-2.1088 32.5435> 559.029 50.0508<-6.07428 32.611>
LayerCount: 2
Fore
SplineSet
73.8837890625 227.524414062 m 25x83f8
 90.7001953125 227.524414062 l 1
 91.4013671875 221.356445312 l 1
 91.4013671875 221.356445312 109.560546875 218.700195312 114.524414062 194.380859375 c 0
 118.428710938 175.250976562 100.509765625 157.383789062 82.2919921875 157.383789062 c 0
 64.07421875 157.383789062 48.4580078125 164.529296875 46.3564453125 182.2578125 c 0
 43.9853515625 202.26171875 52.162109375 188.986328125 52.86328125 185.90234375 c 0
 53.5634765625 182.818359375 61.0781475789 169.122900108 81.3916015625 172.248046875 c 0
 94.404296875 174.25 96 181.9921875 96 190 c 0
 96 200.881835938 81.5913845051 211.338640341 74.5849609375 207.484375 c 0
 67.578125 203.629882812 73.8837890625 219.81640625 73.8837890625 227.524414062 c 25x83f8
73.1826171875 273 m 1x87f8
 90 273 l 1
 98.408203125 248.333984375 l 1
 92.1025390625 232.1484375 l 1
 71.78125 232.1484375 l 1
 66.876953125 248.333984375 l 1
 73.1826171875 273 l 1x87f8
433.189453125 91.439453125 m 1xcbf8
 417.459960938 91.439453125 164.349609375 91.73828125 37.080078125 91.439453125 c 0x93f8
 11.18359375 91.73046875 -0.1005859375 67.1298828125 -0.1005859375 57.1201171875 c 2
 -0.1005859375 18.509765625 l 2
 -0.1005859375 -19.392578125 29.9296875 -63 75.689453125 -63 c 0
 102.859375 -63 127.169921875 -50.1298828125 142.899414062 -30.1103515625 c 1
 158.629882812 -50.1298828125 180.080078125 -63 207.25 -63 c 0
 253.009765625 -63 287.330078125 -27.25 287.330078125 18.509765625 c 0
 287.330078125 24.2294921875 287.330078125 27.08984375 284.469726562 32.8095703125 c 1
 447.489257812 32.8095703125 l 1
 444.629882812 27.08984375 447.489257812 24.2294921875 447.489257812 18.509765625 c 0
 447.489257812 -27.25 483.239257812 -63 529 -63 c 0
 574.759765625 -63 609.080078125 -27.25 609.080078125 18.509765625 c 0
 609.080078125 24.2294921875 609.080078125 27.08984375 606.219726562 32.8095703125 c 1
 624.809570312 32.8095703125 l 2xc3f8
 631.959960938 32.8095703125 640.540039062 42.8193359375 640.540039062 49.9697265625 c 2x93f8
 640.540039062 135.76953125 l 2
 640.540039062 154.359375 634.819335938 168.659179688 621.950195312 181.529296875 c 2
 560.459960938 240.159179688 l 2
 547.58984375 253.029296875 534.686523438 258.75 516.129882812 258.75 c 2
 464.649414062 258.75 l 2
 446.059570312 258.75 433.189453125 243.138671875 433.189453125 225.859375 c 0
 433.189453125 214.419921875 433.189453125 91.439453125 433.189453125 91.439453125 c 1xcbf8
75.689453125 -11.5205078125 m 0
 57.099609375 -11.5205078125 47.08984375 -0.080078125 47.08984375 18.509765625 c 0
 47.08984375 37.099609375 57.099609375 49.9697265625 75.689453125 49.9697265625 c 0
 94.279296875 49.9697265625 108.580078125 37.099609375 108.580078125 18.509765625 c 0
 108.580078125 -0.080078125 94.279296875 -11.5205078125 75.689453125 -11.5205078125 c 0
207.25 -11.5205078125 m 0
 188.66015625 -11.5205078125 171.5 -0.080078125 171.5 18.509765625 c 0
 171.5 37.099609375 188.66015625 49.9697265625 207.25 49.9697265625 c 0
 225.83984375 49.9697265625 237.279296875 37.099609375 237.279296875 18.509765625 c 0
 237.279296875 -0.080078125 225.83984375 -11.5205078125 207.25 -11.5205078125 c 0
477.51953125 211.559570312 m 1xabf8
 516.129882812 211.559570312 l 2
 521.849609375 211.559570312 526.139648438 208.69921875 529 205.83984375 c 2
 571.899414062 162.939453125 l 1
 477.51953125 162.939453125 l 1
 477.51953125 211.559570312 l 1xabf8
529 -11.5205078125 m 0
 510.41015625 -11.5205078125 493.25 -0.080078125 493.25 18.509765625 c 0
 493.25 37.099609375 510.41015625 49.9697265625 529 49.9697265625 c 0
 547.58984375 49.9697265625 559.029296875 37.099609375 559.029296875 18.509765625 c 0
 559.029296875 -0.080078125 547.58984375 -11.5205078125 529 -11.5205078125 c 0
235.849609375 315.94921875 m 1
 348.819335938 324.529296875 l 1
 401.729492188 314.51953125 l 1
 411.739257812 275.909179688 l 1
 401.729492188 205.83984375 l 1
 403.16015625 117.1796875 l 1
 301.629882812 115.75 l 1
 348.819335938 274.71484375 l 1
 72.830078125 277.33984375 l 1
 58.529296875 315.94921875 l 1
 235.849609375 315.94921875 l 1
EndSplineSet
Validated: 524329
EndChar

StartChar: G
Encoding: 71 71 20
Width: 640
GlyphClass: 2
Flags: W
HStem: -52.9102 28.5996<115.917 162.743 248.907 295.733> 0 51.4795<381 596.931> 38.1514 29.0586<115.917 162.743 248.907 295.733> 261.689 28.6006<183.66 255.16>
VStem: 79.2705 28.8291<-16.3778 30.4482> 170.562 28.8291<-16.3778 30.4482> 212.26 28.8291<-16.3778 30.4482> 303.551 28.8291<-16.3778 30.4482> 345.25 35.75<-21.4502 0 51.4795 304.59>
LayerCount: 2
Fore
SplineSet
108.099609375 6.9208984375 m 4xbf80
 108.099609375 -10.181640625 122.227539062 -24.310546875 139.330078125 -24.310546875 c 4
 156.432617188 -24.310546875 170.561523438 -10.181640625 170.561523438 6.9208984375 c 4
 170.561523438 24.0234375 156.432617188 38.1513671875 139.330078125 38.1513671875 c 4
 122.227539062 38.1513671875 108.099609375 24.0234375 108.099609375 6.9208984375 c 4xbf80
79.2705078125 7.1494140625 m 4
 79.2705078125 40.0400390625 106.440429688 67.2099609375 139.330078125 67.2099609375 c 4
 172.220703125 67.2099609375 199.390625 40.0400390625 199.390625 7.1494140625 c 4
 199.390625 -25.740234375 172.220703125 -52.91015625 139.330078125 -52.91015625 c 4
 106.440429688 -52.91015625 79.2705078125 -25.740234375 79.2705078125 7.1494140625 c 4
241.088867188 6.9208984375 m 4
 241.088867188 -10.181640625 255.217773438 -24.310546875 272.3203125 -24.310546875 c 4
 289.422851562 -24.310546875 303.55078125 -10.181640625 303.55078125 6.9208984375 c 4
 303.55078125 24.0234375 289.422851562 38.1513671875 272.3203125 38.1513671875 c 4
 255.217773438 38.1513671875 241.088867188 24.0234375 241.088867188 6.9208984375 c 4
212.259765625 7.1494140625 m 4
 212.259765625 40.0400390625 239.430664062 67.2099609375 272.3203125 67.2099609375 c 4
 305.209960938 67.2099609375 332.379882812 40.0400390625 332.379882812 7.1494140625 c 4
 332.379882812 -25.740234375 305.209960938 -52.91015625 272.3203125 -52.91015625 c 4
 239.430664062 -52.91015625 212.259765625 -25.740234375 212.259765625 7.1494140625 c 4
135.040039062 92.9501953125 m 4
 176.509765625 92.9501953125 206.540039062 71.5 206.540039062 51.4794921875 c 4xdf80
 206.540039062 31.4599609375 200.911132812 92.3017578125 273.75 88.66015625 c 4
 302.350585938 87.2294921875 322.370117188 75.7900390625 333.810546875 54.33984375 c 4
 344.764648438 33.80078125 313.790039062 290.290039062 258.020507812 290.290039062 c 4
 202.25 290.290039062 106.440429688 291.719726562 106.440429688 291.719726562 c 29
 82.1298828125 60.0595703125 l 5
 82.1298828125 60.0595703125 93.5703125 92.9501953125 135.040039062 92.9501953125 c 4
183.66015625 261.689453125 m 5
 255.16015625 261.689453125 l 5
 255.16015625 261.689453125 272.3203125 241.669921875 275.180664062 205.919921875 c 4
 183.66015625 205.919921875 l 29
 183.66015625 261.689453125 l 5
345.25 304.58984375 m 5
 381 304.58984375 l 5
 381 51.4794921875 l 5
 596.930664062 51.4794921875 l 5
 626.959960938 0 l 5
 381 0 l 5
 381 -21.4501953125 l 5
 345.25 -21.4501953125 l 5
 345.25 304.58984375 l 5
EndSplineSet
Validated: 41
EndChar

StartChar: H
Encoding: 72 72 21
Width: 640
VWidth: 525
GlyphClass: 2
Flags: W
HStem: -61 51.4805<53.9655 102.95 180.229 232.978 434.684 487.518> 34.8105 58.6299<285.68 367.189> 51.9697 112.971<435.786 486.82> 51.9697 41.4707<53.9279 102.417 179.501 230.535> 104.88 103.533<101.327 159.946> 104.88 74.3604<178.43 214.18> 206.683 58.3574<631.024 660.769> 213.561 47.1895<411.52 468.207> 226.43 77.2207<105.321 160.018> 275.05 74.3604<46.2498 78.8203 190.423 690.37> 324.527 24.8828<101.725 169.534>
VStem: 1.10938 47.1904<-4.53861 46.5045> 46.8701 31.9502<278.482 295.757> 66.8896 11.2324<242.83 258.463> 94.0596 77.2197<237.691 292.389> 109.79 62.9199<-1.47607 44.7074> 238.489 50.0508<-4.07397 34.6115> 367.189 44.3301<164.94 213.561> 381.489 45.7607<-0.108796 34.5445> 493.029 50.0508<-4.07397 34.6115> 598.421 9.29492<137.528 150.669> 632.026 29.7432<191.266 200.075>
LayerCount: 2
Fore
SplineSet
94.0595703125 265.040039062 m 4x82029c
 94.0595703125 286.490234375 111.219726562 303.650390625 132.669921875 303.650390625 c 4x80829c
 154.120117188 303.650390625 171.279296875 286.490234375 171.279296875 265.040039062 c 4x82029c
 171.279296875 243.58984375 154.120117188 226.4296875 132.669921875 226.4296875 c 4x80829c
 111.219726562 226.4296875 94.0595703125 243.58984375 94.0595703125 265.040039062 c 4x82029c
463 -9.51953125 m 4
 481.58984375 -9.51953125 493.029296875 1.919921875 493.029296875 20.509765625 c 4
 493.029296875 39.099609375 481.58984375 51.9697265625 463 51.9697265625 c 4
 444.41015625 51.9697265625 427.25 39.099609375 427.25 20.509765625 c 4xa000bc
 427.25 1.919921875 444.41015625 -9.51953125 463 -9.51953125 c 4
411.51953125 213.560546875 m 5xa100dc
 411.51953125 164.940429688 l 5
 505.899414062 164.940429688 l 5
 463 207.83984375 l 6
 460.139648438 210.700195312 455.849609375 213.560546875 450.129882812 213.560546875 c 6
 411.51953125 213.560546875 l 5xa100dc
208.459960938 -9.51953125 m 4
 227.049804688 -9.51953125 238.489257812 1.919921875 238.489257812 20.509765625 c 4
 238.489257812 39.099609375 222.759765625 51.9697265625 204.169921875 51.9697265625 c 4
 185.580078125 51.9697265625 172.709960938 39.099609375 172.709960938 20.509765625 c 4x90019c
 172.709960938 1.919921875 189.870117188 -9.51953125 208.459960938 -9.51953125 c 4
76.8994140625 -9.51953125 m 4
 95.4892578125 -9.51953125 109.790039062 1.919921875 109.790039062 20.509765625 c 4
 109.790039062 39.099609375 95.4892578125 51.9697265625 76.8994140625 51.9697265625 c 4
 58.3095703125 51.9697265625 48.2998046875 39.099609375 48.2998046875 20.509765625 c 4x90119c
 48.2998046875 1.919921875 58.3095703125 -9.51953125 76.8994140625 -9.51953125 c 4
367.189453125 93.4404296875 m 5xc010dc
 367.189453125 93.4404296875 367.189453125 216.419921875 367.189453125 227.860351562 c 4
 367.189453125 245.138671875 380.059570312 260.75 398.649414062 260.75 c 6
 450.129882812 260.75 l 6
 468.686523438 260.75 481.58984375 255.030273438 494.459960938 242.16015625 c 6
 555.94921875 183.530273438 l 6
 568.819335938 170.66015625 574.540039062 156.360351562 574.540039062 137.770507812 c 6
 574.540039062 51.9697265625 l 6x9110dc
 574.540039062 44.8203125 565.959960938 34.810546875 558.809570312 34.810546875 c 6
 540.219726562 34.810546875 l 5
 543.080078125 29.08984375 543.080078125 26.23046875 543.080078125 20.509765625 c 4
 543.080078125 -25.25 508.759765625 -61 463 -61 c 4
 417.239257812 -61 381.489257812 -25.25 381.489257812 20.509765625 c 4
 381.489257812 26.23046875 378.629882812 29.08984375 381.489257812 34.810546875 c 5
 285.6796875 34.810546875 l 5xc000bc
 288.540039062 29.08984375 288.540039062 26.23046875 288.540039062 20.509765625 c 4
 288.540039062 -25.25 254.219726562 -61 208.459960938 -61 c 4
 181.290039062 -61 159.83984375 -48.1298828125 144.109375 -28.1103515625 c 5
 128.379882812 -48.1298828125 104.069335938 -61 76.8994140625 -61 c 4
 31.1396484375 -61 1.109375 -17.3916015625 1.109375 20.509765625 c 6
 1.109375 59.1201171875 l 6
 1.109375 69.1298828125 12.3935546875 93.73046875 38.2900390625 93.4404296875 c 4x9010bc
 165.559570312 93.7392578125 351.459960938 93.4404296875 367.189453125 93.4404296875 c 5xc010dc
631.024414062 265.040039062 m 5x82009c
 660.768554688 265.040039062 l 5
 672.78125 229.803710938 l 5
 663.772460938 206.682617188 l 5
 629.022460938 206.682617188 l 5
 622.015625 229.803710938 l 5
 631.024414062 265.040039062 l 5x82009c
632.026367188 200.075195312 m 5
 661.76953125 200.075195312 l 5
 662.770507812 191.265625 l 5
 662.770507812 191.265625 688.711914062 187.470703125 695.803710938 152.727539062 c 4
 701.380859375 125.400390625 675.783203125 99.875 649.756835938 99.875 c 4
 623.732421875 99.875 601.423828125 110.083007812 598.420898438 135.41015625 c 4
 595.033203125 163.986328125 606.71484375 149.310546875 607.715820312 144.90625 c 4
 608.716796875 140.5 619.19921875 123.106445312 648.470703125 125.400390625 c 4
 660.33984375 126.330078125 665.630859375 138.26953125 665.630859375 149.709960938 c 4
 665.630859375 165.255859375 643.037109375 172.661132812 633.02734375 167.15625 c 4
 623.017578125 161.651367188 632.026367188 189.064453125 632.026367188 200.075195312 c 5
34 349.41015625 m 5x80289c
 690.370117188 349.41015625 l 5
 690.370117188 275.049804688 l 5x80489c
 192.440429688 278.482421875 l 5
 186.8984375 304.762695312 163.544921875 324.52734375 135.629882812 324.52734375 c 4x80289c
 107.71484375 324.52734375 84.361328125 304.762695312 78.8203125 278.482421875 c 5
 46.8701171875 275.049804688 l 5x80489c
 34 349.41015625 l 5x80289c
61.169921875 104.879882812 m 5x84049c
 54.01953125 196.400390625 l 5
 66.8896484375 260.75 l 5
 78.1220703125 258.462890625 l 5
 82.029296875 230.209960938 106.313476562 208.413085938 135.629882812 208.413085938 c 4x89049c
 144.446289062 208.413085938 152.80859375 210.384765625 160.297851562 213.91015625 c 5
 178.4296875 179.240234375 l 5
 214.1796875 179.240234375 l 5
 214.1796875 104.879882812 l 5
 61.169921875 104.879882812 l 5x84049c
EndSplineSet
Validated: 33
EndChar

StartChar: I
Encoding: 73 73 22
Width: 640
VWidth: 525
GlyphClass: 2
Flags: W
HStem: -63 51.4795<50.7563 99.7405 177.019 229.768 498.684 551.518> 32.8096 58.6299<282.471 431.19> 49.9697 112.97<499.786 550.82> 49.9697 41.4697<50.7183 99.2071 178.036 229.07> 211.56 47.1904<514.13 532.207>
VStem: -2.09961 47.1895<-6.53926 44.5045> 106.58 62.9199<-3.47656 41.2109> 235.28 50.0498<-6.07428 32.611> 445.49 45.7598<-2.1088 32.5435> 557.03 50.0498<-6.07428 32.611>
LayerCount: 2
Fore
SplineSet
158.060546875 105.739257812 m 5x8fc0
 56.5302734375 165.799804688 l 5
 33.650390625 104.309570312 l 5
 158.060546875 105.739257812 l 5x8fc0
-4.3701171875 313.278320312 m 4
 3.908203125 336.021484375 48.99609375 363.734375 48.99609375 363.734375 c 5
 48.99609375 363.734375 163.744140625 381.440429688 233.392578125 356.08984375 c 4
 305.8125 329.731445312 382.200195312 238.125976562 382.200195312 238.125976562 c 5
 382.200195312 238.125976562 395.700195312 191.598632812 388.0078125 170.463867188 c 4
 379.358398438 146.698242188 331.08984375 118.609375 331.08984375 118.609375 c 5
 331.08984375 118.609375 218.133789062 102.942382812 150.247070312 127.65234375 c 4
 76.8603515625 154.362304688 0.5888671875 247.4609375 0.5888671875 247.4609375 c 5
 0.5888671875 247.4609375 -11.8583984375 292.704101562 -4.3701171875 313.278320312 c 4
431.190429688 91.439453125 m 5xcfc0
 415.459960938 91.439453125 162.350585938 91.73828125 35.080078125 91.439453125 c 4x9fc0
 9.18359375 91.73046875 -2.099609375 67.1298828125 -2.099609375 57.1201171875 c 6
 -2.099609375 18.509765625 l 6
 -2.099609375 -19.392578125 27.9306640625 -63 73.6904296875 -63 c 4
 100.860351562 -63 125.169921875 -50.1298828125 140.900390625 -30.1103515625 c 5
 156.629882812 -50.1298828125 178.080078125 -63 205.25 -63 c 4
 251.010742188 -63 285.330078125 -27.25 285.330078125 18.509765625 c 4
 285.330078125 24.2294921875 285.330078125 27.08984375 282.470703125 32.8095703125 c 5
 445.490234375 32.8095703125 l 5
 442.629882812 27.08984375 445.490234375 24.2294921875 445.490234375 18.509765625 c 4
 445.490234375 -27.25 481.240234375 -63 527 -63 c 4
 572.760742188 -63 607.080078125 -27.25 607.080078125 18.509765625 c 4
 607.080078125 24.2294921875 607.080078125 27.08984375 604.220703125 32.8095703125 c 5
 622.810546875 32.8095703125 l 6xcfc0
 629.959960938 32.8095703125 638.540039062 42.8193359375 638.540039062 49.9697265625 c 6x9fc0
 638.540039062 135.76953125 l 6
 638.540039062 154.359375 632.8203125 168.66015625 619.950195312 181.529296875 c 6
 558.459960938 240.16015625 l 6
 545.58984375 253.029296875 532.6875 258.75 514.129882812 258.75 c 6
 462.650390625 258.75 l 6
 444.060546875 258.75 431.190429688 243.138671875 431.190429688 225.859375 c 4
 431.190429688 214.419921875 431.190429688 91.439453125 431.190429688 91.439453125 c 5xcfc0
73.6904296875 -11.5205078125 m 4
 55.1005859375 -11.5205078125 45.08984375 -0.080078125 45.08984375 18.509765625 c 4
 45.08984375 37.099609375 55.1005859375 49.9697265625 73.6904296875 49.9697265625 c 4
 92.2802734375 49.9697265625 106.580078125 37.099609375 106.580078125 18.509765625 c 4
 106.580078125 -0.080078125 92.2802734375 -11.5205078125 73.6904296875 -11.5205078125 c 4
205.25 -11.5205078125 m 4
 186.66015625 -11.5205078125 169.5 -0.080078125 169.5 18.509765625 c 4
 169.5 37.099609375 186.66015625 49.9697265625 205.25 49.9697265625 c 4
 223.83984375 49.9697265625 235.280273438 37.099609375 235.280273438 18.509765625 c 4
 235.280273438 -0.080078125 223.83984375 -11.5205078125 205.25 -11.5205078125 c 4
475.520507812 211.559570312 m 5
 514.129882812 211.559570312 l 6
 519.850585938 211.559570312 524.140625 208.700195312 527 205.83984375 c 6
 569.900390625 162.939453125 l 5
 475.520507812 162.939453125 l 5xafc0
 475.520507812 211.559570312 l 5
527 -11.5205078125 m 4
 508.41015625 -11.5205078125 491.25 -0.080078125 491.25 18.509765625 c 4
 491.25 37.099609375 508.41015625 49.9697265625 527 49.9697265625 c 4
 545.58984375 49.9697265625 557.030273438 37.099609375 557.030273438 18.509765625 c 4
 557.030273438 -0.080078125 545.58984375 -11.5205078125 527 -11.5205078125 c 4
EndSplineSet
Validated: 41
EndChar

StartChar: J
Encoding: 74 74 23
Width: 640
VWidth: 525
GlyphClass: 2
Flags: W
HStem: -61.7705 51.4805<53.0219 100.77 178.479 231.227 500.144 552.978> 34.04 60.0605<283.93 423.645> 51.1992 41.4707<52.1783 100.667 179.495 230.529> 116.979 137.28<-2.07031 146.649> 212.791 47.1904<476.979 533.667>
VStem: -63.5605 40.04<-58.9102 500.22> -2.07031 148.72<116.979 254.26> -0.638672 47.1885<-5.30848 45.7342> 108.04 62.918<-2.24609 42.4408> 236.739 50.0488<-4.84405 33.8399> 432.598 44.3818<164.17 191.866 191.883 212.791> 446.948 45.7617<-1.56319 33.841> 558.489 50.0518<-4.84448 33.842>
LayerCount: 2
Fore
SplineSet
-2.0703125 254.259765625 m 1x9648
 146.649414062 254.259765625 l 1
 146.649414062 116.979492188 l 1
 -2.0703125 116.979492188 l 1
 -2.0703125 254.259765625 l 1x9648
-63.560546875 500.219726562 m 1
 -23.5205078125 500.219726562 l 1
 -23.5205078125 -58.91015625 l 1
 -63.560546875 -58.91015625 l 1
 -63.560546875 500.219726562 l 1
-0.640625 58.349609375 m 2
 -0.640625 68.361328125 9.212890625 92.9599609375 35.109375 92.669921875 c 0xa558
 162.379882812 92.96875 391.120117188 91.8984375 404.049804688 94.1005859375 c 0xc558
 423.223632812 97.3642578125 432.649414062 114.118164062 432.651367188 132.708007812 c 2
 432.59765625 191.866210938 l 1
 432.59765625 191.866210938 432.649414062 215.649414062 432.651367188 227.08984375 c 0
 432.649414062 244.368164062 445.51953125 259.979492188 464.109375 259.981445312 c 2
 515.58984375 259.979492188 l 2
 534.147460938 259.981445312 547.047851562 254.2578125 559.919921875 241.390625 c 2
 621.41015625 182.759765625 l 2
 634.279296875 169.889648438 639.998046875 155.58984375 640 137 c 2
 640 51.19921875 l 2xad68
 640.000976562 44.0498046875 631.420898438 34.0400390625 624.266601562 34.0380859375 c 2
 605.6796875 34.0419921875 l 1
 608.540039062 28.3193359375 608.540039062 25.4609375 608.541015625 19.7392578125 c 0
 608.538085938 -26.0205078125 574.219726562 -61.7705078125 528.459960938 -61.7705078125 c 0
 482.701171875 -61.7705078125 446.950195312 -26.0205078125 446.948242188 19.7392578125 c 0
 446.950195312 25.4599609375 444.08984375 28.3193359375 446.950195312 34.0400390625 c 1
 283.9296875 34.0400390625 l 1
 286.826171875 28.2470703125 286.788085938 25.4599609375 286.788085938 19.7392578125 c 0
 286.788085938 -26.0185546875 252.469726562 -61.7705078125 206.708007812 -61.7705078125 c 0
 179.540039062 -61.7705078125 158.08984375 -48.8994140625 142.359375 -28.880859375 c 1
 126.629882812 -48.900390625 102.319335938 -61.771484375 75.1513671875 -61.7705078125 c 0
 29.388671875 -61.7705078125 -0.640625 -18.162109375 -0.638671875 19.7392578125 c 2xc558
 -0.640625 58.349609375 l 2
75.1513671875 -10.2890625 m 0
 93.7412109375 -10.2890625 108.041015625 1.1494140625 108.040039062 19.7392578125 c 0xa5c8
 108.041015625 38.330078125 93.7392578125 51.19921875 75.1494140625 51.19921875 c 0
 56.5595703125 51.19921875 46.55078125 38.330078125 46.5498046875 19.7392578125 c 0
 46.5498046875 1.1494140625 56.5615234375 -10.2890625 75.1513671875 -10.2890625 c 0
206.709960938 -10.2900390625 m 0
 225.30078125 -10.2900390625 236.739257812 1.1494140625 236.739257812 19.7412109375 c 0
 236.73828125 38.330078125 225.299804688 51.19921875 206.709960938 51.19921875 c 0
 188.120117188 51.19921875 170.958007812 38.330078125 170.958007812 19.7392578125 c 0
 170.959960938 1.1494140625 188.120117188 -10.2900390625 206.709960938 -10.2900390625 c 0
476.979492188 212.791015625 m 1x8c68
 476.979492188 164.169921875 l 1
 571.359375 164.16796875 l 1
 528.459960938 207.069335938 l 2
 525.596679688 209.9296875 521.309570312 212.790039062 515.58984375 212.790039062 c 2
 476.979492188 212.791015625 l 1x8c68
528.459960938 -10.2900390625 m 0
 547.05078125 -10.2900390625 558.489257812 1.1494140625 558.489257812 19.7392578125 c 0
 558.489257812 38.330078125 547.049804688 51.1982421875 528.4609375 51.1982421875 c 0
 509.870117188 51.19921875 492.709960938 38.330078125 492.709960938 19.73828125 c 0x8458
 492.709960938 1.1484375 509.870117188 -10.2900390625 528.459960938 -10.2900390625 c 0
EndSplineSet
Validated: 33
EndChar

StartChar: K
Encoding: 75 75 24
Width: 512
GlyphClass: 2
HStem: 131.119 11.5205<234.328 329.12> 178.64 102.239<203.841 293.121>
VStem: -0.638672 51.8389<184.641 227.297> 167.841 161.28<221.84 328.399> 474.562 37.4385<199.734 227.184>
LayerCount: 2
Fore
SplineSet
202.250976562 286.885742188 m 0
 206.169921875 275.739257812 265.348632812 264.88671875 292 286 c 0
 303.783203125 295.334960938 277.664006867 347.351559319 246.711914062 345.58203125 c 0
 215.759765625 343.8125 199.231445312 295.474609375 202.250976562 286.885742188 c 0
434.240234375 217.51953125 m 0
 434.240234375 206 442.880859375 197.359375 454.400390625 197.359375 c 0
 465.920898438 197.359375 474.561523438 206 474.561523438 217.51953125 c 0
 474.561523438 229.040039062 465.920898438 237.678710938 454.400390625 237.678710938 c 0
 442.880859375 237.678710938 434.240234375 229.040039062 434.240234375 217.51953125 c 0
226.880859375 162.799804688 m 0
 226.880859375 151.279296875 235.520507812 142.639648438 247.040039062 142.639648438 c 0
 258.561523438 142.639648438 267.200195312 151.279296875 267.200195312 162.799804688 c 0
 267.200195312 174.319335938 258.561523438 182.958984375 247.040039062 182.958984375 c 0
 235.520507812 182.958984375 226.880859375 174.319335938 226.880859375 162.799804688 c 0
342.081054688 178.639648438 m 0
 342.081054688 167.119140625 350.720703125 158.478515625 362.240234375 158.478515625 c 0
 373.760742188 158.478515625 382.400390625 167.119140625 382.400390625 178.639648438 c 0
 382.400390625 190.159179688 373.760742188 198.799804688 362.240234375 198.799804688 c 0
 350.720703125 198.799804688 342.081054688 190.159179688 342.081054688 178.639648438 c 0
126.081054688 185.83984375 m 0
 126.081054688 174.319335938 134.720703125 165.678710938 146.240234375 165.678710938 c 0
 157.760742188 165.678710938 166.400390625 174.319335938 166.400390625 185.83984375 c 0
 166.400390625 197.359375 157.760742188 206 146.240234375 206 c 0
 134.720703125 206 126.081054688 197.359375 126.081054688 185.83984375 c 0
51.2001953125 223.279296875 m 0
 51.2001953125 211.759765625 59.8408203125 203.119140625 71.361328125 203.119140625 c 0
 82.880859375 203.119140625 91.5205078125 211.759765625 91.5205078125 223.279296875 c 0
 91.5205078125 234.799804688 82.880859375 243.439453125 71.361328125 243.439453125 c 0
 59.8408203125 243.439453125 51.2001953125 234.799804688 51.2001953125 223.279296875 c 0
167.840820312 275.119140625 m 0
 167.840820312 328.399414062 203.840820312 371.599609375 248.48046875 371.599609375 c 0
 293.12109375 371.599609375 329.12109375 328.399414062 329.12109375 275.119140625 c 0
 329.12109375 221.83984375 293.12109375 178.639648438 248.48046875 178.639648438 c 0
 203.840820312 178.639648438 167.840820312 221.83984375 167.840820312 275.119140625 c 0
-0.638671875 206 m 0
 -0.638671875 247.759765625 114.561523438 280.87890625 255.680664062 280.87890625 c 0
 396.799804688 280.87890625 512 247.759765625 512 206 c 0
 512 164.240234375 396.799804688 131.119140625 255.680664062 131.119140625 c 0
 114.561523438 131.119140625 -0.638671875 164.240234375 -0.638671875 206 c 0
EndSplineSet
Validated: 37
EndChar

StartChar: L
Encoding: 76 76 25
Width: 512
GlyphClass: 2
HStem: 73 123<32 262>
LayerCount: 2
Fore
SplineSet
32 196 m 5
 262 196 l 5
 262 73 l 5
 32 73 l 5
 32 196 l 5
EndSplineSet
Validated: 1
EndChar

StartChar: exclam
Encoding: 33 33 26
Width: 512
Flags: W
HStem: 224 48<6.03733 38.0801 473.93 505.963> 320 64<163.219 348.785>
VStem: 16 48<134.993 184.838> 32 96<7.80436 64> 384 96<7.80436 64> 448 48<134.993 184.838>
LayerCount: 2
Fore
SplineSet
499.990234375 272 m 2xe0
 507.799804688 272 513.530273438 264.66015625 511.639648438 257.08984375 c 2
 505.639648438 233.08984375 l 2
 504.309570312 227.75 499.509765625 224 494 224 c 2
 473.9296875 224 l 1
 487.349609375 212.26953125 496 195.219726562 496 176 c 2
 496 128 l 2xe4
 496 111.870117188 489.83984375 97.3203125 480 86.0703125 c 1
 480 32 l 2xc8
 480 14.330078125 465.669921875 0 448 0 c 2xc4
 416 0 l 2
 398.330078125 0 384 14.330078125 384 32 c 2
 384 64 l 1
 128 64 l 1
 128 32 l 2xd8
 128 14.330078125 113.669921875 0 96 0 c 2
 64 0 l 2xe0
 46.330078125 0 32 14.330078125 32 32 c 2
 32 86.0703125 l 1xd0
 22.16015625 97.330078125 16 111.879882812 16 128 c 2
 16 176 l 2
 16 195.219726562 24.650390625 212.26953125 38.080078125 224 c 1
 18.009765625 224 l 2
 12.5 224 7.7001953125 227.75 6.3701171875 233.08984375 c 2
 0.3701171875 257.08984375 l 2
 -1.5302734375 264.66015625 4.2001953125 272 12.009765625 272 c 2
 71.8701171875 272 l 1
 88.509765625 313.599609375 l 2
 105.620117188 356.370117188 146.440429688 384 192.5 384 c 2
 319.5 384 l 2
 365.5703125 384 406.379882812 356.370117188 423.48046875 313.599609375 c 2
 440.120117188 272 l 1
 499.990234375 272 l 2xe0
147.9296875 289.830078125 m 2
 128 240 l 1
 384 240 l 1xd8
 364.0703125 289.830078125 l 2
 356.780273438 308.049804688 339.129882812 320 319.5 320 c 2
 192.5 320 l 2
 172.870117188 320 155.219726562 308.049804688 147.9296875 289.830078125 c 2
96 128.200195312 m 0
 115.200195312 128.200195312 144 125.009765625 144 144.150390625 c 0
 144 163.290039062 115.200195312 192 96 192 c 0
 76.7998046875 192 64 179.240234375 64 160.099609375 c 0xe0
 64 140.959960938 76.7998046875 128.200195312 96 128.200195312 c 0
416 128.200195312 m 0
 435.200195312 128.200195312 448 140.959960938 448 160.099609375 c 0xc4
 448 179.240234375 435.200195312 192 416 192 c 0
 396.799804688 192 368 163.290039062 368 144.150390625 c 0
 368 125.009765625 396.799804688 128.200195312 416 128.200195312 c 0
EndSplineSet
Validated: 33
EndChar

StartChar: quotedbl
Encoding: 34 34 27
Width: 512
Flags: W
HStem: -32 128<71.8044 120.196 391.804 440.196> 32 176<128 384> 288 128<167.804 344.196> 288 64<135.787 160 352 376.213>
VStem: 0 64<103.804 151.055> 32 96<-24.1956 32> 384 96<-24.1956 32> 448 64<103.804 151.055>
LayerCount: 2
Fore
SplineSet
462 206.360351562 m 1x18
 490.58984375 199.959960938 512 174.530273438 512 144 c 2
 512 96 l 2x99
 512 72.3798828125 499.049804688 51.9697265625 480 40.8798828125 c 1
 480 0 l 2x92
 480 -17.669921875 465.669921875 -32 448 -32 c 2
 416 -32 l 2x91
 398.330078125 -32 384 -17.669921875 384 0 c 2
 384 32 l 1
 128 32 l 1
 128 0 l 2x46
 128 -17.669921875 113.669921875 -32 96 -32 c 2
 64 -32 l 2x88
 46.330078125 -32 32 -17.669921875 32 0 c 2
 32 40.8798828125 l 1x84
 12.9501953125 51.9599609375 0 72.3701171875 0 96 c 2
 0 144 l 2
 0 174.530273438 21.41015625 199.959960938 50 206.360351562 c 1
 72 291.200195312 l 2
 81.599609375 326.400390625 113.599609375 352 148.799804688 352 c 2
 160 352 l 1x98
 160 384 l 2
 160 401.669921875 174.330078125 416 192 416 c 2
 320 416 l 2x28
 337.669921875 416 352 401.669921875 352 384 c 2
 352 352 l 1
 363.200195312 352 l 2
 398.400390625 352 430.400390625 326.400390625 440 291.200195312 c 2
 462 206.360351562 l 1x18
96 96 m 0
 113.669921875 96 128 110.330078125 128 128 c 0x84
 128 145.669921875 113.669921875 160 96 160 c 0
 78.330078125 160 64 145.669921875 64 128 c 0
 64 110.330078125 78.330078125 96 96 96 c 0
116.549804688 208 m 1x50
 395.450195312 208 l 1
 378.059570312 275.139648438 l 2
 376.040039062 282.51953125 368.6796875 288 363.209960938 288 c 2
 148.809570312 288 l 2
 143.33984375 288 135.98046875 282.51953125 133.75 274.360351562 c 2
 116.549804688 208 l 1x50
416 96 m 0x82
 433.669921875 96 448 110.330078125 448 128 c 0x81
 448 145.669921875 433.669921875 160 416 160 c 0
 398.330078125 160 384 145.669921875 384 128 c 0
 384 110.330078125 398.330078125 96 416 96 c 0x82
EndSplineSet
Validated: 1
EndChar

StartChar: numbersign
Encoding: 35 35 28
Width: 640
Flags: W
HStem: -32 128<284.216 355.784>
VStem: 256 128<-3.7845 67.7845>
LayerCount: 2
Fore
SplineSet
634.91015625 293.120117188 m 0
 641.5703125 286.959960938 641.700195312 276.530273438 635.26953125 270.139648438 c 2
 601.030273438 236.169921875 l 2
 594.889648438 230.080078125 585.009765625 229.940429688 578.629882812 235.790039062 c 0
 432.6796875 369.5 207.299804688 369.469726562 61.3798828125 235.790039062 c 0
 55 229.940429688 45.1201171875 230.0703125 38.98046875 236.169921875 c 2
 4.740234375 270.139648438 l 2
 -1.7001953125 276.530273438 -1.5703125 286.959960938 5.08984375 293.120117188 c 0
 182.190429688 456.9296875 457.740234375 456.990234375 634.91015625 293.120117188 c 0
320 96 m 0
 355.349609375 96 384 67.349609375 384 32 c 0
 384 -3.349609375 355.349609375 -32 320 -32 c 0
 284.650390625 -32 256 -3.349609375 256 32 c 0
 256 67.349609375 284.650390625 96 320 96 c 0
522.669921875 179.58984375 m 0
 529.559570312 173.5 529.790039062 162.900390625 523.23046875 156.440429688 c 2
 488.790039062 122.450195312 l 2
 482.790039062 116.51953125 473.129882812 116.129882812 466.740234375 121.650390625 c 0
 382.990234375 194.059570312 257.200195312 194.219726562 173.25 121.650390625 c 0
 166.860351562 116.129882812 157.200195312 116.530273438 151.200195312 122.450195312 c 2
 116.759765625 156.440429688 l 2
 110.209960938 162.900390625 110.4296875 173.490234375 117.330078125 179.58984375 c 0
 232.459960938 281.41015625 407.41015625 281.51953125 522.669921875 179.58984375 c 0
EndSplineSet
Validated: 33
EndChar

StartChar: dollar
Encoding: 36 36 29
Width: 512
Flags: W
HStem: -64 112<88.0038 135.996 376.004 423.996> 0 160<160 352> 112 48<104.004 136.196 375.804 407.996> 352 96<144.019 367.981>
VStem: 0 96<195.782 316.22> 32 64<167.804 192 320 344.196> 32 48<55.8044 104.196> 64 96<-56.1956 0> 352 96<-56.1956 0> 416 96<195.782 316.22> 416 64<167.804 192 320 344.196> 432 48<55.8044 104.196>
LayerCount: 2
Fore
SplineSet
488 320 m 2x5020
 501.25 320 512 309.259765625 512 296 c 2
 512 216 l 2x5040
 512 202.75 501.25 192 488 192 c 2
 480 192 l 1x5020
 480 25.599609375 l 2x5010
 480 12.7998046875 470.400390625 0 454.400390625 0 c 2
 448 0 l 1
 448 -32 l 2x5080
 448 -49.669921875 433.669921875 -64 416 -64 c 2
 384 -64 l 2x9020
 366.330078125 -64 352 -49.669921875 352 -32 c 2
 352 0 l 1
 160 0 l 1
 160 -32 l 2x5180
 160 -49.669921875 145.669921875 -64 128 -64 c 2
 96 -64 l 2x94
 78.330078125 -64 64 -49.669921875 64 -32 c 2
 64 0 l 1x51
 46.330078125 0 32 14.330078125 32 32 c 2x52
 32 192 l 1x54
 24 192 l 2
 10.75 192 0 202.75 0 216 c 2
 0 296 l 2x58
 0 309.259765625 10.75 320 24 320 c 2
 32 320 l 1x54
 32 368 l 2
 32 412.799804688 131.200195312 448 256 448 c 0
 380.799804688 448 480 412.799804688 480 368 c 2x5210
 480 320 l 1
 488 320 l 2x5020
112 48 m 0xb2
 129.669921875 48 144 62.330078125 144 80 c 0
 144 97.669921875 129.669921875 112 112 112 c 0
 94.330078125 112 80 97.669921875 80 80 c 0
 80 62.330078125 94.330078125 48 112 48 c 0xb2
128 160 m 2
 384 160 l 2
 401.669921875 160 416 174.330078125 416 192 c 2
 416 320 l 2
 416 337.669921875 401.669921875 352 384 352 c 2
 128 352 l 2
 110.330078125 352 96 337.669921875 96 320 c 2
 96 192 l 2x3420
 96 174.330078125 110.330078125 160 128 160 c 2
400 48 m 0xb010
 417.669921875 48 432 62.330078125 432 80 c 0
 432 97.669921875 417.669921875 112 400 112 c 0
 382.330078125 112 368 97.669921875 368 80 c 0
 368 62.330078125 382.330078125 48 400 48 c 0xb010
EndSplineSet
Validated: 1
EndChar

StartChar: percent
Encoding: 37 37 30
Width: 640
Flags: W
HStem: -64 48<129.345 190.655 449.345 510.655> 32 64<608 639.278> 80 112<449.472 510.528> 80 80<129.472 190.528> 192 32<0 224> 256 32<32 256> 304 48<416 460.1> 320 128<81.4716 288> 320 32<0 64>
VStem: 64 48<1.47156 62.5284> 208 48<1.47156 32> 384 48<1.47156 32> 528 48<1.47156 32>
LayerCount: 2
Fore
SplineSet
624 96 m 2xc678
 632.799804688 96 640 88.7998046875 640 80 c 2x9478
 640 48 l 2
 640 39.2001953125 632.799804688 32 624 32 c 2
 576 32 l 1
 576 -21 533 -64 480 -64 c 0
 427 -64 384 -21 384 32 c 1
 256 32 l 1
 256 -21 213 -64 160 -64 c 0
 107 -64 64 -21 64 32 c 2xc478
 64 160 l 1
 216 160 l 2
 220.400390625 160 224 163.599609375 224 168 c 2
 224 184 l 2
 224 188.400390625 220.400390625 192 216 192 c 2
 8 192 l 2
 3.599609375 192 0 195.599609375 0 200 c 2
 0 216 l 2
 0 220.400390625 3.599609375 224 8 224 c 2
 248 224 l 2
 252.400390625 224 256 227.599609375 256 232 c 2
 256 248 l 2
 256 252.400390625 252.400390625 256 248 256 c 2
 40 256 l 2
 35.599609375 256 32 259.599609375 32 264 c 2
 32 280 l 2
 32 284.400390625 35.599609375 288 40 288 c 2
 280 288 l 2
 284.400390625 288 288 291.599609375 288 296 c 2
 288 312 l 2
 288 316.400390625 284.400390625 320 280 320 c 2x9d78
 8 320 l 2
 3.599609375 320 0 323.599609375 0 328 c 2
 0 344 l 2
 0 348.400390625 3.599609375 352 8 352 c 2
 64 352 l 1x84f8
 64 400 l 2
 64 426.5 85.5 448 112 448 c 2
 368 448 l 2x8578
 394.5 448 416 426.5 416 400 c 2
 416 352 l 1
 460.099609375 352 l 2
 472.799804688 352 485 346.900390625 494 337.900390625 c 2
 593.900390625 238 l 2
 602.900390625 229 608 216.799804688 608 204.099609375 c 2
 608 96 l 1
 624 96 l 2xc678
160 -16 m 0
 186.5 -16 208 5.5 208 32 c 0xc478
 208 58.5 186.5 80 160 80 c 0x9478
 133.5 80 112 58.5 112 32 c 0xc478
 112 5.5 133.5 -16 160 -16 c 0
480 -16 m 0
 506.5 -16 528 5.5 528 32 c 0xc478
 528 58.5 506.5 80 480 80 c 0xa478
 453.5 80 432 58.5 432 32 c 0
 432 5.5 453.5 -16 480 -16 c 0
560 192 m 1x8e78
 560 204.099609375 l 1
 460.099609375 304 l 1
 416 304 l 1
 416 192 l 1
 560 192 l 1x8e78
EndSplineSet
Validated: 1
EndChar

StartChar: ampersand
Encoding: 38 38 31
Width: 640
Flags: W
HStem: -32 48<56.016 103.864 184.136 231.984 504.016 551.984> 80 112<503.828 552.172> 240 47.9004<480 534.637>
VStem: 0 48<24.204 72.172> 112 64<23.828 72.172> 240 48<24.016 63.8259> 448 48<24.016 63.8259> 560 48<24.016 63.8259>
LayerCount: 2
Fore
SplineSet
621.299804688 210.700195312 m 2
 633.299804688 198.700195312 640 182.5 640 165.5 c 2
 640 80 l 2
 640 71.2001953125 632.799804688 64 624 64 c 2
 606.400390625 64 l 1
 607.400390625 58.7998046875 608 53.5 608 48 c 0
 608 3.7998046875 572.200195312 -32 528 -32 c 0
 483.799804688 -32 448 3.7998046875 448 48 c 0
 448 53.5 448.5 58.7998046875 449.599609375 64 c 1
 286.400390625 64 l 1
 287.400390625 58.7998046875 288 53.5 288 48 c 0
 288 3.7998046875 252.200195312 -32 208 -32 c 0
 181.700195312 -32 158.599609375 -19.2001953125 144 0.400390625 c 1
 129.400390625 -19.099609375 106.299804688 -32 80 -32 c 0
 35.7998046875 -32 0 3.7998046875 0 48 c 2
 0 384 l 2
 0 401.700195312 14.2998046875 416 32 416 c 2
 448 416 l 2
 465.700195312 416 480 401.700195312 480 384 c 2
 480 287.900390625 l 1
 517.5 287.900390625 l 2
 534.5 287.900390625 550.799804688 281.200195312 562.799804688 269.200195312 c 2
 621.299804688 210.700195312 l 2
80 16 m 0
 97.599609375 16 112 30.400390625 112 48 c 0
 112 65.599609375 97.599609375 80 80 80 c 0
 62.400390625 80 48 65.599609375 48 48 c 0
 48 30.400390625 62.400390625 16 80 16 c 0
208 16 m 0
 225.599609375 16 240 30.400390625 240 48 c 0
 240 65.599609375 225.599609375 80 208 80 c 0
 190.400390625 80 176 65.599609375 176 48 c 0
 176 30.400390625 190.400390625 16 208 16 c 0
480 240 m 1
 480 192 l 1
 572.099609375 192 l 1
 528.799804688 235.299804688 l 2
 525.799804688 238.299804688 521.799804688 240 517.5 240 c 2
 480 240 l 1
528 16 m 0
 545.599609375 16 560 30.400390625 560 48 c 0
 560 65.599609375 545.599609375 80 528 80 c 0
 510.400390625 80 496 65.599609375 496 48 c 0
 496 30.400390625 510.400390625 16 528 16 c 0
EndSplineSet
Validated: 1
EndChar

StartChar: quotesingle
Encoding: 39 39 32
Width: 512
Flags: W
HStem: -64 112<88.0038 135.996 376.004 423.996> 0 160<160 240 272 352> 112 48<104.004 136.196 375.804 407.996> 320 32<160 240 272 352> 384 64<163.348 348.652>
VStem: 0 96<195.782 312.139> 32 48<55.8044 104.196> 64 96<-56.1956 0> 240 32<160 320> 352 96<-56.1956 0> 416 96<195.782 312.139> 432 48<55.8044 104.196>
LayerCount: 2
Fore
SplineSet
488 320 m 2x5a90
 501.25 320 512 309.259765625 512 296 c 2
 512 216 l 2x58a0
 512 202.75 501.25 192 488 192 c 2
 480 192 l 1
 480 25.599609375 l 2x5890
 480 12.7998046875 470.400390625 0 454.400390625 0 c 2
 448 0 l 1
 448 -32 l 2x58c0
 448 -49.669921875 433.669921875 -64 416 -64 c 2
 384 -64 l 2x98a0
 366.330078125 -64 352 -49.669921875 352 -32 c 2
 352 0 l 1
 160 0 l 1
 160 -32 l 2x59c0
 160 -49.669921875 145.669921875 -64 128 -64 c 2
 96 -64 l 2x9c80
 78.330078125 -64 64 -49.669921875 64 -32 c 2
 64 0 l 1x5980
 46.330078125 0 32 14.330078125 32 32 c 2
 32 192 l 1x5a80
 24 192 l 2
 10.75 192 0 202.75 0 216 c 2
 0 296 l 2x5c80
 0 309.259765625 10.75 320 24 320 c 2
 32 320 l 1
 32 368 l 2
 32 412.799804688 131.200195312 448 256 448 c 0
 380.799804688 448 480 412.799804688 480 368 c 2
 480 320 l 1
 488 320 l 2x5a90
160 376 m 2x19c0
 160 360 l 2
 160 355.580078125 163.580078125 352 168 352 c 2
 344 352 l 2
 348.419921875 352 352 355.580078125 352 360 c 2
 352 376 l 2
 352 380.419921875 348.419921875 384 344 384 c 2
 168 384 l 2
 163.580078125 384 160 380.419921875 160 376 c 2x19c0
112 48 m 0xba80
 129.669921875 48 144 62.330078125 144 80 c 0
 144 97.669921875 129.669921875 112 112 112 c 0
 94.330078125 112 80 97.669921875 80 80 c 0
 80 62.330078125 94.330078125 48 112 48 c 0xba80
240 160 m 1x5c80
 240 320 l 1
 128 320 l 2
 110.330078125 320 96 305.669921875 96 288 c 2
 96 192 l 2
 96 174.330078125 110.330078125 160 128 160 c 2x3c80
 240 160 l 1x5c80
272 160 m 1x58a0
 384 160 l 2x38a0
 401.669921875 160 416 174.330078125 416 192 c 2
 416 288 l 2
 416 305.669921875 401.669921875 320 384 320 c 2
 272 320 l 1
 272 160 l 1x58a0
400 48 m 0xb890
 417.669921875 48 432 62.330078125 432 80 c 0
 432 97.669921875 417.669921875 112 400 112 c 0
 382.330078125 112 368 97.669921875 368 80 c 0
 368 62.330078125 382.330078125 48 400 48 c 0xb890
EndSplineSet
Validated: 1
EndChar

StartChar: parenleft
Encoding: 40 40 33
Width: 640
Flags: W
HStem: -32 48<129.339 190.661 449.339 510.661> 112 144<129.468 160 449.468 510.532> 352 64<64 160 224 320 384 450.02>
VStem: 0 64<256 352> 64 48<33.4675 64> 160 64<256 352> 208 48<33.4675 64> 320 64<256 352> 384 48<33.4675 64> 528 48<33.4675 64>
LayerCount: 2
Fore
SplineSet
628.879882812 237.349609375 m 2xf040
 636.059570312 228.719726562 640 217.849609375 640 206.620117188 c 2
 640 96 l 2
 640 78.330078125 625.669921875 64 608 64 c 2
 576 64 l 1
 576 10.98046875 533.01953125 -32 480 -32 c 0
 426.98046875 -32 384 10.98046875 384 64 c 1
 256 64 l 1xf2c0
 256 10.98046875 213.01953125 -32 160 -32 c 0
 106.98046875 -32 64 10.98046875 64 64 c 1xec40
 32 64 l 2
 14.330078125 64 0 78.330078125 0 96 c 2
 0 384 l 2
 0 401.669921875 14.330078125 416 32 416 c 2
 457.51953125 416 l 2
 469.927734375 415.998046875 486.4453125 408.260742188 494.389648438 398.73046875 c 2
 628.879882812 237.349609375 l 2xf040
64 256 m 1
 160 256 l 1
 160 352 l 1xf440
 64 352 l 1
 64 256 l 1
160 16 m 0
 186.509765625 16 208 37.490234375 208 64 c 0xe240
 208 90.509765625 186.509765625 112 160 112 c 0
 133.490234375 112 112 90.509765625 112 64 c 0xec40
 112 37.490234375 133.490234375 16 160 16 c 0
320 256 m 1xe540
 320 352 l 1
 224 352 l 1
 224 256 l 1
 320 256 l 1xe540
480 16 m 0
 506.509765625 16 528 37.490234375 528 64 c 0
 528 90.509765625 506.509765625 112 480 112 c 0
 453.490234375 112 432 90.509765625 432 64 c 0xe0c0
 432 37.490234375 453.490234375 16 480 16 c 0
384 256 m 1xe140
 530.01953125 256 l 1
 450.01953125 352 l 1
 384 352 l 1
 384 256 l 1xe140
EndSplineSet
Validated: 1
EndChar

StartChar: parenright
Encoding: 41 41 34
Width: 480
Flags: W
HStem: 320 64<147.219 332.785>
VStem: 0 48<134.993 184.808> 16 96<7.80436 64> 368 96<7.80436 64> 432 48<134.993 184.808>
LayerCount: 2
Fore
SplineSet
438.66015625 235.669921875 m 1xc0
 462.780273438 226.5 480 203.33984375 480 176 c 2
 480 128 l 2xc8
 480 111.870117188 473.83984375 97.3203125 464 86.0703125 c 1
 464 32 l 2x90
 464 14.330078125 449.669921875 0 432 0 c 2x88
 400 0 l 2
 382.330078125 0 368 14.330078125 368 32 c 2
 368 64 l 1
 112 64 l 1
 112 32 l 2xb0
 112 14.330078125 97.669921875 0 80 0 c 2
 48 0 l 2xc0
 30.330078125 0 16 14.330078125 16 32 c 2
 16 86.0703125 l 1xa0
 6.16015625 97.330078125 0 111.879882812 0 128 c 2
 0 176 l 2
 0 203.33984375 17.2197265625 226.5 41.33984375 235.669921875 c 1
 52.580078125 263.76953125 l 1
 72.509765625 313.599609375 l 2
 89.6201171875 356.370117188 130.440429688 384 176.5 384 c 2
 303.5 384 l 2
 349.5703125 384 390.379882812 356.370117188 407.490234375 313.599609375 c 2
 427.419921875 263.76953125 l 1
 438.66015625 235.669921875 l 1xc0
131.9296875 289.830078125 m 2
 112 240 l 1
 368 240 l 1xb0
 348.0703125 289.830078125 l 2
 340.780273438 308.049804688 323.129882812 320 303.5 320 c 2
 176.5 320 l 2
 156.870117188 320 139.219726562 308.049804688 131.9296875 289.830078125 c 2
80 128.200195312 m 0
 99.2001953125 128.200195312 128 125.009765625 128 144.150390625 c 0
 128 163.290039062 99.2001953125 192 80 192 c 0
 60.7998046875 192 48 179.240234375 48 160.099609375 c 0xc0
 48 140.959960938 60.7998046875 128.200195312 80 128.200195312 c 0
400 128.200195312 m 0
 419.200195312 128.200195312 432 140.959960938 432 160.099609375 c 0x88
 432 179.240234375 419.200195312 192 400 192 c 0
 380.799804688 192 352 163.290039062 352 144.150390625 c 0
 352 125.009765625 380.799804688 128.200195312 400 128.200195312 c 0
EndSplineSet
Validated: 33
EndChar

StartChar: asterisk
Encoding: 42 42 35
Width: 640
Flags: W
HStem: -32 48<129.347 190.653 449.347 510.653> 112 144<129.484 190.516> 352 64<155.33 232 280 369.24>
VStem: 64 48<33.4841 64> 208 48<33.4841 64> 232 48<256 352> 384 48<33.4841 64> 528 48<33.4841 64>
LayerCount: 2
Fore
SplineSet
544 256 m 2xfb
 597.01953125 256 640 213.01953125 640 160 c 2
 640 80 l 2
 640 71.16015625 632.83984375 64 624 64 c 2
 576 64 l 1
 576 10.98046875 533.01953125 -32 480 -32 c 0
 426.98046875 -32 384 10.98046875 384 64 c 1
 256 64 l 1
 256 10.98046875 213.01953125 -32 160 -32 c 0
 106.98046875 -32 64 10.98046875 64 64 c 1
 16 64 l 2
 7.16015625 64 0 71.16015625 0 80 c 2
 0 192 l 2
 0 221.790039062 20.4404296875 246.599609375 48 253.740234375 c 1
 95.91015625 375.76953125 l 2
 105.629882812 400.0703125 129.16015625 416 155.330078125 416 c 2
 369.240234375 416 l 2
 386.219726562 415.998046875 408.610351562 405.237304688 419.219726562 391.98046875 c 2
 528 256 l 1
 544 256 l 2xfb
160 16 m 0
 186.469726562 16 208 37.5302734375 208 64 c 0
 208 90.4697265625 186.469726562 112 160 112 c 0
 133.530273438 112 112 90.4697265625 112 64 c 0
 112 37.5302734375 133.530273438 16 160 16 c 0
232 256 m 1xf7
 232 352 l 1
 155.330078125 352 l 1
 116.9296875 256 l 1
 232 256 l 1xf7
280 256 m 1
 446.040039062 256 l 1
 369.240234375 352 l 1
 280 352 l 1
 280 256 l 1
480 16 m 0
 506.469726562 16 528 37.5302734375 528 64 c 0
 528 90.4697265625 506.469726562 112 480 112 c 0
 453.530273438 112 432 90.4697265625 432 64 c 0
 432 37.5302734375 453.530273438 16 480 16 c 0
EndSplineSet
Validated: 1
EndChar

StartChar: plus
Encoding: 43 43 36
Width: 640
Flags: W
HStem: -32 64<145.411 206.589 433.416 494.594> 96 160<39.8044 65.6104 288 353.62 574.4 600.196> 96 64<0.719047 32 608 639.281> 352 64<288 369.24>
VStem: 64 64<49.4106 95.5663> 224 64<49.4106 95.5663 256 352> 352.01 63.9902<49.4106 95.5663> 512 64.0098<49.4106 95.5663>
LayerCount: 2
Fore
SplineSet
624 160 m 2xbf
 632.83984375 160 640 152.83984375 640 144 c 2
 640 112 l 2
 640 103.16015625 632.83984375 96 624 96 c 2xbf
 574.400390625 96 l 1
 575.16015625 90.73046875 576.009765625 85.48046875 576.009765625 80 c 0
 576.009765625 18.1396484375 525.870117188 -32 464.009765625 -32 c 0
 402.150390625 -32 352.009765625 18.1396484375 352.009765625 80 c 0
 352.009765625 85.48046875 352.860351562 90.73046875 353.620117188 96 c 1xdf
 286.389648438 96 l 1xbf
 287.150390625 90.73046875 288 85.48046875 288 80 c 0
 288 18.1396484375 237.860351562 -32 176 -32 c 0
 114.139648438 -32 64 18.1396484375 64 80 c 0
 64 85.48046875 64.849609375 90.73046875 65.6103515625 96 c 1xdf
 16 96 l 2
 7.16015625 96 0 103.16015625 0 112 c 2
 0 144 l 2
 0 152.83984375 7.16015625 160 16 160 c 2
 32 160 l 1xbf
 32 224 l 2
 32 241.669921875 46.330078125 256 64 256 c 2
 224 256 l 1
 224 384 l 2
 224 401.669921875 238.330078125 416 256 416 c 2
 369.240234375 416 l 2
 386.219726562 415.998046875 408.610351562 405.237304688 419.219726562 391.98046875 c 2
 528 256 l 1
 576 256 l 2xdf
 593.669921875 256 608 241.669921875 608 224 c 2
 608 160 l 1
 624 160 l 2xbf
288 352 m 1
 288 256 l 1
 446.040039062 256 l 1xdf
 369.240234375 352 l 1
 288 352 l 1
176 32 m 0
 202.469726562 32 224 53.5302734375 224 80 c 0
 224 106.469726562 202.469726562 128 176 128 c 0
 149.530273438 128 128 106.469726562 128 80 c 0
 128 53.5302734375 149.530273438 32 176 32 c 0
464 32 m 0
 490.469726562 32 512 53.5302734375 512 80 c 0
 512 106.469726562 490.469726562 128 464 128 c 0
 437.530273438 128 416 106.469726562 416 80 c 0
 416 53.5302734375 437.530273438 32 464 32 c 0
EndSplineSet
Validated: 1
EndChar

StartChar: comma
Encoding: 44 44 37
Width: 640
Flags: W
HStem: -64 96<136.181 215.819> -64 64<507.957 548.043> 48 64<507.957 548.043> 192 96<161.839 215.819> 384 64<160 266.89>
VStem: 0 96<72.1808 151.819> 96 64<288 384> 440 64<3.95691 44.0431> 480 64<288 363.88> 552 64<3.95691 44.0431>
LayerCount: 2
Fore
SplineSet
528 112 m 0x7940
 576.599609375 112 616 72.599609375 616 24 c 0
 616 -24.599609375 576.599609375 -64 528 -64 c 0
 479.400390625 -64 440 -24.599609375 440 24 c 0
 440 72.599609375 479.400390625 112 528 112 c 0x7940
528 0 m 0
 541.23046875 0 552 10.76953125 552 24 c 0
 552 37.23046875 541.23046875 48 528 48 c 0
 514.76953125 48 504 37.23046875 504 24 c 0
 504 10.76953125 514.76953125 0 528 0 c 0
608 288 m 2
 625.669921875 288 640 273.669921875 639.990234375 256 c 2
 639.990234375 205.240234375 l 2
 639.990234375 196.75 636.620117188 188.610351562 630.620117188 182.610351562 c 2
 579.799804688 131.790039062 l 1
 564.0703125 139.379882812 546.639648438 143.990234375 528 143.990234375 c 0
 488.860351562 143.990234375 454.450195312 124.98046875 432.540039062 95.990234375 c 1
 352 95.990234375 l 1
 352 89.990234375 l 2
 352 77.83984375 342.150390625 67.990234375 330 67.990234375 c 2
 322.83984375 67.990234375 l 1
 319.889648438 58.08984375 315.919921875 48.5302734375 310.9296875 39.26953125 c 1
 315.990234375 34.2099609375 l 2
 324.580078125 25.6201171875 324.580078125 11.6904296875 315.990234375 3.099609375 c 2
 284.879882812 -28.009765625 l 2
 276.290039062 -36.599609375 262.360351562 -36.599609375 253.76953125 -28.009765625 c 2
 248.709960938 -22.9501953125 l 1
 239.450195312 -27.9404296875 229.889648438 -31.91015625 219.990234375 -34.8603515625 c 1
 219.990234375 -42 l 2
 219.990234375 -54.150390625 210.139648438 -64 197.990234375 -64 c 2
 153.990234375 -64 l 2
 141.83984375 -64 131.990234375 -54.150390625 131.990234375 -42 c 2
 131.990234375 -34.849609375 l 1
 122.08984375 -31.900390625 112.530273438 -27.9296875 103.26953125 -22.9404296875 c 1
 98.2099609375 -28 l 2
 89.6201171875 -36.58984375 75.6904296875 -36.58984375 67.099609375 -28 c 2
 35.990234375 3.1103515625 l 2
 27.400390625 11.7001953125 27.400390625 25.6298828125 35.990234375 34.2197265625 c 2
 41.0498046875 39.2802734375 l 1
 36.0595703125 48.5498046875 32.099609375 58.099609375 29.1396484375 68.009765625 c 1
 22 68.009765625 l 2
 9.849609375 68.009765625 0 77.8603515625 0 90.009765625 c 2
 0 134.009765625 l 2xbcc0
 0 146.16015625 9.849609375 156.009765625 22 156.009765625 c 2
 29.150390625 156.009765625 l 1
 32.099609375 165.91015625 36.0703125 175.469726562 41.0595703125 184.73046875 c 1
 36 189.790039062 l 2
 27.41015625 198.379882812 27.41015625 212.309570312 36 220.900390625 c 2
 67.1103515625 252.009765625 l 2
 75.0400390625 259.940429688 87.3701171875 260.209960938 96 253.48046875 c 1
 96 400 l 2
 96 426.469726562 117.530273438 448 144 448 c 2
 277.450195312 448 l 1
 277.497070312 448 l 2
 294.98046875 448 314.729492188 434.9453125 321.580078125 418.860351562 c 2
 377.669921875 288 l 1
 480 288 l 1
 480 328.200195312 l 2
 480 358.190429688 490.580078125 387.099609375 509.5 409.919921875 c 0
 515.879882812 417.620117188 527.540039062 418.150390625 534.200195312 410.700195312 c 2
 555.830078125 386.530273438 l 2
 560.700195312 381.099609375 561.5703125 372.83984375 557.150390625 367.040039062 c 0
 548.700195312 355.959960938 544 342.3203125 544 328.200195312 c 2
 544 288 l 1xbac0
 608 288 l 2
176 32 m 0
 220.1796875 32 256 67.8203125 256 112 c 0
 256 156.1796875 220.1796875 192 176 192 c 0
 131.8203125 192 96 156.1796875 96 112 c 0
 96 67.8203125 131.8203125 32 176 32 c 0
198 288 m 1
 308.040039062 288 l 1
 266.889648438 384 l 1
 160 384 l 1
 160 288 l 1x3a40
 198 288 l 1
EndSplineSet
Validated: 33
EndChar

StartChar: slash
Encoding: 47 47 38
Width: 448
Flags: W
HStem: -64 104<190.494 257.506> 152 40<190.494 257.506> 352 96<72.6746 375.766>
VStem: 0 48<195.781 348.219> 280 168<63.4742 129.506> 400 48<195.781 348.219>
LayerCount: 2
Fore
SplineSet
448 352 m 2xf4
 448 96 l 2xf8
 448 44.1845703125 386.375976562 0 317.977539062 0 c 1
 380.958007812 -49.720703125 l 2
 386.905273438 -54.4169921875 383.561523438 -64 376 -64 c 2
 72 -64 l 2
 64.421875 -64 61.1083984375 -54.40625 67.04296875 -49.720703125 c 2
 130.022460938 0 l 1
 61.8203125 0 0 44.0458984375 0 96 c 2
 0 352 l 2
 0 405.018554688 64 448 128 448 c 2
 320 448 l 2
 385 448 448 405.018554688 448 352 c 2xf4
400 216 m 2xf4
 400 328 l 2
 400 341.254882812 389.254882812 352 376 352 c 2
 72 352 l 2
 58.7451171875 352 48 341.254882812 48 328 c 2
 48 216 l 2
 48 202.745117188 58.7451171875 192 72 192 c 2
 376 192 l 2
 389.254882812 192 400 202.745117188 400 216 c 2xf4
224 152 m 0
 193.072265625 152 168 126.927734375 168 96 c 0
 168 65.072265625 193.072265625 40 224 40 c 0
 254.927734375 40 280 65.072265625 280 96 c 0xf8
 280 126.927734375 254.927734375 152 224 152 c 0
EndSplineSet
Validated: 1
EndChar

StartChar: colon
Encoding: 58 58 39
Width: 640
Flags: W
HStem: -64 96<192 256 288 352 384 448> 64 88<196.407 251.594 388.407 443.594> 232 120<196.407 251.593 388.407 443.593>
VStem: 0 64<39.7969 216.203> 96 88<164.407 219.593> 256 32<32 64> 264 112<164.407 219.593> 288 64<352 440.194> 352 32<32 64> 456 88<164.406 219.593> 576 64<39.7969 216.203>
LayerCount: 2
Fore
SplineSet
32 224 m 1xf860
 64 224 l 1
 64 32 l 1
 32 32 l 1
 31.9619140625 32 l 2
 14.318359375 32 0 46.318359375 0 63.9619140625 c 2
 0 64 l 1
 0 192 l 1
 0 192.038085938 l 2
 0 209.681640625 14.318359375 224 31.9619140625 224 c 2
 32 224 l 1xf860
544 272 m 1
 544 0 l 2
 543.96484375 -35.29296875 515.29296875 -63.96484375 480 -64 c 2
 160 -64 l 2
 124.70703125 -63.96484375 96.03515625 -35.29296875 96 0 c 2
 96 272 l 1
 96 272.026367188 l 2
 96 316.171875 131.828125 352 175.973632812 352 c 2
 176 352 l 1
 288 352 l 1
 288 416 l 2
 288 433.6640625 302.3359375 448 320 448 c 0
 337.6640625 448 352 433.6640625 352 416 c 2
 352 352 l 1xf960
 464 352 l 1
 464.026367188 352 l 2
 508.171875 352 544 316.171875 544 272.026367188 c 2
 544 272 l 1
264 192 m 2xfa60
 264 214.080078125 246.080078125 232 224 232 c 0
 201.919921875 232 184 214.080078125 184 192 c 0
 184 169.919921875 201.919921875 152 224 152 c 2
 224.002929688 152 l 2
 246.081054688 152 264 169.918945312 264 191.997070312 c 2
 264 192 l 2xfa60
256 64 m 1xfc60
 192 64 l 1
 192 32 l 1
 256 32 l 1
 256 64 l 1xfc60
352 64 m 1xfce0
 288 64 l 1
 288 32 l 1
 352 32 l 1
 352 64 l 1xfce0
456 192 m 2
 456 214.080078125 438.080078125 232 416 232 c 0
 393.919921875 232 376 214.080078125 376 192 c 0xfa60
 376 169.919921875 393.919921875 152 416 152 c 2
 416.002929688 152 l 2
 438.081054688 152 456 169.918945312 456 191.997070312 c 2
 456 192 l 2
448 64 m 1
 384 64 l 1
 384 32 l 1xf8e0
 448 32 l 1
 448 64 l 1
640 192 m 1
 640 64 l 1
 640 63.9619140625 l 2
 640 46.318359375 625.681640625 32 608.038085938 32 c 2
 608 32 l 1
 576 32 l 1
 576 224 l 1
 608 224 l 1
 608.038085938 224 l 2
 625.681640625 224 640 209.681640625 640 192.038085938 c 2
 640 192 l 1
EndSplineSet
Validated: 1
EndChar

StartChar: semicolon
Encoding: 59 59 40
Width: 640
Flags: W
HStem: -64 48<129.345 190.655 449.345 510.655> 32 64<608 639.278> 80 112<449.472 510.528> 288 160<112 176 240 304> 304 48<416 460.1> 352 96<176 240>
VStem: 0 176<160 224 288 352> 0 112<49.4716 62.5284 224 288> 64 48<1.47156 32> 208 48<1.47156 32> 304 112<224 288> 384 48<1.47156 32> 528 48<1.47156 32>
LayerCount: 2
Fore
SplineSet
624 96 m 2xc968
 632.799804688 96 640 88.7998046875 640 80 c 2xa168
 640 48 l 2
 640 39.2001953125 632.799804688 32 624 32 c 2
 576 32 l 1
 576 -21 533 -64 480 -64 c 0
 427 -64 384 -21 384 32 c 1
 256 32 l 1
 256 -21 213 -64 160 -64 c 0
 107 -64 64 -21 64 32 c 1
 48 32 l 2xc0d8
 21.5 32 0 53.5 0 80 c 2
 0 400 l 2
 0 426.5 21.5 448 48 448 c 2
 368 448 l 2xa548
 394.5 448 416 426.5 416 400 c 2
 416 352 l 1
 460.099609375 352 l 2
 472.799804688 352 485 346.900390625 494 337.900390625 c 2
 593.900390625 238 l 2
 602.900390625 229 608 216.799804688 608 204.099609375 c 2
 608 96 l 1
 624 96 l 2xc968
160 -16 m 0
 186.5 -16 208 5.5 208 32 c 0xc0c8
 208 58.5 186.5 80 160 80 c 0xa0c8
 133.5 80 112 58.5 112 32 c 0xc0c8
 112 5.5 133.5 -16 160 -16 c 0
304 232 m 2x9268
 304 280 l 2
 304 284.400390625 300.400390625 288 296 288 c 2
 240 288 l 1x9268
 240 344 l 2
 240 348.400390625 236.400390625 352 232 352 c 2
 184 352 l 2x8668
 179.599609375 352 176 348.400390625 176 344 c 2
 176 288 l 1x9268
 120 288 l 2
 115.599609375 288 112 284.400390625 112 280 c 2
 112 232 l 2x9148
 112 227.599609375 115.599609375 224 120 224 c 2
 176 224 l 1
 176 168 l 2
 176 163.599609375 179.599609375 160 184 160 c 2
 232 160 l 2
 236.400390625 160 240 163.599609375 240 168 c 2
 240 224 l 1
 296 224 l 2
 300.400390625 224 304 227.599609375 304 232 c 2x9268
480 -16 m 0
 506.5 -16 528 5.5 528 32 c 0xc058
 528 58.5 506.5 80 480 80 c 0xa058
 453.5 80 432 58.5 432 32 c 0xc058
 432 5.5 453.5 -16 480 -16 c 0
560 192 m 1xa868
 560 204.099609375 l 1
 460.099609375 304 l 1
 416 304 l 1
 416 192 l 1
 560 192 l 1xa868
EndSplineSet
Validated: 1
EndChar

StartChar: less
Encoding: 60 60 41
Width: 384
Flags: W
LayerCount: 2
Fore
SplineSet
97.3330078125 -58.9658203125 m 0
 -32.541015625 70.908203125 -32.34765625 281.286132812 97.3330078125 410.966796875 c 0
 103.03125 416.665039062 111.860351562 417.598632812 118.595703125 413.388671875 c 2
 183.413085938 372.875976562 l 2
 187.872070312 370.088867188 191.491210938 363.559570312 191.491210938 358.30078125 c 0
 191.491210938 356.473632812 190.940429688 353.614257812 190.26171875 351.91796875 c 2
 157.853515625 270.897460938 l 2
 155.46875 264.932617188 148.319335938 260.092773438 141.895507812 260.092773438 c 0
 141.421875 260.092773438 140.65625 260.130859375 140.184570312 260.177734375 c 2
 84.375 265.7578125 l 1
 63.32421875 207.497070312 63.7626953125 143.287109375 84.375 86.2431640625 c 1
 140.185546875 91.82421875 l 2
 140.657226562 91.87109375 141.422851562 91.9091796875 141.896484375 91.9091796875 c 0
 148.3203125 91.9091796875 155.469726562 87.0693359375 157.85546875 81.10546875 c 2
 190.262695312 0.0830078125 l 2
 190.94140625 -1.61328125 191.4921875 -4.47265625 191.4921875 -6.2998046875 c 0
 191.4921875 -11.55859375 187.873046875 -18.087890625 183.4140625 -20.875 c 2
 118.596679688 -61.3876953125 l 2
 116.2890625 -62.830078125 112.208007812 -64 109.487304688 -64 c 0
 105.557617188 -64 100.112304688 -61.7451171875 97.3330078125 -58.9658203125 c 0
247.125976562 352.52734375 m 0
 258.958007812 332.48046875 258.958007812 307.518554688 247.125976562 287.471679688 c 0
 243.17578125 280.779296875 234.017578125 279.512695312 228.408203125 284.890625 c 2
 222.432617188 290.6171875 l 2
 218.522460938 294.365234375 217.639648438 300.239257812 220.171875 305.02734375 c 0
 222.220703125 308.905273438 223.8828125 315.61328125 223.8828125 319.999023438 c 0
 223.8828125 324.385742188 222.220703125 331.09375 220.171875 334.971679688 c 0
 217.638671875 339.759765625 218.522460938 345.633789062 222.432617188 349.381835938 c 2
 228.408203125 355.108398438 l 2
 234.017578125 360.486328125 243.17578125 359.219726562 247.125976562 352.52734375 c 0
338.913085938 443.713867188 m 0
 399.052734375 372.110351562 399.004882812 267.83203125 338.913085938 196.286132812 c 0
 334.439453125 190.958984375 326.3828125 190.540039062 321.361328125 195.352539062 c 2
 315.563476562 200.91015625 l 2
 311.002929688 205.28125 310.5859375 212.439453125 314.6328125 217.2890625 c 0
 364.3203125 276.827148438 364.279296875 363.221679688 314.6328125 422.7109375 c 0
 310.5859375 427.560546875 311.001953125 434.71875 315.563476562 439.08984375 c 2
 321.361328125 444.647460938 l 2
 326.3828125 449.459960938 334.439453125 449.041015625 338.913085938 443.713867188 c 0
292.94140625 398.7734375 m 0
 328.991210938 352.451171875 329.048828125 287.624023438 292.94140625 241.2265625 c 0
 288.55078125 235.5859375 280.244140625 234.975585938 275.084960938 239.922851562 c 2
 269.266601562 245.501953125 l 2
 264.8671875 249.720703125 264.268554688 256.596679688 267.982421875 261.432617188 c 0
 294.517578125 295.997070312 294.515625 344.004882812 267.982421875 378.567382812 c 0
 264.268554688 383.403320312 264.8671875 390.278320312 269.266601562 394.498046875 c 2
 275.084960938 400.077148438 l 2
 280.244140625 405.024414062 288.55078125 404.4140625 292.94140625 398.7734375 c 0
EndSplineSet
Validated: 33
EndChar

StartChar: equal
Encoding: 61 61 42
Width: 640
Flags: W
HStem: 0 48<88.8209 168.315> 208 47.9004<89.8523 140.308 496.443 550.424> 296 48<52.0606 162.326> 304 80<453.971 540.23> 336 48<280.722 362.4>
VStem: 0 48<89.0811 167.349> 384.1 47.9004<89.5766 167.538>
LayerCount: 2
Fore
SplineSet
512.900390625 256 m 0xd6
 582.5 255.5 639.400390625 198.700195312 640.099609375 129.099609375 c 0
 640.700195312 57.5 582.5 -0.7001953125 510.900390625 0 c 0
 441.299804688 0.599609375 384.599609375 57.5 384.099609375 127.099609375 c 0
 383.799804688 166.400390625 401.299804688 201.599609375 428.900390625 225.299804688 c 1
 416.400390625 246.099609375 l 1
 377.700195312 214.799804688 358.099609375 168.200195312 360.200195312 121.099609375 c 0
 360.799804688 107.400390625 349.900390625 96 336.200195312 96 c 2
 252 96 l 1
 237.700195312 40.7998046875 187.599609375 0 128 0 c 0
 56.2998046875 0 -1.599609375 58.900390625 0 131 c 0
 1.599609375 198.400390625 55.900390625 253.5 123.200195312 255.900390625 c 0
 137.599609375 256.400390625 151.5 254.599609375 164.5 250.700195312 c 1
 175.799804688 271.200195312 l 1
 166.700195312 285.099609375 152.5 296 128 296 c 2
 72 296 l 2
 58.900390625 296 48.2001953125 306.5 48 319.5 c 0
 47.7001953125 333 59 344 72.5 344 c 2
 128 344 l 2xe6
 183 344 210.200195312 327.099609375 227.900390625 304 c 1
 381.599609375 304 l 1xd6
 362.400390625 336 l 1
 296 336 l 2
 287.200195312 336 280 343.200195312 280 352 c 2
 280 368 l 2
 280 376.799804688 287.200195312 384 296 384 c 2
 376 384 l 2xce
 384.400390625 384 392.200195312 379.599609375 396.599609375 372.400390625 c 2
 419.400390625 334.400390625 l 1
 456.900390625 376.099609375 l 2
 461.400390625 381.099609375 467.900390625 384 474.700195312 384 c 2
 520 384 l 2
 533.299804688 384 544 373.299804688 544 360 c 2
 544 328 l 2
 544 314.700195312 533.299804688 304 520 304 c 2
 437.599609375 304 l 1
 470.5 249.099609375 l 1
 483.799804688 253.700195312 498 256.099609375 512.900390625 256 c 0xd6
128 48 m 0
 160.700195312 48 188.900390625 67.7998046875 201.299804688 96 c 1
 120 96 l 2
 101.799804688 96 90.2001953125 115.599609375 99 131.599609375 c 2
 140.5 207 l 2
 136.400390625 207.700195312 132.200195312 208 128 208 c 0
 83.900390625 208 48 172.099609375 48 128 c 0
 48 83.900390625 83.900390625 48 128 48 c 0
591.900390625 123.599609375 m 0
 594.299804688 169.700195312 557.599609375 208 512 207.900390625 c 0
 506.599609375 207.900390625 501.299804688 207.400390625 496.099609375 206.299804688 c 1
 544.700195312 125.400390625 l 2
 549.200195312 117.799804688 546.799804688 107.900390625 539.200195312 103.400390625 c 2
 525.5 95.2001953125 l 2
 517.900390625 90.7001953125 508 93.099609375 503.5 100.700195312 c 2
 454.099609375 183.099609375 l 1
 440.400390625 168.799804688 432 149.400390625 432 128 c 0
 432 82.400390625 470.299804688 45.599609375 516.400390625 48.099609375 c 0
 556.900390625 50.2001953125 589.700195312 83 591.900390625 123.599609375 c 0
EndSplineSet
Validated: 33
EndChar

StartChar: greater
Encoding: 62 62 43
Width: 640
VWidth: 525
Flags: W
HStem: -61.6104 51.3154<53.1386 101.968 179 231.582 499.642 552.308> 33.8936 59.8691<284.115 423.387> 51 112.61<500.74 551.612> 51 41.3369<53.1007 101.436 180.014 230.886> 212.075 47.04<476.552 533.058> 300 20G<352.662 362.257>
VStem: 0.451172 47.0391<-5.32979 45.5518> 108.786 62.7188<-2.27698 42.2686> 237.076 49.8916<-4.86668 33.6956> 432.31 44.2422<163.61 191.218 191.235 212.075> 446.617 45.6143<-0.914225 33.6283> 557.803 49.8906<-4.86668 33.6956>
LayerCount: 2
Fore
SplineSet
169 110.900390625 m 5x8f90
 121.154296875 132.057617188 57.66015625 109.986328125 43 257.950195312 c 5
 59 235.850585938 76 218.850585938 106 218.850585938 c 5
 82.6669921875 252.283203125 75.3330078125 292.517578125 84 339.55078125 c 5
 94.8837890625 323.87890625 102.709960938 306.58984375 130 299.600585938 c 5
 113.21875 340.166015625 127.67578125 367.455078125 130 399.900390625 c 5
 146.09765625 371.1796875 161.471679688 340.716796875 183 325.100585938 c 5
 209.955078125 362.262695312 213.43359375 408.680664062 206 459.400390625 c 5
 255.706054688 416.999023438 267.84765625 368.0234375 266 316.600585938 c 5
 297.583007812 329.111328125 293.616210938 355.629882812 305 376.100585938 c 5
 322.940429688 339.525390625 325.965820312 306.71484375 308 279.200195312 c 5
 335.146484375 283.818359375 345.323242188 303.96875 360 320 c 5
 364.514648438 277.771484375 361.456054688 241 344 214.600585938 c 5
 357.08984375 215.018554688 369.560546875 217.775390625 380 228.200195312 c 5
 376.657226562 147.798828125 329.619140625 122.889648438 277 116 c 5
 294.453125 131.716796875 313.728515625 146.909179688 316 167 c 13
 285 167 l 21
 301.955078125 194.259765625 311 212.900390625 311 232.450195312 c 5
 298.220703125 216.358398438 281.077148438 204.21484375 255 200.150390625 c 5
 256.533203125 216.787109375 255 240.100585938 250 252 c 5
 241.759765625 270.62109375 238.329101562 283.525390625 223 295.350585938 c 5
 197.131835938 273.939453125 192.516601562 236.909179688 191 197.600585938 c 5
 172.458984375 204.80859375 160.6328125 215.357421875 150 226.5 c 5
 148.009765625 205.903320312 150.577148438 184.75 167 161.900390625 c 5
 152.322265625 163.026367188 138.041992188 165.157226562 126 172.950195312 c 5
 127.928710938 147.6796875 148 129.600585938 169 110.900390625 c 5x8f90
0.451171875 58.1259765625 m 1
 0.451171875 68.1044921875 10.2734375 92.626953125 36.087890625 92.3369140625 c 1x9fb0
 162.952148438 92.6357421875 390.965820312 91.568359375 403.853515625 93.7626953125 c 0xcfb0
 422.966796875 97.017578125 432.362304688 113.71875 432.362304688 132.25 c 2
 432.309570312 191.217773438 l 1
 432.309570312 191.217773438 432.362304688 214.92578125 432.362304688 226.329101562 c 0
 432.362304688 243.553710938 445.19140625 259.115234375 463.72265625 259.115234375 c 2
 515.0390625 259.115234375 l 2
 533.537109375 259.115234375 546.3984375 253.4140625 559.227539062 240.583984375 c 2
 620.522460938 182.141601562 l 2
 633.350585938 169.311523438 639.052734375 155.057617188 639.052734375 136.526367188 c 2
 639.052734375 51 l 2x9fd0
 639.052734375 43.8720703125 630.5 33.8935546875 623.372070312 33.8935546875 c 2
 604.841796875 33.8935546875 l 1
 607.693359375 28.19140625 607.693359375 25.341796875 607.693359375 19.638671875 c 0
 607.693359375 -25.9755859375 573.481445312 -61.6103515625 527.868164062 -61.6103515625 c 0
 482.252929688 -61.6103515625 446.6171875 -25.9755859375 446.6171875 19.638671875 c 0
 446.6171875 25.341796875 443.766601562 28.19140625 446.6171875 33.8935546875 c 1
 284.115234375 33.8935546875 l 1xcfb0
 286.967773438 28.19140625 286.967773438 25.341796875 286.967773438 19.638671875 c 0
 286.967773438 -25.9755859375 252.755859375 -61.6103515625 207.141601562 -61.6103515625 c 0
 180.057617188 -61.6103515625 158.676757812 -48.7822265625 142.99609375 -28.826171875 c 1
 127.315429688 -48.7822265625 103.083007812 -61.6103515625 76 -61.6103515625 c 0
 30.3857421875 -61.6103515625 0.451171875 -18.1416015625 0.451171875 19.638671875 c 2
 0.451171875 58.1259765625 l 1
76 -10.294921875 m 0
 94.53125 -10.294921875 108.786132812 1.1083984375 108.786132812 19.638671875 c 0
 108.786132812 38.169921875 94.53125 51 76 51 c 0
 57.46875 51 47.490234375 38.169921875 47.490234375 19.638671875 c 0
 47.490234375 1.1083984375 57.46875 -10.294921875 76 -10.294921875 c 0
207.141601562 -10.294921875 m 0
 225.671875 -10.294921875 237.076171875 1.1083984375 237.076171875 19.638671875 c 0
 237.076171875 38.169921875 225.671875 51 207.141601562 51 c 0
 188.610351562 51 171.504882812 38.169921875 171.504882812 19.638671875 c 0
 171.504882812 1.1083984375 188.610351562 -10.294921875 207.141601562 -10.294921875 c 0
476.551757812 212.075195312 m 1xafd0
 476.551757812 163.610351562 l 1
 570.631835938 163.610351562 l 1
 527.868164062 206.373046875 l 2
 525.016601562 209.224609375 520.740234375 212.075195312 515.0390625 212.075195312 c 2
 476.551757812 212.075195312 l 1xafd0
527.868164062 -10.294921875 m 0
 546.3984375 -10.294921875 557.802734375 1.1083984375 557.802734375 19.638671875 c 0
 557.802734375 38.169921875 546.3984375 51 527.868164062 51 c 0
 509.3359375 51 492.231445312 38.169921875 492.231445312 19.638671875 c 0xafb0
 492.231445312 1.1083984375 509.3359375 -10.294921875 527.868164062 -10.294921875 c 0
EndSplineSet
Validated: 33
EndChar

StartChar: question
Encoding: 63 63 44
Width: 640
VWidth: 525
Flags: W
HStem: -49.7822 51.2998<51.7744 99.3559 176.793 229.357 497.333 549.982> 45.6924 59.8516<281.875 421.102> 62.793 41.3242<50.9344 99.2532 177.806 228.661> 223.819 47.0254<474.25 530.739> 313.804 21G<166.968 180.305> 402.815 20G<177.265 204.17>
VStem: -1.69824 47.0234<6.48266 57.3467> 106.6 62.6992<9.5343 54.0647> 163.984 16.3203<320.634 335.311> 234.85 49.874<6.94497 45.4945> 248.404 16.3203<353.758 367.066> 430.024 44.2256<175.367 202.968 202.985 223.819> 444.324 45.6006<10.2144 45.4944> 555.475 49.876<6.94454 45.4964>
LayerCount: 2
Fore
SplineSet
275.638671875 278.486328125 m 1x9e04
 297.68359375 286.424804688 l 1
 341.841796875 246.940429688 l 1
 330.475585938 236.178710938 l 1
 275.638671875 278.486328125 l 1x9e04
255.943359375 414.419921875 m 1
 279.86328125 409.970703125 l 1
 264.724609375 353.7578125 l 1
 248.404296875 346.927734375 l 1x9e24
 255.943359375 414.419921875 l 1
180.249023438 422.815429688 m 1
 204.169921875 418.365234375 l 1
 180.3046875 320.633789062 l 1
 163.984375 313.803710938 l 1x9e84
 180.249023438 422.815429688 l 1
199.336914062 253.048828125 m 1
 221.381835938 260.987304688 l 1
 295.264648438 197.9140625 l 1
 283.899414062 187.15234375 l 1
 199.336914062 253.048828125 l 1
372.1328125 406.184570312 m 1
 411.866210938 424.711914062 l 1
 102.76953125 458.46484375 l 1
 75.0830078125 440.873046875 l 1
 372.1328125 406.184570312 l 1
459 332 m 1
 416.961914062 321.760742188 l 1
 238.427734375 120.697265625 l 1
 267.1328125 117.698242188 l 1
 459 332 l 1
499.264648438 416.313476562 m 25
 453.817382812 431.791015625 l 1
 129.4609375 289.123046875 l 1
 57.7578125 211.99609375 l 1
 481.5625 358.90625 l 1
 499.264648438 416.313476562 l 25
525.549804688 1.517578125 m 0
 544.076171875 1.517578125 555.474609375 12.91796875 555.474609375 31.4423828125 c 0
 555.474609375 49.9677734375 544.075195312 62.7919921875 525.55078125 62.7919921875 c 0
 507.025390625 62.79296875 489.924804688 49.9677734375 489.924804688 31.44140625 c 0x9e0c
 489.924804688 12.9169921875 507.025390625 1.517578125 525.549804688 1.517578125 c 0
474.25 223.819335938 m 1x9e14
 474.25 175.3671875 l 1
 568.299804688 175.366210938 l 1
 525.549804688 218.1171875 l 2
 522.697265625 220.967773438 518.424804688 223.817382812 512.724609375 223.817382812 c 2
 474.25 223.819335938 l 1x9e14
204.924804688 1.517578125 m 0
 223.451171875 1.517578125 234.849609375 12.91796875 234.849609375 31.4443359375 c 0
 234.848632812 49.9677734375 223.450195312 62.79296875 204.924804688 62.79296875 c 0
 186.400390625 62.79296875 169.298828125 49.9677734375 169.298828125 31.4423828125 c 0xbf44
 169.299804688 12.91796875 186.400390625 1.517578125 204.924804688 1.517578125 c 0
73.8271484375 1.51953125 m 0
 92.3515625 1.51953125 106.6015625 12.91796875 106.599609375 31.4423828125 c 0
 106.6015625 49.9677734375 92.349609375 62.79296875 73.8251953125 62.79296875 c 0
 55.2998046875 62.79296875 45.3271484375 49.9677734375 45.3251953125 31.4423828125 c 0
 45.3251953125 12.91796875 55.3017578125 1.51953125 73.8271484375 1.51953125 c 0
-1.7001953125 69.91796875 m 2
 -1.7001953125 79.89453125 8.119140625 104.407226562 33.9248046875 104.1171875 c 0xbe4c
 160.75 104.416015625 388.689453125 103.349609375 401.575195312 105.543945312 c 0xde4c
 420.681640625 108.796875 430.075195312 125.491210938 430.076171875 144.016601562 c 2
 430.024414062 202.967773438 l 1
 430.024414062 202.967773438 430.075195312 226.66796875 430.076171875 238.067382812 c 0
 430.075195312 255.286132812 442.900390625 270.842773438 461.424804688 270.844726562 c 2
 512.724609375 270.842773438 l 2
 531.217773438 270.844726562 544.07421875 265.141601562 556.900390625 252.319335938 c 2
 618.174804688 193.892578125 l 2
 631 181.067382812 636.69921875 166.817382812 636.700195312 148.29296875 c 2
 636.700195312 62.79296875 l 2xbe54
 636.701171875 55.66796875 628.151367188 45.6923828125 621.022460938 45.69140625 c 2
 602.5 45.6962890625 l 1
 605.349609375 39.9921875 605.349609375 37.14453125 605.350585938 31.4423828125 c 0
 605.348632812 -14.1572265625 571.150390625 -49.7822265625 525.549804688 -49.7822265625 c 0
 479.951171875 -49.7822265625 444.325195312 -14.1572265625 444.32421875 31.4423828125 c 0
 444.325195312 37.142578125 441.474609375 39.9921875 444.325195312 45.6923828125 c 1
 281.875 45.6923828125 l 1xde0c
 284.736328125 39.970703125 284.723632812 37.142578125 284.723632812 31.4423828125 c 0
 284.723632812 -14.1552734375 250.525390625 -49.7822265625 204.923828125 -49.7822265625 c 0
 177.849609375 -49.7822265625 156.474609375 -36.9560546875 140.799804688 -17.0078125 c 1
 125.125 -36.95703125 100.900390625 -49.783203125 73.8271484375 -49.7822265625 c 0
 28.22265625 -49.7822265625 -1.7001953125 -6.326171875 -1.6982421875 31.4423828125 c 2
 -1.7001953125 69.91796875 l 2
EndSplineSet
Validated: 37
EndChar

StartChar: at
Encoding: 64 64 45
Width: 640
VWidth: 525
Flags: W
HStem: -54.3877 51.1562<53.0688 101.745 178.538 230.954 498.178 550.679> 40.8193 58.2607<283.324 431.108> 57.8711 112.259<499.046 549.986> 57.8711 41.209<53.0313 101.215 179.548 230.261> 121.816 96.6279<34.6494 386.427> 218.444 46.8926<513.527 531.49> 226 67<194.94 246.273>
VStem: 0.545898 46.8926<1.71808 52.4402> 108.542 62.5234<4.76135 49.1675> 236.432 49.7354<2.1799 40.6219> 386.427 21.9453<218.444 232.022> 445.318 45.4727<6.12026 40.5549> 556.157 49.7344<2.1799 40.6219>
LayerCount: 2
Fore
SplineSet
91 226 m 0x83f8
 119 226 347 226 347 226 c 25
 347 226 261 305 208 293 c 0
 155 281 63 226 91 226 c 0x83f8
526.315429688 -3.2314453125 m 0
 507.841796875 -3.2314453125 490.791015625 8.1357421875 490.791015625 26.609375 c 0
 490.791015625 39.3514005037 498.903661618 49.3892106764 509.999999505 54.3908508824 c 0
 514.990494544 56.6403011868 520.58449599 57.87109375 526.315429688 57.87109375 c 0xa1f8
 544.788085938 57.87109375 556.157226562 45.08203125 556.157226562 26.609375 c 0
 556.157226562 8.1357421875 544.788085938 -3.2314453125 526.315429688 -3.2314453125 c 0
475.159179688 218.444335938 m 1xa5f8
 513.52734375 218.444335938 l 2
 519.2109375 218.444335938 523.473632812 215.602539062 526.315429688 212.759765625 c 2
 568.9453125 170.129882812 l 1
 475.159179688 170.129882812 l 1
 475.159179688 184 l 0
 475.159179688 218.444335938 l 1xa5f8
206.590820312 -3.2314453125 m 0
 188.1171875 -3.2314453125 171.065429688 8.1357421875 171.065429688 26.609375 c 0
 171.065429688 45.08203125 188.1171875 57.87109375 206.590820312 57.87109375 c 0x91f8
 225.063476562 57.87109375 236.431640625 45.08203125 236.431640625 26.609375 c 0
 236.431640625 8.1357421875 225.063476562 -3.2314453125 206.590820312 -3.2314453125 c 0
75.8583984375 -3.2314453125 m 0
 57.3857421875 -3.2314453125 47.4384765625 8.1357421875 47.4384765625 26.609375 c 0
 47.4384765625 45.08203125 57.3857421875 57.87109375 75.8583984375 57.87109375 c 0
 94.33203125 57.87109375 108.541992188 45.08203125 108.541992188 26.609375 c 0
 108.541992188 8.1357421875 94.33203125 -3.2314453125 75.8583984375 -3.2314453125 c 0
431.108398438 99.080078125 m 1xc5f8
 415.477539062 99.080078125 163.9609375 99.376953125 37.4921875 99.080078125 c 1x91f8
 11.7587890625 99.369140625 0.5458984375 74.9228515625 0.5458984375 64.9755859375 c 1
 0.5458984375 26.609375 l 2
 0.5458984375 -11.0546875 30.38671875 -54.3876953125 75.8583984375 -54.3876953125 c 0
 102.857421875 -54.3876953125 127.014648438 -41.5986328125 142.645507812 -21.705078125 c 1
 158.27734375 -41.5986328125 179.591796875 -54.3876953125 206.590820312 -54.3876953125 c 0
 252.0625 -54.3876953125 286.166992188 -18.86328125 286.166992188 26.609375 c 0
 286.166992188 32.29296875 286.166992188 35.134765625 283.32421875 40.8193359375 c 1
 445.318359375 40.8193359375 l 1
 442.4765625 35.134765625 445.318359375 32.29296875 445.318359375 26.609375 c 0
 445.318359375 -18.86328125 480.84375 -54.3876953125 526.315429688 -54.3876953125 c 0
 571.787109375 -54.3876953125 605.891601562 -18.86328125 605.891601562 26.609375 c 0
 605.891601562 32.29296875 605.891601562 35.134765625 603.049804688 40.8193359375 c 1
 621.522460938 40.8193359375 l 2xc1f8
 628.626953125 40.8193359375 637.153320312 50.765625 637.153320312 57.87109375 c 2x91f8
 637.153320312 143.130859375 l 2
 637.153320312 161.604492188 631.469726562 175.814453125 618.680664062 188.603515625 c 2
 557.577148438 246.864257812 l 2
 544.788085938 259.653320312 531.966796875 265.336914062 513.52734375 265.336914062 c 2
 462.37109375 265.336914062 l 2
 443.897460938 265.336914062 431.108398438 249.82421875 431.108398438 232.654296875 c 0
 431.108398438 221.286132812 431.108398438 99.080078125 431.108398438 99.080078125 c 1xc5f8
408.372070312 218.444335938 m 1x85f8
 408.372070312 121.81640625 l 1
 371.426757812 121.81640625 l 1
 34.6494140625 121.81640625 l 1
 34.6494140625 218.444335938 l 1
 386.426757812 218.444335938 l 1x89f8
 386.426757812 232.022460938 l 1
 408.372070312 232.022460938 l 1
 408.372070312 218.444335938 l 1x85f8
EndSplineSet
Validated: 41
EndChar

StartChar: threequarters
Encoding: 190 190 46
Width: 512
Flags: W
HStem: 175.915 136.017<224 328.457>
VStem: 400.59 111.41<94.1889 132.722>
LayerCount: 2
Fore
SplineSet
8.30859375 258.1640625 m 2
 184.313476562 410.149414062 l 2
 199.71875 423.454101562 224 412.653320312 224 391.985351562 c 2
 224 311.931640625 l 1
 384.62890625 310.092773438 512 277.900390625 512 125.673828125 c 0
 512 64.2333984375 472.418945312 3.365234375 428.666992188 -28.4580078125 c 0
 415.013671875 -38.388671875 395.555664062 -25.9248046875 400.58984375 -9.8271484375 c 0
 445.93359375 135.184570312 379.083007812 173.682617188 224 175.915039062 c 1
 224 88 l 2
 224 67.2998046875 199.700195312 56.546875 184.313476562 69.8359375 c 2
 8.30859375 221.8359375 l 2
 -2.76171875 231.3984375 -2.77734375 248.588867188 8.30859375 258.1640625 c 2
EndSplineSet
Validated: 33
EndChar

StartChar: questiondown
Encoding: 191 191 47
Width: 512
Flags: W
HStem: 0 64<64 511.281>
VStem: 0 64<64 383.281>
LayerCount: 2
Fore
SplineSet
496 64 m 2
 504.83984375 64 512 56.83984375 512 48 c 2
 512 16 l 2
 512 7.16015625 504.83984375 0 496 0 c 2
 32 0 l 2
 14.330078125 0 0 14.330078125 0 32 c 2
 0 368 l 2
 0 376.83984375 7.16015625 384 16 384 c 2
 48 384 l 2
 56.83984375 384 64 376.83984375 64 368 c 2
 64 64 l 1
 496 64 l 2
464 352 m 2
 472.83984375 352 480 344.83984375 479.990234375 336 c 2
 479.990234375 217.950195312 l 2
 479.990234375 196.5703125 454.139648438 185.860351562 439.01953125 200.98046875 c 2
 406.620117188 233.379882812 l 1
 310.620117188 137.379882812 l 2
 298.129882812 124.879882812 277.870117188 124.879882812 265.370117188 137.379882812 c 2
 192 210.75 l 1
 145.940429688 164.6796875 l 2
 139.690429688 158.4296875 129.559570312 158.4296875 123.309570312 164.6796875 c 2
 100.690429688 187.299804688 l 2
 94.4404296875 193.549804688 94.4404296875 203.6796875 100.690429688 209.9296875 c 2
 169.379882812 278.620117188 l 2
 181.870117188 291.120117188 202.129882812 291.120117188 214.629882812 278.620117188 c 2
 288 205.25 l 1
 361.370117188 278.629882812 l 1
 328.969726562 311.030273438 l 2
 313.849609375 326.150390625 324.559570312 352 345.940429688 352 c 2
 464 352 l 2
EndSplineSet
Validated: 33
EndChar

StartChar: Agrave
Encoding: 192 192 48
Width: 512
Flags: W
HStem: -56 80<197.369 313.05> 359.994 80.0059<195.5 311.528>
VStem: 423.994 80.0059<135.991 247.969>
LayerCount: 2
Fore
SplineSet
255.544921875 440 m 0
 392.353515625 440.245117188 504.000976562 328.806640625 504 191.998046875 c 0
 503.999023438 55.033203125 392.965820312 -56 256 -56 c 0
 192.07421875 -56 133.797851562 -31.8134765625 89.822265625 7.908203125 c 0
 84.708984375 12.5263671875 84.4677734375 20.46875 89.33984375 25.3408203125 c 2
 129.001953125 65.0029296875 l 2
 133.463867188 69.4638671875 140.626953125 69.716796875 145.370117188 65.5556640625 c 0
 176.002929688 38.677734375 214.873046875 24 256 24 c 0
 349.81640625 24 423.236328125 99.9912109375 423.994140625 190.551757812 c 0
 424.79296875 286.016601562 346.908203125 360.791992188 254.509765625 359.994140625 c 0
 212.081054688 359.627929688 172.143554688 343.620117188 141.280273438 314.720703125 c 1
 183.030273438 272.970703125 l 2
 198.149414062 257.850585938 187.44140625 232 166.05859375 232 c 2
 32 232 l 2
 18.7451171875 232 8 242.745117188 8 256 c 2
 8 390.05859375 l 2
 8 411.44140625 33.8505859375 422.149414062 48.970703125 407.029296875 c 2
 84.6845703125 371.315429688 l 1
 129.107421875 413.766601562 189.276367188 439.880859375 255.544921875 440 c 0
EndSplineSet
Validated: 33
EndChar

StartChar: Aacute
Encoding: 193 193 49
Width: 512
Flags: W
HStem: -56 79.999<196.127 314.911> 360 80<197.073 315.875>
LayerCount: 2
Fore
SplineSet
370.719726562 314.719726562 m 1
 339.458007812 343.9921875 298.887695312 360.038085938 255.84765625 360 c 0
 178.389648438 359.931640625 111.51953125 306.822265625 93.056640625 233.150390625 c 0
 91.712890625 227.787109375 86.9345703125 224 81.40625 224 c 2
 24.1025390625 224 l 2
 16.60546875 224 10.9091796875 230.806640625 12.2958984375 238.17578125 c 0
 33.9326171875 353.076171875 134.813476562 440 256 440 c 0
 322.448242188 440 382.791015625 413.864257812 427.315429688 371.315429688 c 1
 463.030273438 407.030273438 l 2
 478.149414062 422.149414062 504 411.44140625 504 390.05859375 c 2
 504 256 l 2
 504 242.745117188 493.254882812 232 480 232 c 2
 345.94140625 232 l 2
 324.55859375 232 313.850585938 257.850585938 328.969726562 272.970703125 c 2
 370.719726562 314.719726562 l 1
32 152 m 2
 166.05859375 152 l 2
 187.44140625 152 198.149414062 126.149414062 183.030273438 111.029296875 c 2
 141.280273438 69.279296875 l 1
 172.541992188 40.005859375 213.115234375 23.9599609375 256.15625 23.9990234375 c 0
 333.57421875 24.0693359375 400.470703125 77.142578125 418.943359375 150.84765625 c 0
 420.287109375 156.2109375 425.065429688 159.998046875 430.59375 159.998046875 c 2
 487.8984375 159.998046875 l 2
 495.396484375 159.998046875 501.091796875 153.19140625 499.705078125 145.822265625 c 0
 478.067382812 30.923828125 377.186523438 -56 256 -56 c 0
 189.551757812 -56 129.208984375 -29.8642578125 84.6845703125 12.6845703125 c 1
 48.9697265625 -23.0302734375 l 2
 33.8505859375 -38.1494140625 8 -27.44140625 8 -6.05859375 c 2
 8 128 l 2
 8 141.254882812 18.7451171875 152 32 152 c 2
EndSplineSet
Validated: 33
EndChar

StartChar: Acircumflex
Encoding: 194 194 50
Width: 256
Flags: W
VStem: 88 80<102.059 415.965>
LayerCount: 2
Fore
SplineSet
168 102.05859375 m 1
 214.057617188 102.05859375 l 2
 235.440429688 102.05859375 246.1484375 76.20703125 231.029296875 61.087890625 c 2
 144.969726562 -24.970703125 l 2
 135.59765625 -34.34375 120.40234375 -34.34375 111.029296875 -24.970703125 c 2
 24.9697265625 61.087890625 l 2
 9.8505859375 76.2080078125 20.55859375 102.05859375 41.94140625 102.05859375 c 2
 88 102.05859375 l 1
 88 404 l 2
 88 410.626953125 93.373046875 416 100 416 c 2
 156 416 l 2
 162.626953125 416 168 410.626953125 168 404 c 2
 168 102.05859375 l 1
EndSplineSet
Validated: 33
EndChar

StartChar: Atilde
Encoding: 195 195 51
Width: 448
Flags: W
HStem: 152 80<134.059 447.965>
LayerCount: 2
Fore
SplineSet
134.05859375 152 m 1
 134.05859375 105.942382812 l 2
 134.05859375 84.5595703125 108.20703125 73.8515625 93.087890625 88.970703125 c 2
 7.029296875 175.030273438 l 2
 -2.34375 184.40234375 -2.34375 199.59765625 7.029296875 208.970703125 c 2
 93.087890625 295.030273438 l 2
 108.208007812 310.149414062 134.05859375 299.44140625 134.05859375 278.05859375 c 2
 134.05859375 232 l 1
 436 232 l 2
 442.626953125 232 448 226.626953125 448 220 c 2
 448 164 l 2
 448 157.373046875 442.626953125 152 436 152 c 2
 134.05859375 152 l 1
EndSplineSet
Validated: 33
EndChar

StartChar: Adieresis
Encoding: 196 196 52
Width: 448
Flags: W
HStem: 152 80<0.0349938 313.941>
LayerCount: 2
Fore
SplineSet
313.94140625 232 m 1
 313.94140625 278.057617188 l 2
 313.94140625 299.440429688 339.79296875 310.1484375 354.912109375 295.029296875 c 2
 440.970703125 208.969726562 l 2
 450.34375 199.59765625 450.34375 184.40234375 440.970703125 175.029296875 c 2
 354.912109375 88.9697265625 l 2
 339.791992188 73.8505859375 313.94140625 84.55859375 313.94140625 105.94140625 c 2
 313.94140625 152 l 1
 12 152 l 2
 5.373046875 152 0 157.373046875 0 164 c 2
 0 220 l 2
 0 226.626953125 5.373046875 232 12 232 c 2
 313.94140625 232 l 1
EndSplineSet
Validated: 33
EndChar

StartChar: Aring
Encoding: 197 197 53
Width: 256
Flags: W
VStem: 88 80<-31.965 281.941>
LayerCount: 2
Fore
SplineSet
88 281.94140625 m 1
 41.9423828125 281.94140625 l 2
 20.5595703125 281.94140625 9.8515625 307.79296875 24.970703125 322.912109375 c 2
 111.030273438 408.970703125 l 2
 120.40234375 418.34375 135.59765625 418.34375 144.970703125 408.970703125 c 2
 231.030273438 322.912109375 l 2
 246.149414062 307.791992188 235.44140625 281.94140625 214.05859375 281.94140625 c 2
 168 281.94140625 l 1
 168 -20 l 2
 168 -26.626953125 162.626953125 -32 156 -32 c 2
 100 -32 l 2
 93.373046875 -32 88 -26.626953125 88 -20 c 2
 88 281.94140625 l 1
EndSplineSet
Validated: 33
EndChar

StartChar: AE
Encoding: 198 198 54
Width: 448
Flags: W
LayerCount: 2
Fore
SplineSet
448 104 m 2
 448 -8 l 1
 448 -8.060546875 l 2
 448 -21.275390625 437.275390625 -32 424.060546875 -32 c 2
 424 -32 l 1
 312 -32 l 2
 290.610351562 -32 279.91015625 -6.099609375 295 9 c 2
 331.200195312 45.2001953125 l 1
 224 152.400390625 l 1
 116.76953125 45.099609375 l 1
 153 9 l 2
 168.08984375 -6.099609375 157.389648438 -32 136 -32 c 2
 24 -32 l 1
 23.939453125 -32 l 2
 10.724609375 -32 0 -21.275390625 0 -8.060546875 c 2
 0 -8 l 1
 0 104 l 2
 0 125.400390625 25.8896484375 136.099609375 41 121 c 2
 77.1904296875 84.7998046875 l 1
 184.459960938 192 l 1
 77.1796875 299.299804688 l 1
 41 263 l 2
 25.900390625 247.900390625 0 258.599609375 0 280 c 2
 0 392 l 1
 0 392.060546875 l 2
 0 405.275390625 10.724609375 416 23.939453125 416 c 2
 24 416 l 1
 136 416 l 2
 157.389648438 416 168.08984375 390.099609375 153 375 c 2
 116.799804688 338.799804688 l 1
 224 231.599609375 l 1
 331.23046875 338.900390625 l 1
 295 375 l 2
 279.91015625 390.099609375 290.610351562 416 312 416 c 2
 424 416 l 1
 424.060546875 416 l 2
 437.275390625 416 448 405.275390625 448 392.060546875 c 2
 448 392 l 1
 448 280 l 2
 448 258.599609375 422.110351562 247.900390625 407 263 c 2
 370.809570312 299.200195312 l 1
 263.540039062 192 l 1
 370.8203125 84.7001953125 l 1
 407 120.900390625 l 2
 422.099609375 136.099609375 448 125.400390625 448 104 c 2
EndSplineSet
Validated: 33
EndChar

StartChar: Ccedilla
Encoding: 199 199 55
Width: 512
Flags: W
HStem: 152 80<134.059 377.941>
LayerCount: 2
Fore
SplineSet
377.94140625 278.05859375 m 2
 377.94140625 299.44140625 403.79296875 310.149414062 418.912109375 295.029296875 c 2
 504.970703125 208.969726562 l 2
 514.34375 199.596679688 514.34375 184.40234375 504.970703125 175.029296875 c 2
 418.912109375 88.9697265625 l 2
 403.791992188 73.8505859375 377.94140625 84.55859375 377.94140625 105.94140625 c 2
 377.94140625 152 l 1
 134.05859375 152 l 1
 134.05859375 105.942382812 l 2
 134.05859375 84.5595703125 108.20703125 73.8515625 93.087890625 88.970703125 c 2
 7.029296875 175.030273438 l 2
 -2.34375 184.403320312 -2.34375 199.59765625 7.029296875 208.970703125 c 2
 93.087890625 295.030273438 l 2
 108.208007812 310.149414062 134.05859375 299.44140625 134.05859375 278.05859375 c 2
 134.05859375 232 l 1
 377.94140625 232 l 1
 377.94140625 278.05859375 l 2
EndSplineSet
Validated: 33
EndChar

StartChar: Egrave
Encoding: 200 200 56
Width: 256
Flags: W
VStem: 88 80<70.0586 313.941>
LayerCount: 2
Fore
SplineSet
214.05859375 70.05859375 m 2
 235.44140625 70.05859375 246.149414062 44.20703125 231.029296875 29.087890625 c 2
 144.969726562 -56.970703125 l 2
 135.596679688 -66.34375 120.40234375 -66.34375 111.029296875 -56.970703125 c 2
 24.9697265625 29.087890625 l 2
 9.8505859375 44.2080078125 20.55859375 70.05859375 41.94140625 70.05859375 c 2
 88 70.05859375 l 1
 88 313.94140625 l 1
 41.9423828125 313.94140625 l 2
 20.5595703125 313.94140625 9.8515625 339.79296875 24.970703125 354.912109375 c 2
 111.030273438 440.970703125 l 2
 120.403320312 450.34375 135.59765625 450.34375 144.970703125 440.970703125 c 2
 231.030273438 354.912109375 l 2
 246.149414062 339.791992188 235.44140625 313.94140625 214.05859375 313.94140625 c 2
 168 313.94140625 l 1
 168 70.05859375 l 1
 214.05859375 70.05859375 l 2
EndSplineSet
Validated: 33
EndChar

StartChar: Eacute
Encoding: 201 201 57
Width: 512
Flags: W
HStem: -64 64<64 384> 320 64<64 223.28>
VStem: 0 64<0 320> 384 64<0 127.28>
LayerCount: 2
Fore
SplineSet
432 128 m 2
 440.83203125 128 448 120.83203125 448 112 c 2
 448 -16 l 2
 448 -42.49609375 426.49609375 -64 400 -64 c 2
 48 -64 l 2
 21.50390625 -64 0 -42.49609375 0 -16 c 2
 0 336 l 2
 0 362.49609375 21.50390625 384 48 384 c 2
 208 384 l 2
 216.83203125 384 224 376.83203125 224 368 c 2
 224 336 l 2
 224 327.16796875 216.83203125 320 208 320 c 2
 64 320 l 1
 64 0 l 1
 384 0 l 1
 384 112 l 2
 384 120.83203125 391.16796875 128 400 128 c 2
 432 128 l 2
488 448 m 2
 501.248046875 448 512 437.248046875 512 424 c 2
 512 296 l 2
 512 274.5 486 264 471 279 c 2
 435.280273438 314.6796875 l 1
 191.669921875 71 l 2
 187.787109375 67.103515625 180.170898438 63.94140625 174.669921875 63.94140625 c 0
 169.168945312 63.94140625 161.552734375 67.103515625 157.669921875 71 c 2
 135 93.6298828125 l 2
 131.103515625 97.5126953125 127.94140625 105.12890625 127.94140625 110.629882812 c 0
 127.94140625 116.130859375 131.103515625 123.747070312 135 127.629882812 c 2
 378.73046875 371.26953125 l 1
 343 407 l 2
 327.950195312 422.08984375 338.629882812 448 360 448 c 2
 488 448 l 2
EndSplineSet
Validated: 33
EndChar

StartChar: Ecircumflex
Encoding: 202 202 58
Width: 320
Flags: W
HStem: 368 80<52.5391 152>
VStem: 152 80<96 368>
LayerCount: 2
Fore
SplineSet
313.552734375 55.6689453125 m 2
 209.586914062 -56.333984375 l 2
 200.1015625 -66.5478515625 183.911132812 -66.5634765625 174.413085938 -56.333984375 c 2
 70.4384765625 55.6689453125 l 2
 56.232421875 70.96875 67.0615234375 96 88.025390625 96 c 2
 152 96 l 1
 152 368 l 1
 68.0244140625 368 l 1
 68.0224609375 368 l 2
 65.279296875 368 61.478515625 369.575195312 59.5390625 371.514648438 c 2
 3.5390625 427.514648438 l 2
 -4.021484375 435.07421875 1.3330078125 448 12.0244140625 448 c 2
 208 448 l 2
 221.254882812 448 232 437.254882812 232 424 c 2
 232 96 l 1
 295.965820312 96 l 2
 316.84375 96 327.817382812 71.03125 313.552734375 55.6689453125 c 2
EndSplineSet
Validated: 33
EndChar

StartChar: Edieresis
Encoding: 203 203 59
Width: 320
Flags: W
HStem: -64 80<52.5391 152>
VStem: 152 80<16 288>
LayerCount: 2
Fore
SplineSet
313.552734375 328.331054688 m 2
 327.817382812 312.96875 316.84375 288 295.965820312 288 c 2
 232 288 l 1
 232 -40 l 2
 232 -53.2548828125 221.254882812 -64 208 -64 c 2
 12.0244140625 -64 l 2
 1.3330078125 -64 -4.021484375 -51.07421875 3.5390625 -43.5146484375 c 2
 59.5390625 12.4853515625 l 2
 61.478515625 14.4248046875 65.279296875 16 68.0224609375 16 c 2
 68.0244140625 16 l 1
 152 16 l 1
 152 288 l 1
 88.025390625 288 l 2
 67.0615234375 288 56.232421875 313.03125 70.4384765625 328.331054688 c 2
 174.413085938 440.333984375 l 2
 183.911132812 450.563476562 200.1015625 450.547851562 209.586914062 440.333984375 c 2
 313.552734375 328.331054688 l 2
EndSplineSet
Validated: 33
EndChar

StartChar: Igrave
Encoding: 204 204 60
Width: 448
Flags: W
LayerCount: 2
Fore
SplineSet
4.685546875 20.685546875 m 2
 104 120 l 1
 71.078125 151.029296875 l 2
 55.9580078125 166.149414062 66.666015625 192 88.0478515625 192 c 2
 200.047851562 192 l 2
 213.302734375 192 224 181.254882812 224 168 c 2
 224 56 l 2
 224 34.6181640625 198.197265625 23.91015625 183.078125 39.029296875 c 2
 152 72 l 1
 52.685546875 -27.314453125 l 2
 46.4384765625 -33.5615234375 36.306640625 -33.5615234375 30.05859375 -27.314453125 c 2
 4.685546875 -1.94140625 l 2
 -1.5615234375 4.306640625 -1.5615234375 14.4384765625 4.685546875 20.685546875 c 2
443.314453125 363.314453125 m 2
 344 264 l 1
 376.921875 232.970703125 l 2
 392.041992188 217.850585938 381.333984375 192 359.952148438 192 c 2
 247.952148438 192 l 2
 234.697265625 192 224 202.745117188 224 216 c 2
 224 328 l 2
 224 349.381835938 249.802734375 360.08984375 264.921875 344.970703125 c 2
 296 312 l 1
 395.314453125 411.314453125 l 2
 401.561523438 417.561523438 411.693359375 417.561523438 417.94140625 411.314453125 c 2
 443.314453125 385.94140625 l 2
 449.561523438 379.693359375 449.561523438 369.561523438 443.314453125 363.314453125 c 2
EndSplineSet
Validated: 33
EndChar

StartChar: Iacute
Encoding: 205 205 61
Width: 448
Flags: W
LayerCount: 2
Fore
SplineSet
212.685546875 132.685546875 m 2
 120 40 l 1
 152.921875 8.970703125 l 2
 168.041992188 -6.1494140625 157.333984375 -32 135.952148438 -32 c 2
 23.9521484375 -32 l 2
 10.697265625 -32 0 -21.2548828125 0 -8 c 2
 0 104 l 2
 0 125.381835938 25.802734375 136.08984375 40.921875 120.970703125 c 2
 72 88 l 1
 164.685546875 180.685546875 l 2
 170.93359375 186.93359375 181.065429688 186.93359375 187.313476562 180.685546875 c 2
 212.685546875 155.313476562 l 2
 218.934570312 149.065429688 218.934570312 138.934570312 212.685546875 132.685546875 c 2
235.314453125 251.314453125 m 2
 328 344 l 1
 295.078125 375.029296875 l 2
 279.958007812 390.149414062 290.666015625 416 312.047851562 416 c 2
 424.047851562 416 l 2
 437.302734375 416 448 405.254882812 448 392 c 2
 448 280 l 2
 448 258.618164062 422.197265625 247.91015625 407.078125 263.029296875 c 2
 376 296 l 1
 283.314453125 203.314453125 l 2
 277.06640625 197.06640625 266.934570312 197.06640625 260.686523438 203.314453125 c 2
 235.314453125 228.686523438 l 2
 229.065429688 234.934570312 229.065429688 245.065429688 235.314453125 251.314453125 c 2
EndSplineSet
Validated: 33
EndChar

StartChar: Icircumflex
Encoding: 206 206 62
Width: 512
Flags: W
HStem: -56 80<198.95 314.631> 359.994 80.0059<200.472 316.5>
VStem: 8 80.0059<135.991 247.969>
LayerCount: 2
Fore
SplineSet
256.455078125 440 m 0
 322.723632812 439.880859375 382.891601562 413.766601562 427.314453125 371.315429688 c 1
 463.029296875 407.030273438 l 2
 478.149414062 422.149414062 504 411.44140625 504 390.05859375 c 2
 504 256 l 2
 504 242.745117188 493.254882812 232 480 232 c 2
 345.94140625 232 l 2
 324.55859375 232 313.850585938 257.850585938 328.969726562 272.970703125 c 2
 370.719726562 314.720703125 l 1
 339.856445312 343.620117188 299.918945312 359.627929688 257.490234375 359.994140625 c 0
 165.091796875 360.791992188 87.20703125 286.016601562 88.005859375 190.551757812 c 0
 88.763671875 99.9912109375 162.18359375 24 256 24 c 0
 297.126953125 24 335.997070312 38.677734375 366.62890625 65.5556640625 c 0
 371.372070312 69.716796875 378.53515625 69.4638671875 382.997070312 65.0029296875 c 2
 422.659179688 25.3408203125 l 2
 427.53125 20.46875 427.290039062 12.5263671875 422.176757812 7.908203125 c 0
 378.202148438 -31.8134765625 319.92578125 -56 256 -56 c 0
 119.034179688 -56 8.0009765625 55.033203125 8 191.998046875 c 0
 7.9990234375 328.806640625 119.646484375 440.245117188 256.455078125 440 c 0
EndSplineSet
Validated: 33
EndChar

StartChar: Eth
Encoding: 208 208 64
Width: 640
Flags: W
HStem: 14.4004 57.7998<417.55 450.994 604.906 638.35> 313.3 57.7998<417.55 450.994 604.906 638.35>
VStem: 158 115.6<-23.7566 34.0281 353.207 410.959>
LayerCount: 2
Fore
SplineSet
512.099609375 257 m 1
 503.900390625 242.700195312 l 2
 500.900390625 237.400390625 494.5 235.200195312 488.799804688 237.299804688 c 0
 477 241.700195312 466.200195312 248 456.700195312 255.900390625 c 0
 452.099609375 259.700195312 450.900390625 266.400390625 453.900390625 271.599609375 c 2
 462.099609375 285.900390625 l 1
 455.200195312 293.900390625 449.799804688 303.200195312 446.200195312 313.299804688 c 1
 429.700195312 313.299804688 l 2
 423.700195312 313.299804688 418.5 317.599609375 417.5 323.599609375 c 0
 415.5 335.599609375 415.400390625 348.200195312 417.5 360.700195312 c 0
 418.5 366.700195312 423.700195312 371.099609375 429.700195312 371.099609375 c 2
 446.200195312 371.099609375 l 1
 449.799804688 381.200195312 455.200195312 390.5 462.099609375 398.5 c 1
 453.900390625 412.799804688 l 2
 450.900390625 418 452 424.700195312 456.700195312 428.5 c 0
 466.200195312 436.400390625 477.099609375 442.700195312 488.799804688 447.099609375 c 0
 494.5 449.200195312 500.900390625 447 503.900390625 441.700195312 c 2
 512.099609375 427.400390625 l 1
 522.599609375 429.299804688 533.299804688 429.299804688 543.799804688 427.400390625 c 1
 552 441.700195312 l 2
 555 447 561.400390625 449.200195312 567.099609375 447.099609375 c 0
 578.900390625 442.700195312 589.700195312 436.400390625 599.200195312 428.5 c 0
 603.799804688 424.700195312 605 418 602 412.799804688 c 2
 593.799804688 398.5 l 1
 600.700195312 390.5 606.099609375 381.200195312 609.700195312 371.099609375 c 1
 626.200195312 371.099609375 l 2
 632.200195312 371.099609375 637.400390625 366.799804688 638.400390625 360.799804688 c 0
 640.400390625 348.799804688 640.5 336.200195312 638.400390625 323.700195312 c 0
 637.400390625 317.700195312 632.200195312 313.299804688 626.200195312 313.299804688 c 2
 609.700195312 313.299804688 l 1
 606.099609375 303.200195312 600.700195312 293.900390625 593.799804688 285.900390625 c 1
 602 271.599609375 l 2
 605 266.400390625 603.900390625 259.700195312 599.200195312 255.900390625 c 0
 589.700195312 248 578.799804688 241.700195312 567.099609375 237.299804688 c 0
 561.400390625 235.200195312 555 237.400390625 552 242.700195312 c 2
 543.799804688 257 l 1
 533.400390625 255.099609375 522.599609375 255.099609375 512.099609375 257 c 1
501.599609375 315.799804688 m 1
 540.099609375 286.200195312 584 330.099609375 554.400390625 368.599609375 c 1
 515.900390625 398.299804688 472 354.299804688 501.599609375 315.799804688 c 1
386.299804688 161.900390625 m 1
 420 145.099609375 l 2
 430.099609375 139.299804688 434.5 127 430.5 116 c 0
 421.599609375 91.7998046875 404.099609375 69.599609375 387.900390625 50.2001953125 c 0
 380.5 41.2998046875 367.700195312 39.099609375 357.599609375 44.900390625 c 2
 328.5 61.7001953125 l 1
 312.5 48 293.900390625 37.099609375 273.599609375 30 c 1
 273.599609375 -3.599609375 l 2
 273.599609375 -15.2001953125 265.299804688 -25.2001953125 253.900390625 -27.2001953125 c 0
 229.299804688 -31.400390625 203.5 -31.599609375 178 -27.2001953125 c 0
 166.5 -25.2001953125 158 -15.2998046875 158 -3.599609375 c 2
 158 30 l 1
 137.700195312 37.2001953125 119.099609375 48 103.099609375 61.7001953125 c 1
 74 45 l 2
 64 39.2001953125 51.099609375 41.400390625 43.7001953125 50.2998046875 c 0
 27.5 69.7001953125 10.400390625 91.900390625 1.5 116 c 0
 -2.5 126.900390625 1.900390625 139.200195312 12 145.099609375 c 2
 45.2998046875 161.900390625 l 1
 41.400390625 182.799804688 41.400390625 204.299804688 45.2998046875 225.299804688 c 1
 12 242.200195312 l 2
 1.900390625 248 -2.599609375 260.299804688 1.5 271.200195312 c 0
 10.400390625 295.400390625 27.5 317.599609375 43.7001953125 337 c 0
 51.099609375 345.900390625 63.900390625 348.099609375 74 342.299804688 c 2
 103.099609375 325.5 l 1
 119.099609375 339.200195312 137.700195312 350.099609375 158 357.200195312 c 1
 158 390.900390625 l 2
 158 402.400390625 166.200195312 412.400390625 177.599609375 414.400390625 c 0
 202.200195312 418.599609375 228.099609375 418.799804688 253.599609375 414.5 c 0
 265.099609375 412.5 273.599609375 402.599609375 273.599609375 390.900390625 c 2
 273.599609375 357.299804688 l 1
 293.900390625 350.099609375 312.5 339.299804688 328.5 325.599609375 c 1
 357.599609375 342.400390625 l 2
 367.599609375 348.200195312 380.5 346 387.900390625 337.099609375 c 0
 404.099609375 317.700195312 421.099609375 295.5 430 271.299804688 c 0
 434 260.400390625 430.099609375 248.099609375 420 242.200195312 c 2
 386.299804688 225.400390625 l 1
 390.200195312 204.400390625 390.200195312 182.900390625 386.299804688 161.900390625 c 1
268.700195312 140.799804688 m 1
 327.900390625 217.799804688 240 305.700195312 163 246.5 c 1
 103.799804688 169.5 191.700195312 81.599609375 268.700195312 140.799804688 c 1
512.099609375 -41.900390625 m 1
 503.900390625 -56.2001953125 l 2
 500.900390625 -61.5 494.5 -63.7001953125 488.799804688 -61.599609375 c 0
 477 -57.2001953125 466.200195312 -50.900390625 456.700195312 -43 c 0
 452.099609375 -39.2001953125 450.900390625 -32.5 453.900390625 -27.2998046875 c 2
 462.099609375 -13 l 1
 455.200195312 -5 449.799804688 4.2998046875 446.200195312 14.400390625 c 1
 429.700195312 14.400390625 l 2
 423.700195312 14.400390625 418.5 18.7001953125 417.5 24.7001953125 c 0
 415.5 36.7001953125 415.400390625 49.2998046875 417.5 61.7998046875 c 0
 418.5 67.7998046875 423.700195312 72.2001953125 429.700195312 72.2001953125 c 2
 446.200195312 72.2001953125 l 1
 449.799804688 82.2998046875 455.200195312 91.599609375 462.099609375 99.599609375 c 1
 453.900390625 113.900390625 l 2
 450.900390625 119.099609375 452 125.799804688 456.700195312 129.599609375 c 0
 466.200195312 137.5 477.099609375 143.799804688 488.799804688 148.200195312 c 0
 494.5 150.299804688 500.900390625 148.099609375 503.900390625 142.799804688 c 2
 512.099609375 128.5 l 1
 522.599609375 130.400390625 533.299804688 130.400390625 543.799804688 128.5 c 1
 552 142.799804688 l 2
 555 148.099609375 561.400390625 150.299804688 567.099609375 148.200195312 c 0
 578.900390625 143.799804688 589.700195312 137.5 599.200195312 129.599609375 c 0
 603.799804688 125.799804688 605 119.099609375 602 113.900390625 c 2
 593.799804688 99.599609375 l 1
 600.700195312 91.599609375 606.099609375 82.2998046875 609.700195312 72.2001953125 c 1
 626.200195312 72.2001953125 l 2
 632.200195312 72.2001953125 637.400390625 67.900390625 638.400390625 61.900390625 c 0
 640.400390625 49.900390625 640.5 37.2998046875 638.400390625 24.7998046875 c 0
 637.400390625 18.7998046875 632.200195312 14.400390625 626.200195312 14.400390625 c 2
 609.700195312 14.400390625 l 1
 606.099609375 4.2998046875 600.700195312 -5 593.799804688 -13 c 1
 602 -27.2998046875 l 2
 605 -32.5 603.900390625 -39.2001953125 599.200195312 -43 c 0
 589.700195312 -50.900390625 578.799804688 -57.2001953125 567.099609375 -61.599609375 c 0
 561.400390625 -63.7001953125 555 -61.5 552 -56.2001953125 c 2
 543.799804688 -41.900390625 l 1
 533.400390625 -43.7998046875 522.599609375 -43.7998046875 512.099609375 -41.900390625 c 1
501.599609375 17 m 1
 540.099609375 -12.599609375 584 31.2998046875 554.400390625 69.7998046875 c 1
 515.900390625 99.400390625 472 55.5 501.599609375 17 c 1
EndSplineSet
Validated: 33
EndChar

StartChar: Ntilde
Encoding: 209 209 65
Width: 640
Flags: W
HStem: -64 48<224.719 296 344 415.281> 223.99 32<330.94 416> 287.99 32<320 416>
VStem: 296 48<-16 19.4853> 448 48<142.523 255.281>
LayerCount: 2
Fore
SplineSet
633.8203125 -10.099609375 m 2
 640.799804688 -15.5302734375 642.049804688 -25.580078125 636.639648438 -32.5498046875 c 2
 617 -57.8203125 l 2
 611.5703125 -64.7998046875 601.51953125 -66.0595703125 594.540039062 -60.6298828125 c 2
 6.1796875 394.099609375 l 2
 -0.7998046875 399.530273438 -2.0498046875 409.580078125 3.3701171875 416.549804688 c 2
 23.009765625 441.8203125 l 2
 28.4296875 448.799804688 38.490234375 450.049804688 45.4697265625 444.629882812 c 2
 224 306.629882812 l 1
 224 351.990234375 l 2
 224 405.009765625 266.98046875 447.990234375 320 447.990234375 c 0
 373.01953125 447.990234375 416 405.009765625 416 351.990234375 c 1
 330.669921875 351.990234375 l 2
 324.780273438 351.990234375 320 348.41015625 320 343.990234375 c 2
 320 327.990234375 l 2
 320 323.5703125 324.780273438 319.990234375 330.669921875 319.990234375 c 2
 416 319.990234375 l 1
 416 287.990234375 l 1
 330.669921875 287.990234375 l 2
 324.780273438 287.990234375 320 284.41015625 320 279.990234375 c 2
 320 263.990234375 l 2
 320 259.5703125 324.780273438 255.990234375 330.669921875 255.990234375 c 2
 416 255.990234375 l 1
 416 223.990234375 l 1
 330.940429688 223.990234375 l 1
 372.33984375 191.990234375 l 1
 416.009765625 191.990234375 l 1
 416.009765625 181.540039062 413.830078125 171.719726562 410.73046875 162.3203125 c 1
 437.280273438 141.799804688 l 1
 444.040039062 157.200195312 448 174.080078125 448 192 c 2
 448 240 l 2
 448 248.83984375 455.16015625 256 464 256 c 2
 480 256 l 2
 488.83984375 256 496 248.83984375 496 240 c 2
 496 192 l 2
 496 163.01953125 488.740234375 135.790039062 476.259765625 111.669921875 c 1
 633.8203125 -10.099609375 l 2
400 -16 m 2
 408.83984375 -16 416 -23.16015625 416 -32 c 2
 416 -48 l 2
 416 -56.83984375 408.83984375 -64 400 -64 c 2
 240 -64 l 2
 231.16015625 -64 224 -56.83984375 224 -48 c 2
 224 -32 l 2
 224 -23.16015625 231.16015625 -16 240 -16 c 2
 296 -16 l 1
 296 18.150390625 l 1
 207.969726562 30.2900390625 144 110.200195312 144 199.83984375 c 2
 144 206.690429688 l 1
 196.030273438 166.469726562 l 1
 208.469726562 113.25 251.360351562 70.0703125 307.209960938 64.6201171875 c 0
 314.150390625 63.9501953125 320.849609375 64.419921875 327.559570312 64.8203125 c 1
 377.959960938 25.8603515625 l 1
 367.099609375 22.0595703125 355.709960938 19.400390625 344 17.7802734375 c 1
 344 -16 l 1
 400 -16 l 2
EndSplineSet
Validated: 33
EndChar

StartChar: Ograve
Encoding: 210 210 66
Width: 512
Flags: W
HStem: -64 48<140.403 224 288 371.597> 400 48<68.2402 443.77>
VStem: 224 64<-16 176.36>
LayerCount: 2
Fore
SplineSet
502.049804688 390.400390625 m 2
 288 176.360351562 l 1
 288 -16 l 1
 344 -16 l 2
 366.08984375 -16 384 -33.91015625 384 -56 c 0
 384 -60.419921875 380.419921875 -64 376 -64 c 2
 136 -64 l 2
 131.580078125 -64 128 -60.419921875 128 -56 c 0
 128 -33.91015625 145.91015625 -16 168 -16 c 2
 224 -16 l 1
 224 176.360351562 l 1
 9.9501953125 390.400390625 l 2
 -11.2998046875 411.66015625 3.75 448 33.7998046875 448 c 2
 478.200195312 448 l 2
 508.25 448 523.299804688 411.66015625 502.049804688 390.400390625 c 2
443.76953125 400 m 1
 68.240234375 400 l 1
 116.240234375 352 l 1
 395.76953125 352 l 1
 443.76953125 400 l 1
EndSplineSet
Validated: 33
EndChar

StartChar: Oacute
Encoding: 211 211 67
Width: 640
Flags: W
HStem: -64 128<177.468 238.532 465.468 526.532> 0 64<128 162.94 253.06 450.94 541.06 639.281> 128 224<199.804 256 336 432 512 568.196> 384 64<0.719047 64> 400 48<336 432>
VStem: 64 64<64 384> 160 96<-46.5325 -0.236014> 192 64<135.804 344.196> 288 48<352 400> 432 48<352 400> 448 96<-46.5325 -0.236014> 512 64<135.804 344.196>
LayerCount: 2
Fore
SplineSet
224 128 m 2x2580
 206.330078125 128 192 142.330078125 192 160 c 2
 192 320 l 2
 192 337.669921875 206.330078125 352 224 352 c 2
 256 352 l 1
 256 128 l 1
 224 128 l 2x2580
576 160 m 2x2490
 576 142.330078125 561.669921875 128 544 128 c 2x24a0
 512 128 l 1
 512 352 l 1x2490
 544 352 l 2x24a0
 561.669921875 352 576 337.669921875 576 320 c 2
 576 160 l 2x2490
624 64 m 2x6ea0
 632.83984375 64 640 56.83984375 640 48 c 2
 640 16 l 2
 640 7.16015625 632.83984375 0 624 0 c 2
 541.059570312 0 l 1x6ea0
 542.849609375 -5.0302734375 544 -10.3603515625 544 -16 c 0
 544 -42.509765625 522.509765625 -64 496 -64 c 0xa6a0
 469.490234375 -64 448 -42.509765625 448 -16 c 0
 448 -10.3603515625 449.150390625 -5.0302734375 450.940429688 0 c 1
 253.059570312 0 l 1x66a0
 254.849609375 -5.0302734375 256 -10.3603515625 256 -16 c 0
 256 -42.509765625 234.509765625 -64 208 -64 c 0xa6a0
 181.490234375 -64 160 -42.509765625 160 -16 c 0
 160 -10.3603515625 161.150390625 -5.0302734375 162.940429688 0 c 1
 80 0 l 2
 71.16015625 0 64 7.16015625 64 16 c 2
 64 384 l 1
 16 384 l 2x76a0
 7.16015625 384 0 391.16015625 0 400 c 2x2ea0
 0 432 l 2
 0 440.83984375 7.16015625 448 16 448 c 2x36a0
 112 448 l 2
 120.83984375 448 128 440.83984375 128 432 c 2
 128 64 l 1
 624 64 l 2x6ea0
480 352 m 1x2cc0
 480 128 l 1
 288 128 l 1
 288 400 l 2
 288 426.509765625 309.490234375 448 336 448 c 2
 432 448 l 2
 458.509765625 448 480 426.509765625 480 400 c 2
 480 352 l 1x2cc0
432 352 m 1
 432 400 l 1
 336 400 l 1
 336 352 l 1
 432 352 l 1
EndSplineSet
Validated: 1
EndChar

StartChar: Ocircumflex
Encoding: 212 212 68
Width: 576
Flags: W
VStem: 0 160<0 226.017> 162 252<279.604 373.854> 416 160<-2.01799 224>
CounterMasks: 1 e0
LayerCount: 2
Fore
SplineSet
288 448 m 0
 357.58984375 448 414 391.58984375 414 322 c 0
 414 265.740234375 331.650390625 163.200195312 300.099609375 125.98046875 c 0
 293.719726562 118.440429688 282.290039062 118.440429688 275.900390625 125.98046875 c 0
 244.349609375 163.200195312 162 265.740234375 162 322 c 0
 162 391.58984375 218.41015625 448 288 448 c 0
20.1201171875 232.049804688 m 2
 138.75 279.5 l 1
 143.9296875 264.620117188 151.16015625 249.059570312 160 233.080078125 c 1
 160 0 l 1
 21.9404296875 -62.83984375 l 2
 11.4296875 -67.0400390625 0 -59.2998046875 0 -47.98046875 c 2
 0 202.33984375 l 2
 0.0029296875 214.298828125 9.0166015625 227.608398438 20.1201171875 232.049804688 c 2
288 88.330078125 m 0
 302.0703125 88.330078125 315.379882812 94.509765625 324.509765625 105.280273438 c 0
 344.1796875 128.48046875 365.080078125 154.91015625 384 182 c 1
 384 -63.990234375 l 1
 192 0.009765625 l 1
 192 182.009765625 l 1
 210.919921875 154.91015625 231.830078125 128.490234375 251.490234375 105.290039062 c 0
 260.620117188 94.509765625 273.9296875 88.330078125 288 88.330078125 c 0
554.059570312 286.83984375 m 2
 564.5703125 291.040039062 576 283.299804688 576 271.98046875 c 2
 576 21.66015625 l 2
 576 9.69921875 566.986328125 -3.6103515625 555.879882812 -8.0498046875 c 2
 416 -64 l 1
 416 224 l 1
 554.059570312 286.83984375 l 2
EndSplineSet
Validated: 33
EndChar

StartChar: Otilde
Encoding: 213 213 69
Width: 576
Flags: W
HStem: 364 84<259.651 316.349>
VStem: 0 160<0 226.017> 162 84<294.794 350.349> 330 84<294.794 350.349> 416 160<-2.01799 224>
LayerCount: 2
Fore
SplineSet
288 448 m 0
 357.58984375 448 414 391.58984375 414 322 c 0
 414 265.740234375 331.650390625 163.200195312 300.099609375 125.98046875 c 0
 293.719726562 118.440429688 282.290039062 118.440429688 275.900390625 125.98046875 c 0
 244.349609375 163.200195312 162 265.740234375 162 322 c 0
 162 391.58984375 218.41015625 448 288 448 c 0
288 280 m 0
 311.200195312 280 330 298.799804688 330 322 c 0
 330 345.200195312 311.200195312 364 288 364 c 0
 264.799804688 364 246 345.200195312 246 322 c 0
 246 298.799804688 264.799804688 280 288 280 c 0
20.1201171875 232.049804688 m 2
 138.75 279.5 l 1
 143.9296875 264.620117188 151.16015625 249.059570312 160 233.080078125 c 1
 160 0 l 1
 21.9404296875 -62.83984375 l 2
 11.4296875 -67.0400390625 0 -59.2998046875 0 -47.98046875 c 2
 0 202.33984375 l 2
 0.0029296875 214.298828125 9.0166015625 227.608398438 20.1201171875 232.049804688 c 2
288 88.330078125 m 0
 302.0703125 88.330078125 315.379882812 94.509765625 324.509765625 105.280273438 c 0
 344.1796875 128.48046875 365.080078125 154.91015625 384 182 c 1
 384 -63.990234375 l 1
 192 0.009765625 l 1
 192 182.009765625 l 1
 210.919921875 154.91015625 231.830078125 128.490234375 251.490234375 105.290039062 c 0
 260.620117188 94.509765625 273.9296875 88.330078125 288 88.330078125 c 0
554.059570312 286.83984375 m 2
 564.5703125 291.040039062 576 283.299804688 576 271.98046875 c 2
 576 21.66015625 l 2
 576 9.69921875 566.986328125 -3.6103515625 555.879882812 -8.0498046875 c 2
 416 -64 l 1
 416 224 l 1
 554.059570312 286.83984375 l 2
EndSplineSet
Validated: 33
EndChar

StartChar: Odieresis
Encoding: 214 214 70
Width: 536
Flags: W
LayerCount: 2
Fore
SplineSet
508.549804688 276.490234375 m 2
 534.799804688 272.690429688 545.3203125 240.389648438 526.280273438 221.889648438 c 2
 420.370117188 118.91015625 l 1
 445.400390625 -26.580078125 l 2
 448.959960938 -47.3701171875 432.33984375 -63.98046875 413.740234375 -63.98046875 c 0
 408.830078125 -63.98046875 403.76953125 -62.8203125 398.91015625 -60.26953125 c 2
 267.969726562 8.4296875 l 1
 137.01953125 -60.25 l 2
 132.150390625 -62.830078125 127.080078125 -64 122.150390625 -64 c 0
 103.5703125 -64 86.98046875 -47.330078125 90.5400390625 -26.5498046875 c 2
 115.599609375 118.9296875 l 1
 9.7099609375 221.9296875 l 2
 -9.3203125 240.4296875 1.2001953125 272.719726562 27.4501953125 276.51953125 c 2
 173.830078125 297.809570312 l 1
 239.259765625 430.190429688 l 2
 245.16015625 442.099609375 256.549804688 448 267.950195312 448 c 0
 279.419921875 448 290.889648438 442.01953125 296.76953125 430.190429688 c 2
 362.1796875 297.799804688 l 1
 508.549804688 276.490234375 l 2
386.809570312 153.290039062 m 1
 469.459960938 233.669921875 l 1
 355.23046875 250.299804688 l 1
 330.219726562 253.940429688 l 1
 319.040039062 276.5703125 l 1
 268.009765625 379.860351562 l 1
 267.98046875 62.669921875 l 1
 290.360351562 50.9296875 l 1
 392.490234375 -2.66015625 l 1
 372.969726562 110.790039062 l 1
 368.690429688 135.669921875 l 1
 386.809570312 153.290039062 l 1
EndSplineSet
Validated: 33
EndChar

StartChar: multiply
Encoding: 215 215 71
Width: 512
Flags: W
HStem: -32 208<6.3999 136.85> 0 176<232.333 277.952> 240 176<234.048 277.952>
VStem: 0 96<184.436 230.738> 160 64<183.794 232.206> 288 64<183.794 232.206> 416 96<185.262 230.738>
LayerCount: 2
Fore
SplineSet
256 416 m 0xbe
 397.400390625 416 512 322.900390625 512 208 c 0
 512 93.099609375 397.400390625 0 256 0 c 0x7e
 217.599609375 0 181.299804688 7.099609375 148.599609375 19.400390625 c 1
 124 -0.2001953125 74.2998046875 -32 8 -32 c 0
 4.7998046875 -32 2 -30.2001953125 0.7001953125 -27.2001953125 c 0
 -0.599609375 -24.2001953125 0 -20.7998046875 2.2001953125 -18.5 c 0
 2.7001953125 -18 44.5 26.900390625 57 77.2998046875 c 1
 21.400390625 113 0 158.400390625 0 208 c 0
 0 322.900390625 114.599609375 416 256 416 c 0xbe
128 176 m 0xbe
 145.700195312 176 160 190.299804688 160 208 c 0
 160 225.700195312 145.700195312 240 128 240 c 0
 110.299804688 240 96 225.700195312 96 208 c 0
 96 190.299804688 110.299804688 176 128 176 c 0xbe
256 176 m 0x7e
 273.700195312 176 288 190.299804688 288 208 c 0
 288 225.700195312 273.700195312 240 256 240 c 0
 238.299804688 240 224 225.700195312 224 208 c 0
 224 190.299804688 238.299804688 176 256 176 c 0x7e
384 176 m 0
 401.700195312 176 416 190.299804688 416 208 c 0
 416 225.700195312 401.700195312 240 384 240 c 0
 366.299804688 240 352 225.700195312 352 208 c 0
 352 190.299804688 366.299804688 176 384 176 c 0
EndSplineSet
Validated: 1
EndChar

StartChar: Oslash
Encoding: 216 216 72
Width: 640
Flags: W
LayerCount: 2
Fore
SplineSet
64 208 m 0
 64 226.599609375 67.2998046875 244.5 72.900390625 261.599609375 c 1
 398.400390625 10 l 1
 373.700195312 3.599609375 347.400390625 0 320 0 c 0
 281.599609375 0 245.299804688 7.099609375 212.599609375 19.400390625 c 1
 188 -0.2001953125 138.299804688 -32 72 -32 c 0
 68.7998046875 -32 66 -30.099609375 64.7001953125 -27.2001953125 c 0
 63.400390625 -24.2001953125 64 -20.7998046875 66.2001953125 -18.5 c 0
 66.7001953125 -17.900390625 108.400390625 27 121 77.2998046875 c 1
 85.400390625 113 64 158.400390625 64 208 c 0
633.799804688 -10.099609375 m 2
 640.799804688 -15.5 642.099609375 -25.599609375 636.700195312 -32.400390625 c 2
 617.099609375 -57.7001953125 l 2
 611.599609375 -64.7001953125 601.599609375 -65.900390625 594.599609375 -60.5 c 2
 6.2001953125 394.200195312 l 2
 -0.7998046875 399.599609375 -2 409.599609375 3.400390625 416.599609375 c 2
 23 441.799804688 l 2
 28.5 448.799804688 38.5 450 45.5 444.599609375 c 2
 150.599609375 363.299804688 l 1
 195.799804688 395.900390625 254.900390625 416 320 416 c 0
 461.400390625 416 576 322.900390625 576 208 c 0
 576 158.799804688 554.599609375 113.900390625 519.400390625 78.2998046875 c 1
 633.799804688 -10.099609375 l 2
EndSplineSet
Validated: 33
EndChar

StartChar: Ugrave
Encoding: 217 217 73
Width: 640
Flags: W
HStem: 128.1 191.9<224.898 415.102> 352 96<97.4716 158.528 481.472 542.528>
VStem: 80 96<369.472 430.528> 464 96<369.472 430.528>
LayerCount: 2
Fore
SplineSet
128 352 m 0
 101.5 352 80 373.5 80 400 c 0
 80 426.5 101.5 448 128 448 c 0
 154.5 448 176 426.5 176 400 c 0
 176 373.5 154.5 352 128 352 c 0
512 352 m 0
 485.5 352 464 373.5 464 400 c 0
 464 426.5 485.5 448 512 448 c 0
 538.5 448 560 426.5 560 400 c 0
 560 373.5 538.5 352 512 352 c 0
637.700195312 -20.099609375 m 2
 644.299804688 -36.5 636.299804688 -55.099609375 619.900390625 -61.7001953125 c 0
 616 -63.2998046875 612 -64 608 -64 c 0
 595.299804688 -64 583.299804688 -56.400390625 578.299804688 -43.900390625 c 2
 550.599609375 25.2998046875 l 1
 552.599609375 43.5 l 1
 593.700195312 89.900390625 l 1
 637.700195312 -20.099609375 l 2
603.5 189.700195312 m 2
 608.099609375 169.700195312 602.700195312 148.5 589.099609375 133 c 2
 521.900390625 57.099609375 l 1
 511.799804688 -35.5 l 2
 510 -51.900390625 496.099609375 -64 480 -64 c 0
 478.799804688 -64 477.700195312 -63.900390625 476.5 -63.7998046875 c 0
 459 -61.900390625 446.299804688 -46.099609375 448.200195312 -28.5 c 2
 458.299804688 64.2998046875 l 2
 459.799804688 77.2998046875 465.200195312 89.400390625 473.900390625 99.2998046875 c 2
 517.200195312 148.299804688 l 1
 499.599609375 218.599609375 l 1
 492.799804688 198.200195312 l 2
 488.700195312 185.599609375 480.900390625 174.799804688 468.299804688 165.599609375 c 2
 417.200195312 133.099609375 l 2
 412.599609375 130.200195312 405.099609375 128.5 400 128.099609375 c 2
 240 128.099609375 l 2
 234.900390625 128.5 227.400390625 130.200195312 222.799804688 133.099609375 c 2
 171.700195312 165.599609375 l 2
 159.099609375 174.799804688 151.299804688 185.700195312 147.200195312 198.200195312 c 2
 140.400390625 218.599609375 l 1
 122.799804688 148.299804688 l 1
 166.099609375 99.2998046875 l 2
 174.799804688 89.400390625 180.200195312 77.2998046875 181.700195312 64.2998046875 c 2
 191.799804688 -28.5 l 2
 193.700195312 -46.099609375 181.099609375 -61.900390625 163.5 -63.7998046875 c 0
 162.299804688 -63.900390625 161.200195312 -64 160 -64 c 0
 143.799804688 -64 130 -51.7998046875 128.200195312 -35.5 c 2
 118.099609375 57.099609375 l 1
 50.900390625 133 l 2
 37.2001953125 148.5 31.900390625 169.700195312 36.5 189.700195312 c 2
 54.900390625 269.900390625 l 2
 59.5 289.900390625 73.5 306.700195312 92.400390625 314.799804688 c 0
 110.900390625 322.799804688 131.299804688 321.5 148.5 311.5 c 0
 171.200195312 298.099609375 188.299804688 277.099609375 196.599609375 252.099609375 c 2
 207.900390625 218.200195312 l 1
 224 208 l 1
 224 304 l 2
 224 312.799804688 231.200195312 320 240 320 c 2
 400 320 l 2
 408.799804688 320 416 312.799804688 416 304 c 2
 416 208 l 1
 432 218.200195312 l 1
 443.299804688 252.099609375 l 2
 451.700195312 277 468.700195312 298.099609375 491.400390625 311.5 c 0
 508.5 321.5 529 322.799804688 547.5 314.799804688 c 0
 566.400390625 306.700195312 580.400390625 289.900390625 585 269.900390625 c 2
 603.5 189.700195312 l 2
46.2998046875 89.900390625 m 1
 87.400390625 43.5 l 1
 89.400390625 25.2998046875 l 1
 61.7001953125 -43.900390625 l 2
 55.2001953125 -60 36.900390625 -68.2998046875 20.099609375 -61.7001953125 c 0
 3.7001953125 -55.099609375 -4.2998046875 -36.5 2.2998046875 -20.099609375 c 2
 46.2998046875 89.900390625 l 1
EndSplineSet
Validated: 33
EndChar

StartChar: Uacute
Encoding: 218 218 74
Width: 512
Flags: W
HStem: -64 64<183.239 439.952> 64 64<296.048 439.952> 128 64<71.9044 120.096> 192 64<296.048 365.3> 384 64<391.904 440.096>
VStem: 0 64<72.8512 120.096> 128 64<72.8512 120.096> 224 64<135.938 184.062> 320 64<327.865 376.096> 448 64<7.93792 56.0621 328.851 376.096>
LayerCount: 2
Fore
SplineSet
416 128 m 2xdfc0
 468.900390625 128 512 84.900390625 512 32 c 0
 512 -20.900390625 468.900390625 -64 416 -64 c 2
 138.200195312 -64 l 1
 151.700195312 -47.7001953125 169.5 -24.7998046875 185.5 0 c 1
 416 0 l 2
 433.599609375 0 448 14.400390625 448 32 c 0
 448 49.599609375 433.599609375 64 416 64 c 2
 320 64 l 2
 267.099609375 64 224 107.099609375 224 160 c 0
 224 212.900390625 267.099609375 256 320 256 c 2
 365.299804688 256 l 1
 342.200195312 288.599609375 320 326.5 320 352 c 0
 320 405 363 448 416 448 c 0
 469 448 512 405 512 352 c 0
 512 299 416 192 416 192 c 1
 320 192 l 2
 302.400390625 192 288 177.599609375 288 160 c 0
 288 142.400390625 302.400390625 128 320 128 c 2
 416 128 l 2xdfc0
416 384 m 0
 398.299804688 384 384 369.700195312 384 352 c 0
 384 334.299804688 398.299804688 320 416 320 c 0
 433.700195312 320 448 334.299804688 448 352 c 0
 448 369.700195312 433.700195312 384 416 384 c 0
96 192 m 0xafc0
 149 192 192 149 192 96 c 0
 192 43 96 -64 96 -64 c 1
 96 -64 0 43 0 96 c 0
 0 149 43 192 96 192 c 0xafc0
96 64 m 0xcfc0
 113.700195312 64 128 78.2998046875 128 96 c 0
 128 113.700195312 113.700195312 128 96 128 c 0xafc0
 78.2998046875 128 64 113.700195312 64 96 c 0
 64 78.2998046875 78.2998046875 64 96 64 c 0xcfc0
EndSplineSet
Validated: 1
EndChar

StartChar: Ucircumflex
Encoding: 219 219 75
Width: 640
Flags: W
VStem: 448 160<133.5 270.7>
LayerCount: 2
Fore
SplineSet
633.799804688 -10.099609375 m 2
 640.799804688 -15.5 642.099609375 -25.599609375 636.599609375 -32.5 c 2
 617 -57.7998046875 l 2
 611.5 -64.7998046875 601.5 -66 594.5 -60.599609375 c 2
 416 77.400390625 l 1
 42.7001953125 366 l 1
 6.2001953125 394.200195312 l 2
 -0.7998046875 399.599609375 -2 409.599609375 3.400390625 416.599609375 c 2
 23 441.799804688 l 2
 28.5 448.799804688 38.5 450 45.5 444.599609375 c 2
 123.900390625 384 l 1
 368.200195312 384 l 2
 394.599609375 384 416 362.599609375 416 336.200195312 c 2
 416 158.200195312 l 1
 448 133.5 l 1
 448 270.700195312 l 1
 557.599609375 346.299804688 l 2
 578.900390625 360.900390625 608 346 608 320.5 c 2
 608 63.5 l 2
 608 46.099609375 594.200195312 33.7998046875 578.799804688 32.400390625 c 1
 633.799804688 -10.099609375 l 2
32 47.7998046875 m 2
 32 293.299804688 l 1
 397.799804688 10.5 l 1
 389.599609375 4 379.400390625 0 368.200195312 0 c 2
 79.7998046875 0 l 2
 53.400390625 0 32 21.400390625 32 47.7998046875 c 2
EndSplineSet
Validated: 33
EndChar

StartChar: Udieresis
Encoding: 220 220 76
Width: 512
Flags: W
HStem: -64 96.001<216.447 295.538>
VStem: 0 55.1855<150.643 180.399> 456.813 55.1865<150.643 180.399>
LayerCount: 2
Fore
SplineSet
512 -16 m 2
 512 -42.509765625 490.509765625 -64 464 -64 c 2
 48 -64 l 2
 21.490234375 -64 0 -42.509765625 0 -16 c 2
 0 247.276367188 l 2
 0 260.171875 8.2373046875 277.095703125 18.38671875 285.051757812 c 0
 43.2998046875 304.581054688 63.8876953125 320.416992188 182.586914062 406.563476562 c 0
 199.412109375 418.830078125 232.796875 448.346679688 256 447.997070312 c 0
 279.198242188 448.350585938 312.595703125 418.825195312 329.413085938 406.564453125 c 0
 448.099609375 320.426757812 468.715820312 304.569335938 493.61328125 285.051757812 c 0
 503.762695312 277.095703125 512 260.171875 512 247.276367188 c 2
 512 -16 l 2
446.333984375 180.60546875 m 2
 443.771484375 184.333007812 438.633789062 185.200195312 434.995117188 182.51171875 c 0
 412.150390625 165.638671875 379.533203125 141.806640625 329.413085938 105.432617188 c 0
 312.587890625 93.1669921875 279.203125 63.65234375 256 64.0029296875 c 0
 232.7890625 63.6591796875 199.44140625 93.146484375 182.586914062 105.432617188 c 0
 132.47265625 141.802734375 99.8525390625 165.63671875 77.0048828125 182.51171875 c 0
 73.3662109375 185.200195312 68.228515625 184.333007812 65.666015625 180.60546875 c 2
 56.59375 167.409179688 l 2
 55.81640625 166.278320312 55.185546875 164.248046875 55.185546875 162.875976562 c 0
 55.185546875 160.6484375 56.640625 157.765625 58.4326171875 156.442382812 c 0
 81.3203125 139.54296875 113.88671875 115.751953125 163.736328125 79.57421875 c 0
 184.009765625 64.79296875 220.259765625 31.7607421875 256 32.0009765625 c 0
 291.723632812 31.7587890625 327.9609375 64.7724609375 348.262695312 79.57421875 c 0
 398.11328125 115.752929688 430.680664062 139.543945312 453.56640625 156.442382812 c 0
 455.358398438 157.765625 456.813476562 160.6484375 456.813476562 162.875976562 c 0
 456.813476562 164.248046875 456.182617188 166.278320312 455.405273438 167.409179688 c 2
 446.333984375 180.60546875 l 2
EndSplineSet
Validated: 33
EndChar

StartChar: Yacute
Encoding: 221 221 77
Width: 576
Flags: W
HStem: -32 128<352 512> -32 64<67.2055 284.934> 88 40<140.256 211.757> 128 32<352 512> 192 32<352 512> 256 64<140.237 211.763 352 512> 352 64<17.4716 558.528>
VStem: 0 112<156.237 227.763> 512 64<96 128 160 192 224 256>
LayerCount: 2
Fore
SplineSet
528 416 m 2x0f80
 554.5 416 576 394.5 576 368 c 2
 576 352 l 1
 0 352 l 1
 0 368 l 2
 0 394.5 21.5 416 48 416 c 2
 528 416 l 2x0f80
0 16 m 2
 0 320 l 1
 576 320 l 1
 576 16 l 2
 576 -10.5 554.5 -32 528 -32 c 2
 48 -32 l 2x4f80
 21.5 -32 0 -10.5 0 16 c 2
352 248 m 2
 352 232 l 2
 352 227.599609375 355.599609375 224 360 224 c 2
 504 224 l 2
 508.400390625 224 512 227.599609375 512 232 c 2
 512 248 l 2
 512 252.400390625 508.400390625 256 504 256 c 2
 360 256 l 2
 355.599609375 256 352 252.400390625 352 248 c 2
352 184 m 2
 352 168 l 2
 352 163.599609375 355.599609375 160 360 160 c 2
 504 160 l 2x1f80
 508.400390625 160 512 163.599609375 512 168 c 2
 512 184 l 2
 512 188.400390625 508.400390625 192 504 192 c 2
 360 192 l 2
 355.599609375 192 352 188.400390625 352 184 c 2
352 120 m 2
 352 104 l 2
 352 99.599609375 355.599609375 96 360 96 c 2
 504 96 l 2x9f80
 508.400390625 96 512 99.599609375 512 104 c 2
 512 120 l 2
 512 124.400390625 508.400390625 128 504 128 c 2
 360 128 l 2
 355.599609375 128 352 124.400390625 352 120 c 2
176 256 m 0
 140.700195312 256 112 227.299804688 112 192 c 0
 112 156.700195312 140.700195312 128 176 128 c 0x2f80
 211.299804688 128 240 156.700195312 240 192 c 0
 240 227.299804688 211.299804688 256 176 256 c 0
67.099609375 51.7998046875 m 0
 63.900390625 42 72.2998046875 32 82.7001953125 32 c 2
 269.299804688 32 l 2x4f80
 279.700195312 32 288.099609375 41.900390625 284.900390625 51.7998046875 c 0
 276.5 77.5 252.400390625 96 224 96 c 2
 215.799804688 96 l 1x8f80
 203.599609375 90.900390625 190.099609375 88 176 88 c 0x2f80
 161.900390625 88 148.5 90.900390625 136.200195312 96 c 1
 128 96 l 2x8f80
 99.599609375 96 75.5 77.5 67.099609375 51.7998046875 c 0
EndSplineSet
Validated: 33
EndChar

StartChar: Thorn
Encoding: 222 222 78
Width: 448
Flags: W
HStem: -64 160<192.318 255.682> 384 64<152.035 192 256 295.965>
VStem: 16 176<97.018 209.139> 192 64<347.86 384> 256 176<97.018 211.144>
LayerCount: 2
Fore
SplineSet
432 144 m 0xc8
 432 29.099609375 338.900390625 -64 224 -64 c 0
 109.099609375 -64 16 29.099609375 16 144 c 0xe8
 16 248 92.2998046875 334.200195312 192 349.5 c 1
 192 384 l 1
 164 384 l 2
 157.400390625 384 152 389.400390625 152 396 c 2
 152 436 l 2
 152 442.599609375 157.400390625 448 164 448 c 2
 284 448 l 2
 290.599609375 448 296 442.599609375 296 436 c 2
 296 396 l 2
 296 389.400390625 290.599609375 384 284 384 c 2
 256 384 l 1
 256 349.5 l 1xd0
 293.5 343.700195312 327.700195312 327.900390625 355.700195312 304.900390625 c 1
 383.200195312 332.400390625 l 2
 387.900390625 337.099609375 395.5 337.099609375 400.200195312 332.400390625 c 2
 428.5 304.099609375 l 2
 433.200195312 299.400390625 433.200195312 291.799804688 428.5 287.099609375 c 2
 399.099609375 257.700195312 l 1
 398.5 257.099609375 l 1
 419.700195312 224.700195312 432 185.799804688 432 144 c 0xc8
256 108 m 2
 256 259.5 l 2xe8
 256 266.099609375 250.599609375 271.5 244 271.5 c 2
 204 271.5 l 2
 197.400390625 271.5 192 266.099609375 192 259.5 c 2xd0
 192 108 l 2
 192 101.400390625 197.400390625 96 204 96 c 2
 244 96 l 2
 250.599609375 96 256 101.400390625 256 108 c 2
EndSplineSet
Validated: 33
EndChar

StartChar: germandbls
Encoding: 223 223 79
Width: 576
Flags: W
HStem: -32 64<104.211 462.532> 64 64<160 512> 300 20G<34.7451 64> 368 48<177.468 238.532>
VStem: 0 64<72.2108 302.532> 96 64<128 176 289.468 350.532> 512 64<128 240>
LayerCount: 2
Fore
SplineSet
480 32 m 1
 480 16 l 2
 480 -10.509765625 458.509765625 -32 432 -32 c 2
 48 -32 l 2
 21.490234375 -32 0 -10.509765625 0 16 c 2
 0 272 l 2
 0 298.509765625 21.490234375 320 48 320 c 2
 64 320 l 1
 64 112 l 2
 64 67.8876953125 99.8876953125 32 144 32 c 2
 480 32 l 1
576 112 m 2
 576 85.490234375 554.509765625 64 528 64 c 2
 144 64 l 2
 117.490234375 64 96 85.490234375 96 112 c 2
 96 368 l 2
 96 394.509765625 117.490234375 416 144 416 c 2
 528 416 l 2
 554.509765625 416 576 394.509765625 576 368 c 2
 576 112 l 2
256 320 m 0
 256 346.509765625 234.509765625 368 208 368 c 0
 181.490234375 368 160 346.509765625 160 320 c 0
 160 293.490234375 181.490234375 272 208 272 c 0
 234.509765625 272 256 293.490234375 256 320 c 0
160 176 m 1
 160 128 l 1
 512 128 l 1
 512 240 l 1
 424.486328125 327.514648438 l 2
 419.798828125 332.201171875 412.201171875 332.201171875 407.514648438 327.514648438 c 2
 272 192 l 1
 232.486328125 231.514648438 l 2
 227.798828125 236.201171875 220.201171875 236.201171875 215.514648438 231.514648438 c 2
 160 176 l 1
EndSplineSet
Validated: 33
EndChar

StartChar: agrave
Encoding: 224 224 80
Width: 512
Flags: W
LayerCount: 2
Fore
SplineSet
497.900390625 305.900390625 m 2
 451.799804688 259.799804688 l 2
 447.099609375 255.099609375 439.5 255.099609375 434.799804688 259.799804688 c 2
 323.799804688 370.799804688 l 2
 319.099609375 375.5 319.099609375 383.099609375 323.799804688 387.799804688 c 2
 369.900390625 433.900390625 l 2
 388.599609375 452.599609375 419 452.599609375 437.799804688 433.900390625 c 2
 497.900390625 373.799804688 l 2
 516.700195312 355.099609375 516.700195312 324.700195312 497.900390625 305.900390625 c 2
284.200195312 348.200195312 m 2
 288.900390625 352.900390625 296.5 352.900390625 301.299804688 348.200195312 c 2
 412.299804688 237.200195312 l 2
 417 232.5 417 224.900390625 412.299804688 220.200195312 c 2
 149.700195312 -42.400390625 l 1
 28.2001953125 -63.7001953125 l 2
 11.7998046875 -66.5 -2.5 -52.2998046875 0.400390625 -35.900390625 c 2
 21.599609375 85.599609375 l 1
 284.200195312 348.200195312 l 2
124.099609375 108.099609375 m 0
 129.599609375 102.599609375 138.400390625 102.599609375 143.900390625 108.099609375 c 2
 297.900390625 262.099609375 l 2
 303.400390625 267.599609375 303.400390625 276.400390625 297.900390625 281.900390625 c 0
 292.400390625 287.400390625 283.599609375 287.400390625 278.099609375 281.900390625 c 2
 124.099609375 127.900390625 l 2
 118.599609375 122.400390625 118.599609375 113.599609375 124.099609375 108.099609375 c 0
88 24 m 1
 88 72 l 1
 51.7001953125 72 l 1
 40.400390625 7.5 l 1
 71.5 -23.599609375 l 1
 136 -12.2998046875 l 1
 136 24 l 1
 88 24 l 1
EndSplineSet
Validated: 33
EndChar

StartChar: aacute
Encoding: 225 225 81
Width: 352
Flags: W
HStem: -64 48<80.719 152 200 271.281> 224 32<176 272> 288 32<176 272>
VStem: 0 48<146.906 255.281> 80 192<-63.281 -16.719 148.296 192 224 256 288 320 352 395.704> 80 96<192 224 256 288 320 352> 152 48<-16 19.0518> 304 48<142.52 255.281>
LayerCount: 2
Fore
SplineSet
336 256 m 2xf3
 344.83984375 256 352 248.83984375 352 240 c 2
 352 192 l 2
 352 103.099609375 285.709960938 29.5302734375 200 17.76953125 c 1
 200 -16 l 1xf3
 256 -16 l 2
 264.83984375 -16 272 -23.16015625 272 -32 c 2
 272 -48 l 2
 272 -56.83984375 264.83984375 -64 256 -64 c 2
 96 -64 l 2
 87.16015625 -64 80 -56.83984375 80 -48 c 2
 80 -32 l 2xf9
 80 -23.16015625 87.16015625 -16 96 -16 c 2
 152 -16 l 1
 152 18.150390625 l 1
 63.9697265625 30.2900390625 0 110.200195312 0 199.83984375 c 2
 0 240 l 2
 0 248.83984375 7.16015625 256 16 256 c 2
 32 256 l 2
 40.83984375 256 48 248.83984375 48 240 c 2
 48 197.700195312 l 2
 48 130.889648438 96.7099609375 71.1103515625 163.209960938 64.6201171875 c 0
 239.509765625 57.1796875 304 117.200195312 304 192 c 2
 304 240 l 2
 304 248.83984375 311.16015625 256 320 256 c 2
 336 256 l 2xf3
176 96 m 0xf5
 122.98046875 96 80 138.98046875 80 192 c 2
 80 352 l 2xf9
 80 405.01953125 122.98046875 448 176 448 c 0xf5
 229.01953125 448 272 405.01953125 272 352 c 1xf9
 186.669921875 352 l 2
 180.780273438 352 176 348.419921875 176 344 c 2
 176 328 l 2xf5
 176 323.580078125 180.780273438 320 186.669921875 320 c 2
 272 320 l 1
 272 288 l 1xf9
 186.669921875 288 l 2
 180.780273438 288 176 284.419921875 176 280 c 2
 176 264 l 2xf5
 176 259.580078125 180.780273438 256 186.669921875 256 c 2
 272 256 l 1
 272 224 l 1xf9
 186.669921875 224 l 2
 180.780273438 224 176 220.419921875 176 216 c 2
 176 200 l 2xf5
 176 195.580078125 180.780273438 192 186.669921875 192 c 2
 272 192 l 1xf9
 272 138.98046875 229.01953125 96 176 96 c 0xf5
EndSplineSet
Validated: 33
EndChar

StartChar: acircumflex
Encoding: 226 226 82
Width: 512
Flags: W
HStem: -64 28<350.196 385.804 414.196 449.804> 4 92<350.196 385.804 414.196 449.804>
VStem: 192 128<256 444.23> 388 24<-33.8035 1.80352> 452 60<-33.8035 1.80352>
LayerCount: 2
Fore
SplineSet
216 448 m 2
 296 448 l 2
 309.299804688 448 320 437.299804688 320 424 c 2
 320 256 l 1
 407.700195312 256 l 2
 425.5 256 434.400390625 234.5 421.799804688 221.900390625 c 2
 269.700195312 69.7001953125 l 2
 262.200195312 62.2001953125 249.900390625 62.2001953125 242.400390625 69.7001953125 c 2
 90.099609375 221.900390625 l 2
 77.5 234.5 86.400390625 256 104.200195312 256 c 2
 192 256 l 1
 192 424 l 2
 192 437.299804688 202.700195312 448 216 448 c 2
512 72 m 2
 512 -40 l 2
 512 -53.2998046875 501.299804688 -64 488 -64 c 2
 24 -64 l 2
 10.7001953125 -64 0 -53.2998046875 0 -40 c 2
 0 72 l 2
 0 85.2998046875 10.7001953125 96 24 96 c 2
 170.700195312 96 l 1
 219.700195312 47 l 2
 239.799804688 26.900390625 272.200195312 26.900390625 292.299804688 47 c 2
 341.299804688 96 l 1
 488 96 l 2
 501.299804688 96 512 85.2998046875 512 72 c 2
388 -16 m 0
 388 -5 379 4 368 4 c 0
 357 4 348 -5 348 -16 c 0
 348 -27 357 -36 368 -36 c 0
 379 -36 388 -27 388 -16 c 0
452 -16 m 0
 452 -5 443 4 432 4 c 0
 421 4 412 -5 412 -16 c 0
 412 -27 421 -36 432 -36 c 0
 443 -36 452 -27 452 -16 c 0
EndSplineSet
Validated: 33
EndChar

StartChar: atilde
Encoding: 227 227 83
Width: 512
Flags: W
HStem: -64 96<182.506 329.494> -64 28<350.196 385.804 414.196 449.804> 4 92<352 385.804 414.196 449.804>
VStem: 192 128<67.7698 256> 388 24<-33.8035 1.80352> 452 60<-33.8035 1.80352>
LayerCount: 2
Fore
SplineSet
296 64 m 2x1c
 216 64 l 2
 202.700195312 64 192 74.7001953125 192 88 c 2
 192 256 l 1
 104.299804688 256 l 2
 86.5 256 77.599609375 277.5 90.2001953125 290.099609375 c 2
 242.299804688 442.299804688 l 2
 249.799804688 449.799804688 262.099609375 449.799804688 269.599609375 442.299804688 c 2
 421.799804688 290.099609375 l 2
 434.400390625 277.5 425.5 256 407.700195312 256 c 2
 320 256 l 1
 320 88 l 2
 320 74.7001953125 309.299804688 64 296 64 c 2x1c
512 72 m 2
 512 -40 l 2
 512 -53.2998046875 501.299804688 -64 488 -64 c 2
 24 -64 l 2
 10.7001953125 -64 0 -53.2998046875 0 -40 c 2
 0 72 l 2
 0 85.2998046875 10.7001953125 96 24 96 c 2
 160 96 l 1x7c
 160 88 l 2
 160 57.099609375 185.099609375 32 216 32 c 2
 296 32 l 2x9c
 326.900390625 32 352 57.099609375 352 88 c 2
 352 96 l 1
 488 96 l 2x3c
 501.299804688 96 512 85.2998046875 512 72 c 2
388 -16 m 0
 388 -5 379 4 368 4 c 0
 357 4 348 -5 348 -16 c 0
 348 -27 357 -36 368 -36 c 0
 379 -36 388 -27 388 -16 c 0
452 -16 m 0
 452 -5 443 4 432 4 c 0
 421 4 412 -5 412 -16 c 0
 412 -27 421 -36 432 -36 c 0
 443 -36 452 -27 452 -16 c 0
EndSplineSet
Validated: 33
EndChar

StartChar: adieresis
Encoding: 228 228 84
Width: 576
Flags: W
HStem: -64 80<152.507 240 336 423.493> 320 64<64 128 448 512>
VStem: 0 64<278.855 320> 240 96<16 88> 512 64<278.855 320>
CounterMasks: 1 38
LayerCount: 2
Fore
SplineSet
552 384 m 2
 565.299804688 384 576 373.299804688 576 360 c 2
 576 304 l 2
 576 268.299804688 553.400390625 231.599609375 514.099609375 203.299804688 c 0
 482.700195312 180.599609375 444.400390625 166.200195312 404.099609375 161.599609375 c 1
 372.700195312 109.5 336 88 336 88 c 1
 336 16 l 1
 384 16 l 2
 419.299804688 16 448 -4.7001953125 448 -40 c 2
 448 -52 l 2
 448 -58.599609375 442.599609375 -64 436 -64 c 2
 140 -64 l 2
 133.400390625 -64 128 -58.599609375 128 -52 c 2
 128 -40 l 2
 128 -4.7001953125 156.700195312 16 192 16 c 2
 240 16 l 1
 240 88 l 1
 240 88 203.299804688 109.5 171.900390625 161.599609375 c 1
 131.700195312 166.200195312 93.400390625 180.599609375 61.900390625 203.299804688 c 0
 22.5 231.599609375 0 268.299804688 0 304 c 2
 0 360 l 2
 0 373.299804688 10.7001953125 384 24 384 c 2
 128 384 l 1
 128 424 l 2
 128 437.299804688 138.700195312 448 152 448 c 2
 424 448 l 2
 437.299804688 448 448 437.299804688 448 424 c 2
 448 384 l 1
 552 384 l 2
99.2998046875 255.200195312 m 0
 111.799804688 246.200195312 125.900390625 239 141 233.799804688 c 1
 134 258.799804688 129.200195312 287.400390625 128.200195312 320 c 1
 64 320 l 1
 64 304 l 2
 64 292.400390625 74.900390625 272.799804688 99.2998046875 255.200195312 c 0
512 304 m 2
 512 320 l 1
 447.700195312 320 l 1
 446.700195312 287.400390625 441.900390625 258.799804688 434.900390625 233.799804688 c 1
 450 239 464.200195312 246.200195312 476.700195312 255.200195312 c 0
 494.299804688 267.900390625 512 287.900390625 512 304 c 2
EndSplineSet
Validated: 1
EndChar

StartChar: aring
Encoding: 229 229 85
Width: 448
Flags: W
HStem: -32 64<188.217 259.783> 160 64<188.217 259.783> 352 64<64.035 318.762>
VStem: 0 160<60.2172 131.783> 0 64<224.035 351.965> 288 160<60.2172 131.783> 320 128<224.035 314.822>
CounterMasks: 1 e0
LayerCount: 2
Fore
SplineSet
433.94140625 318.05859375 m 2xea
 441.701171875 310.298828125 448 295.092773438 448 284.118164062 c 2
 448 16 l 2
 448 -10.509765625 426.509765625 -32 400 -32 c 2
 48 -32 l 2
 21.490234375 -32 0 -10.509765625 0 16 c 2
 0 368 l 2
 0 394.509765625 21.490234375 416 48 416 c 2
 316.118164062 416 l 2
 327.092773438 416 342.298828125 409.701171875 350.05859375 401.94140625 c 2
 433.94140625 318.05859375 l 2xea
224 32 m 0
 259.345703125 32 288 60.654296875 288 96 c 0
 288 131.345703125 259.345703125 160 224 160 c 0
 188.654296875 160 160 131.345703125 160 96 c 0xf4
 160 60.654296875 188.654296875 32 224 32 c 0
320 336.51953125 m 2xea
 320 339.262695312 318.424804688 343.065429688 316.485351562 345.004882812 c 2
 313.004882812 348.485351562 l 2
 310.754882812 350.736328125 307.703125 352 304.51953125 352 c 2
 76 352 l 2
 69.373046875 352 64 346.626953125 64 340 c 2
 64 236 l 2
 64 229.373046875 69.373046875 224 76 224 c 2
 308 224 l 2
 314.626953125 224 320 229.373046875 320 236 c 2
 320 336.51953125 l 2xea
EndSplineSet
Validated: 1
EndChar

StartChar: ae
Encoding: 230 230 86
Width: 384
Flags: W
VStem: 0 384<192.3 317.58>
LayerCount: 2
Fore
SplineSet
172.267578125 -53.669921875 m 0
 26.9697265625 156.96875 0 178.586914062 0 256 c 0
 0 362.0390625 85.9609375 448 192 448 c 0
 298.0390625 448 384 362.0390625 384 256 c 0
 384 178.586914062 357.030273438 156.96875 211.732421875 -53.669921875 c 0
 202.197265625 -67.4443359375 181.801757812 -67.443359375 172.267578125 -53.669921875 c 0
EndSplineSet
Validated: 33
EndChar

StartChar: ccedilla
Encoding: 231 231 87
Width: 512
Flags: W
HStem: -56 106<228.271 283.729> 142 18<229.371 282.629> 320 120<218.234 293.766>
VStem: 8 202<83.2974 228.865> 302 202<83.2974 228.865>
LayerCount: 2
Fore
SplineSet
504 192 m 0
 504 55.0029296875 392.95703125 -56 256 -56 c 0
 119.04296875 -56 8 55.0029296875 8 192 c 0
 8 328.916992188 119.04296875 440 256 440 c 0
 392.95703125 440 504 328.916992188 504 192 c 0
256 142 m 0
 230.594726562 142 210 121.405273438 210 96 c 0
 210 70.5947265625 230.594726562 50 256 50 c 0
 281.405273438 50 302 70.5947265625 302 96 c 0
 302 121.405273438 281.405273438 142 256 142 c 0
212.327148438 307.345703125 m 2
 219.745117188 171.345703125 l 2
 220.091796875 164.982421875 225.353515625 160 231.7265625 160 c 2
 280.2734375 160 l 2
 286.646484375 160 291.908203125 164.982421875 292.254882812 171.345703125 c 2
 299.672851562 307.345703125 l 2
 300.047851562 314.219726562 294.575195312 320 287.69140625 320 c 2
 224.307617188 320 l 2
 217.423828125 320 211.952148438 314.219726562 212.327148438 307.345703125 c 2
EndSplineSet
Validated: 33
EndChar

StartChar: egrave
Encoding: 232 232 88
Width: 576
Flags: W
HStem: 0 48<237.167 338.834> 96.4404 111.56<219.815 314.661> 336 48<236.191 339.809>
VStem: 0.000976562 143.999<167.051 216.942> 272 112.006<165.785 260.185> 432 143.999<167.595 216.418>
LayerCount: 2
Fore
SplineSet
572.51953125 206.599609375 m 0
 574.440429688 202.80078125 575.999023438 196.26171875 575.999023438 192.004882812 c 0
 575.999023438 187.748046875 574.440429688 181.208984375 572.51953125 177.41015625 c 0
 518.3203125 71.6396484375 410.9296875 0 288 0 c 0
 165.0703125 0 57.7099609375 71.58984375 3.48046875 177.400390625 c 0
 1.5595703125 181.19921875 0.0009765625 187.73828125 0.0009765625 191.995117188 c 0
 0.0009765625 196.251953125 1.5595703125 202.791015625 3.48046875 206.58984375 c 0
 57.6796875 312.360351562 165.0703125 384 288 384 c 0
 410.9296875 384 518.290039062 312.41015625 572.51953125 206.599609375 c 0
288 48 m 2
 288.0703125 48 l 2
 367.51953125 48 432 112.48046875 432 191.9296875 c 2
 432 192 l 2
 432 271.48828125 367.48828125 336 288 336 c 0
 208.51171875 336 144 271.48828125 144 192 c 0
 144 112.51171875 208.51171875 48 288 48 c 2
288 288 m 2
 288.225585938 288 l 2
 341.095703125 288 384.005859375 245.090820312 384.005859375 192.220703125 c 0
 384.005859375 139.349609375 341.095703125 96.4404296875 288.225585938 96.4404296875 c 0
 235.354492188 96.4404296875 192.4453125 139.349609375 192.4453125 192.220703125 c 0
 192.4453125 199.268554688 193.943359375 210.5078125 195.790039062 217.309570312 c 1
 202.7734375 212.170898438 215.479492188 208 224.150390625 208 c 0
 250.563476562 208 272 229.436523438 272 255.849609375 c 0
 272 264.520507812 267.829101562 277.2265625 262.690429688 284.209960938 c 1
 269.534179688 286.202148438 280.873046875 287.900390625 288 288 c 2
EndSplineSet
Validated: 1
EndChar

